<?xml version="1.0" encoding="UTF-8"?><svg id="b" xmlns="http://www.w3.org/2000/svg" viewBox="0 0 1000 1000"><defs><style>.f{fill:none;stroke:#202020;stroke-miterlimit:10;stroke-width:20px;}.g{fill:#fff;}</style></defs><g id="c"><rect id="d" width="1000" height="1000"/><path class="g" d="M913.71,985.71h-19.07v-4.77h-4.77v4.77h-4.77v-4.77h-14.3v-4.77h-14.3v-4.77h-4.77v-4.77h-4.77v4.77h4.77v4.77h4.77v4.77h-4.77v-4.77h-4.77v-4.77h-4.77v-4.77h-14.3v-4.77h-9.53v4.77h4.77v4.77h4.77v4.77h-4.77v-4.77h-4.77v-4.77h-4.77v-9.53h-4.77v-4.77h-4.77v4.77h4.77v4.77h-4.77v-4.77h-4.77v4.77h4.77v4.77h9.53v4.77h4.77v4.77h4.77v4.77h-4.77v-4.77h-4.77v-4.77h-9.53v-4.77h-14.3v-4.77h4.77v-4.77h-4.77v-4.77h-4.77v-4.77h-4.77v-4.77h-4.77v4.77h4.77v4.77h-4.77v-4.77h-4.77v-9.53h-14.3v-4.77h-4.77v-4.77h-4.77v-4.77h-4.77v4.77h4.77v4.77h4.77v4.77h-4.77v-4.77h-4.77v-4.77h-4.77v-4.77h-4.77v-4.77h-4.77v4.77h4.77v4.77h4.77v4.77h4.77v4.77h-4.77v-4.77h-4.77v-4.77h-4.77v-4.77h-4.77v4.77h4.77v4.77h-4.77v-4.77h-4.77v-9.53h-4.77v-4.77h-4.77v14.3h-4.77v-4.77h-4.77v-4.77h-4.77v-9.53h-4.77v9.53h4.77v4.77h4.77v4.77h4.77v4.77h4.77v28.6h-4.77v-4.77h-4.77v-4.77h-4.77v-4.77h4.77v4.77h4.77v-4.77h-4.77v-9.53h-4.77v-4.77h-9.53v-4.77h9.53v4.77h4.77v4.77h4.77v-4.77h-4.77v-4.77h-4.77v-4.77h-14.3v38.14h-4.77v4.77h4.77v4.77h-4.77v-4.77h-4.77v-9.53h4.77v-9.53h-4.77v-4.77h4.77v-14.3h-4.77v-4.77h4.77v-4.77h-4.77v-4.77h-4.77v-4.77h4.77v-4.77h-4.77v-4.77h-4.77v9.53h-4.77v-23.84h-4.77v9.53h-4.77v-71.51h4.77v-4.77h-4.77v-4.77h4.77v-4.77h-4.77v-4.77h4.77v4.77h4.77v-4.77h-4.77v-14.3h4.77v-4.77h-4.77v-4.77h9.53v-4.77h-14.3v4.77h-4.77v4.77h-4.77v4.77h-4.77v4.77h-9.53v4.77h-4.77v4.77h-4.77v4.77h-4.77v4.77h-4.77v4.77h-9.53v-4.77h-4.77v-4.77h-4.77v-4.77h4.77v4.77h4.77v4.77h4.77v-9.53h9.53v-4.77h-4.77v-4.77h4.77v4.77h4.77v-4.77h-4.77v-4.77h4.77v4.77h4.77v-4.77h9.53v-4.77h-4.77v-9.53h4.77v4.77h4.77v-9.53h4.77v4.77h4.77v-4.77h-4.77v-4.77h4.77v4.77h4.77v-9.53h-4.77v-4.77h4.77v4.77h4.77v-4.77h-4.77v-14.3h-4.77v-4.77h4.77v4.77h4.77v14.3h4.77v-4.77h4.77v-4.77h-4.77v-4.77h4.77v4.77h9.53v-4.77h-4.77v-4.77h-4.77v-4.77h4.77v4.77h4.77v-4.77h4.77v-9.53h-4.77v-4.77h4.77v4.77h4.77v4.77h4.77v-4.77h-4.77v-4.77h4.77v-4.77h4.77v-4.77h-4.77v-4.77h-4.77v-4.77h4.77v4.77h4.77v-9.53h-4.77v-4.77h4.77v4.77h4.77v-9.53h-4.77v-4.77h9.53v-4.77h9.53v-4.77h-9.53v-9.53h4.77v4.77h4.77v-4.77h-4.77v-4.77h4.77v-4.77h-4.77v-4.77h4.77v4.77h4.77v-4.77h-4.77v-4.77h-4.77v-4.77h4.77v4.77h4.77v-4.77h-4.77v-4.77h4.77v-4.77h-4.77v-4.77h-4.77v-4.77h4.77v4.77h4.77v4.77h4.77v-4.77h-4.77v-4.77h-4.77v-4.77h-4.77v-4.77h-4.77v-4.77h-4.77v-4.77h-4.77v-4.77h4.77v4.77h4.77v4.77h4.77v4.77h4.77v4.77h4.77v4.77h4.77v-4.77h-4.77v-4.77h-4.77v-4.77h-4.77v-4.77h-4.77v-9.53h-9.53v-4.77h-4.77v-4.77h-4.77v-4.77h-4.77v4.77h4.77v4.77h4.77v4.77h-4.77v-4.77h-4.77v-4.77h-9.53v4.77h-4.77v-9.53h-4.77v4.77h-4.77v4.77h9.53v4.77h4.77v4.77h-4.77v-4.77h-9.53v-4.77h-9.53v-4.77h4.77v-4.77h-9.53v9.53h4.77v4.77h4.77v4.77h-4.77v-4.77h-4.77v-4.77h-4.77v-14.3h-4.77v14.3h4.77v4.77h4.77v4.77h4.77v4.77h-4.77v-4.77h-4.77v-4.77h-4.77v-4.77h-4.77v-14.3h-4.77v14.3h4.77v9.53h-4.77v-9.53h-4.77v-9.53h-4.77v4.77h-4.77v4.77h9.53v9.53h-4.77v-4.77h-4.77v-4.77h-4.77v-9.53h-4.77v9.53h4.77v4.77h4.77v4.77h4.77v9.53h4.77v4.77h4.77v4.77h-4.77v-4.77h-4.77v-4.77h-4.77v-9.53h-4.77v-4.77h-4.77v-4.77h-4.77v-9.53h-4.77v-9.53h-4.77v9.53h4.77v9.53h-4.77v-9.53h-4.77v9.53h4.77v4.77h4.77v4.77h4.77v4.77h-4.77v-4.77h-4.77v-4.77h-4.77v-4.77h-4.77v-4.77h-4.77v4.77h4.77v9.53h9.53v4.77h-9.53v4.77h4.77v14.3h4.77v4.77h4.77v-4.77h-4.77v-4.77h4.77v4.77h4.77v4.77h4.77v-4.77h-4.77v-4.77h-4.77v-4.77h-4.77v-4.77h4.77v4.77h4.77v4.77h4.77v4.77h4.77v-4.77h-4.77v-4.77h-4.77v-4.77h4.77v4.77h4.77v4.77h4.77v9.53h-4.77v4.77h9.53v4.77h4.77v4.77h-4.77v-4.77h-4.77v4.77h4.77v4.77h4.77v4.77h4.77v4.77h4.77v4.77h-4.77v-4.77h-4.77v-4.77h-4.77v-4.77h-4.77v-4.77h-4.77v4.77h4.77v4.77h4.77v4.77h4.77v4.77h-4.77v-4.77h-9.53v4.77h9.53v9.53h-4.77v-4.77h-4.77v-4.77h-4.77v4.77h4.77v9.53h4.77v4.77h4.77v4.77h-4.77v-4.77h-9.53v9.53h4.77v4.77h-4.77v-4.77h-4.77v4.77h4.77v4.77h-4.77v-4.77h-4.77v4.77h4.77v4.77h-9.53v4.77h-9.53v-4.77h4.77v-4.77h-14.3v-4.77h-4.77v-4.77h-4.77v-4.77h-4.77v4.77h-4.77v-4.77h-4.77v4.77h4.77v4.77h-4.77v-4.77h-14.3v4.77h-14.3v-4.77h-4.77v4.77h4.77v4.77h-4.77v-4.77h-4.77v-4.77h-38.14v4.77h4.77v4.77h-4.77v-4.77h-19.07v-4.77h-4.77v-4.77h-4.77v-9.53h-4.77v-4.77h-4.77v-4.77h-4.77v-4.77h4.77v4.77h4.77v4.77h4.77v4.77h4.77v9.53h4.77v4.77h4.77v-4.77h-4.77v-4.77h4.77v-4.77h-9.53v-4.77h-4.77v-19.07h-4.77v-4.77h-4.77v-4.77h4.77v4.77h9.53v4.77h4.77v4.77h4.77v-4.77h-4.77v-4.77h-4.77v-9.53h-4.77v-4.77h-4.77v-4.77h-4.77v-4.77h-4.77v-4.77h-4.77v-4.77h-4.77v-4.77h4.77v4.77h4.77v4.77h4.77v4.77h4.77v4.77h9.53v9.53h4.77v4.77h4.77v-4.77h-4.77v-9.53h-4.77v-9.53h-4.77v-4.77h-4.77v-4.77h-4.77v-4.77h-4.77v-14.3h-9.53v-4.77h-4.77v4.77h4.77v4.77h4.77v4.77h-4.77v-4.77h-4.77v-4.77h-4.77v-14.3h-4.77v14.3h4.77v4.77h4.77v4.77h4.77v4.77h-4.77v-4.77h-4.77v-4.77h-4.77v-4.77h-4.77v-14.3h-4.77v-4.77h-4.77v4.77h4.77v14.3h4.77v4.77h-4.77v-4.77h-4.77v-4.77h-4.77v-4.77h-4.77v-4.77h-4.77v4.77h4.77v4.77h4.77v4.77h-4.77v-4.77h-4.77v-4.77h-4.77v-4.77h-4.77v4.77h4.77v4.77h4.77v4.77h-4.77v-4.77h-14.3v4.77h4.77v4.77h4.77v4.77h4.77v14.3h-4.77v-14.3h-4.77v-4.77h-4.77v-4.77h-4.77v9.53h4.77v4.77h-4.77v14.3h9.53v4.77h-4.77v4.77h4.77v14.3h4.77v4.77h-4.77v4.77h4.77v9.53h-4.77v4.77h4.77v9.53h4.77v4.77h-4.77v-4.77h-4.77v-9.53h-4.77v-14.3h-4.77v-9.53h-4.77v9.53h4.77v14.3h4.77v9.53h4.77v9.53h-4.77v-9.53h-4.77v-4.77h-4.77v-4.77h-4.77v4.77h4.77v4.77h4.77v9.53h4.77v4.77h4.77v4.77h4.77v4.77h-4.77v-4.77h-4.77v4.77h4.77v4.77h4.77v4.77h4.77v4.77h-4.77v-4.77h-4.77v-4.77h-4.77v4.77h4.77v4.77h4.77v14.3h4.77v4.77h4.77v4.77h4.77v-4.77h-4.77v-4.77h-4.77v-9.53h4.77v9.53h4.77v4.77h9.53v4.77h-4.77v4.77h9.53v4.77h4.77v4.77h4.77v-9.53h-4.77v-4.77h4.77v-76.27h4.77v9.53h4.77v4.77h-4.77v4.77h4.77v4.77h-4.77v4.77h4.77v14.3h-4.77v4.77h4.77v38.14h4.77v4.77h4.77v4.77h-4.77v-4.77h-4.77v4.77h4.77v4.77h4.77v4.77h4.77v9.53h4.77v9.53h4.77v4.77h4.77v4.77h4.77v-4.77h-4.77v-4.77h-4.77v-4.77h4.77v4.77h4.77v4.77h4.77v4.77h4.77v4.77h4.77v-9.53h-4.77v-4.77h-4.77v-4.77h4.77v4.77h4.77v4.77h4.77v33.37h4.77v4.77h4.77v4.77h4.77v4.77h9.53v4.77h4.77v-4.77h4.77v4.77h9.53v4.77h47.67v-4.77h19.07v4.77h-14.3v4.77h-52.44v9.53h-4.77v-9.53h-9.53v-4.77h-14.3v-4.77h-14.3v-4.77h-4.77v4.77h4.77v4.77h-4.77v9.53h4.77v4.77h-4.77v-4.77h-4.77v-28.6h-9.53v-4.77h-9.53v-4.77h-9.53v4.77h4.77v4.77h-4.77v4.77h4.77v4.77h-4.77v9.53h4.77v4.77h-4.77v4.77h4.77v4.77h-4.77v4.77h4.77v4.77h-4.77v4.77h4.77v4.77h-4.77v9.53h4.77v4.77h-4.77v19.07h4.77v4.77h-4.77v-4.77h-4.77v-90.57h-4.77v-4.77h4.77v-4.77h-4.77v-4.77h-4.77v-4.77h-4.77v-9.53h-4.77v-4.77h-4.77v4.77h4.77v4.77h-4.77v4.77h4.77v4.77h4.77v4.77h-4.77v-4.77h-4.77v-4.77h-4.77v4.77h4.77v4.77h4.77v52.44h4.77v4.77h-4.77v9.53h4.77v19.07h4.77v4.77h-4.77v14.3h4.77v4.77h-9.53v-33.37h-4.77v66.74h-4.77v4.77h4.77v9.53h-4.77v4.77h4.77v14.3h-9.53v-4.77h4.77v-4.77h-4.77v-61.97h-4.77v-4.77h-4.77v14.3h-4.77v4.77h4.77v4.77h-4.77v9.53h-4.77v14.3h4.77v4.77h-4.77v23.84h-9.53v-4.77h-4.77v-4.77h4.77v-4.77h-4.77v-4.77h-4.77v-4.77h4.77v4.77h4.77v-4.77h-4.77v-4.77h-4.77v-4.77h4.77v4.77h4.77v-14.3h-4.77v-4.77h-4.77v-4.77h4.77v4.77h4.77v-4.77h-4.77v-4.77h-4.77v-4.77h-4.77v-4.77h-4.77v4.77h4.77v23.84h-9.53v-4.77h4.77v-4.77h-4.77v-9.53h4.77v-4.77h-4.77v-4.77h-4.77v-4.77h-4.77v4.77h4.77v23.84h-4.77v-23.84h-4.77v28.6h-4.77v-14.3h-4.77v-4.77h-9.53v4.77h4.77v4.77h-9.53v-4.77h-4.77v4.77h4.77v4.77h-4.77v4.77h-4.77v38.14h-9.53v-9.53h4.77v-4.77h-9.53v-9.53h4.77v4.77h4.77v-4.77h-4.77v-4.77h4.77v-4.77h-4.77v-4.77h-4.77v-4.77h-4.77v-4.77h-4.77v4.77h4.77v4.77h-4.77v-4.77h-9.53v4.77h-14.3v4.77h4.77v4.77h-4.77v-4.77h-4.77v4.77h-4.77v-4.77h-4.77v9.53h-4.77v-4.77h-4.77v4.77h-4.77v4.77h-4.77v-4.77h-4.77v4.77h4.77v4.77h4.77v9.53h-14.3v-4.77h-9.53v-4.77h-4.77v4.77h4.77v4.77h9.53v4.77h-9.53v-4.77h-4.77v-4.77h-4.77v-4.77h-4.77v4.77h-9.53v4.77h4.77v4.77h-4.77v-4.77h-14.3v4.77h-19.07v-4.77h14.3v-4.77h9.53v-4.77h14.3v-4.77h14.3v-4.77h14.3v-4.77h9.53v-4.77h14.3v-4.77h9.53v-4.77h9.53v-4.77h9.53v-4.77h9.53v-4.77h9.53v-4.77h9.53v-4.77h4.77v-4.77h9.53v-4.77h4.77v-4.77h9.53v-4.77h4.77v-4.77h9.53v-4.77h4.77v-4.77h4.77v-4.77h4.77v-4.77h4.77v-4.77h4.77v-4.77h4.77v-9.53h4.77v-4.77h4.77v-14.3h4.77v-14.3h4.77v-81.04h-4.77v-9.53h-4.77v-4.77h-4.77v-4.77h-4.77v-9.53h-4.77v-4.77h-4.77v-9.53h-4.77v-9.53h-4.77v-9.53h-4.77v-14.3h-4.77v-14.3h-4.77v-19.07h-4.77v-23.84h-4.77v-4.77h4.77v-4.77h-4.77v-4.77h-14.3v-4.77h-4.77v-4.77h-4.77v-4.77h-4.77v-9.53h-4.77v-14.3h-4.77v-9.53h-4.77v-9.53h-4.77v-9.53h-4.77v-4.77h4.77v-4.77h-4.77v-4.77h-4.77v-4.77h-4.77v-4.77h4.77v-4.77h-4.77v-19.07h-4.77v-4.77h4.77v-4.77h-4.77v-23.84h4.77v-4.77h-4.77v-19.07h4.77v-9.53h4.77v-4.77h19.07v4.77h14.3v-4.77h-4.77v-4.77h4.77v-4.77h-4.77v-4.77h-4.77v-4.77h4.77v4.77h4.77v-4.77h-4.77v-4.77h4.77v-4.77h-4.77v-9.53h4.77v-4.77h-4.77v-71.51h4.77v-4.77h-4.77v-4.77h4.77v-33.37h4.77v-23.84h4.77v-14.3h4.77v-14.3h4.77v-9.53h4.77v-9.53h4.77v-9.53h4.77v-4.77h4.77v-9.53h4.77v-4.77h4.77v-4.77h4.77v-9.53h4.77v-4.77h4.77v-4.77h4.77v-4.77h4.77v-4.77h9.53v-4.77h4.77v-4.77h4.77v-4.77h4.77v-4.77h9.53v-4.77h4.77v-4.77h9.53v-4.77h9.53v-4.77h9.53v-4.77h9.53v-4.77h9.53v4.77h-4.77v4.77h4.77v4.77h4.77v-14.3h9.53v4.77h4.77v-4.77h33.37v9.53h4.77v9.53h4.77v-4.77h4.77v-14.3h71.51v4.77h4.77v-4.77h4.77v19.07h4.77v-19.07h23.84v4.77h9.53v4.77h14.3v4.77h9.53v4.77h9.53v4.77h4.77v4.77h14.3v4.77h4.77v4.77h4.77v4.77h4.77v4.77h4.77v4.77h4.77v4.77h4.77v4.77h4.77v4.77h4.77v4.77h9.53v9.53h4.77v4.77h4.77v9.53h4.77v9.53h9.53v4.77h-4.77v4.77h4.77v9.53h9.53v4.77h-4.77v4.77h4.77v9.53h4.77v14.3h4.77v23.84h4.77v19.07h4.77v4.77h-4.77v9.53h4.77v4.77h-4.77v9.53h4.77v4.77h-4.77v4.77h9.53v4.77h-9.53v4.77h4.77v9.53h4.77v4.77h-4.77v-4.77h-4.77v4.77h4.77v9.53h4.77v4.77h-4.77v-4.77h-4.77v4.77h4.77v9.53h-4.77v4.77h4.77v4.77h4.77v4.77h-4.77v-4.77h-4.77v4.77h4.77v4.77h-4.77v4.77h4.77v4.77h4.77v4.77h-4.77v-4.77h-4.77v4.77h4.77v4.77h-4.77v4.77h4.77v4.77h-4.77v14.3h4.77v-9.53h4.77v4.77h4.77v-4.77h19.07v4.77h4.77v9.53h4.77v9.53h-4.77v4.77h4.77v14.3h-4.77v9.53h4.77v4.77h-4.77v28.6h-4.77v19.07h-4.77v9.53h-4.77v9.53h-4.77v14.3h-4.77v9.53h-4.77v4.77h-4.77v14.3h-4.77v9.53h-9.53v9.53h-4.77v-4.77h-4.77v-4.77h-4.77v4.77h4.77v9.53h-4.77v-4.77h-4.77v33.37h-4.77v23.84h-4.77v14.3h-4.77v14.3h-4.77v9.53h-4.77v9.53h-4.77v9.53h-4.77v4.77h-4.77v9.53h-4.77v4.77h-4.77v9.53h-4.77v4.77h-4.77v66.74h4.77v4.77h-4.77v4.77h4.77v9.53h4.77v4.77h-4.77v4.77h4.77v4.77h4.77v9.53h4.77v9.53h4.77v4.77h4.77v9.53h4.77v4.77h4.77v4.77h4.77v4.77h9.53v4.77h4.77v4.77h4.77v4.77h9.53v4.77h4.77v4.77h4.77v4.77h9.53v4.77h9.53v4.77h4.77v4.77h9.53v4.77h9.53v4.77h9.53v4.77h9.53v4.77h9.53v4.77h14.3v4.77h9.53v4.77h9.53v4.77h14.3v4.77h19.07v4.77h14.3v4.77ZM189.12,976.18h4.77v-9.53h-14.3v4.77h9.53v4.77ZM270.16,947.58h4.77v-4.77h-4.77v-4.77h-4.77v4.77h4.77v4.77ZM270.16,938.04h4.77v-4.77h-4.77v4.77ZM346.43,928.51h4.77v-4.77h-4.77v-9.53h-4.77v-4.77h-4.77v4.77h4.77v9.53h4.77v4.77ZM303.53,928.51h4.77v-4.77h-4.77v4.77ZM699.19,918.98h4.77v-4.77h-4.77v4.77ZM355.96,914.21h4.77v-4.77h-4.77v4.77ZM375.03,909.44h4.77v-4.77h-4.77v4.77ZM355.96,904.67h4.77v-19.07h4.77v-9.53h4.77v-4.77h-4.77v-4.77h4.77v-14.3h4.77v-4.77h-4.77v-4.77h4.77v-4.77h-4.77v-4.77h4.77v-9.53h-4.77v-4.77h-4.77v23.84h-4.77v9.53h-4.77v9.53h-4.77v4.77h-4.77v4.77h4.77v9.53h4.77v23.84ZM375.03,899.91h4.77v-4.77h-4.77v4.77ZM651.52,880.84h4.77v-33.37h-4.77v33.37ZM341.66,880.84h4.77v-4.77h-4.77v4.77ZM684.89,857h4.77v-4.77h-4.77v-4.77h-4.77v-4.77h-4.77v4.77h4.77v4.77h4.77v4.77ZM651.52,842.7h4.77v-4.77h-4.77v4.77ZM675.36,837.94h4.77v-9.53h-4.77v9.53ZM651.52,833.17h4.77v-4.77h-4.77v4.77ZM656.29,818.87h4.77v-4.77h-4.77v4.77ZM370.27,818.87h4.77v-4.77h-4.77v-4.77h4.77v-4.77h-9.53v9.53h4.77v4.77ZM384.57,814.1h4.77v-4.77h-4.77v4.77ZM375.03,804.57h4.77v-4.77h-4.77v-4.77h-4.77v4.77h4.77v4.77ZM656.29,799.8h4.77v-4.77h-4.77v4.77ZM403.63,799.8h4.77v-4.77h-4.77v4.77ZM370.27,790.26h4.77v-4.77h-4.77v4.77ZM375.03,780.73h4.77v-4.77h-4.77v4.77ZM413.17,775.96h4.77v-4.77h-4.77v4.77ZM370.27,771.2h4.77v-4.77h-4.77v4.77ZM408.4,766.43h4.77v-4.77h-4.77v-4.77h-4.77v4.77h4.77v4.77ZM370.27,761.66h4.77v-4.77h-4.77v4.77ZM379.8,752.13h9.53v-4.77h-9.53v-4.77h-4.77v-4.77h-4.77v4.77h4.77v4.77h4.77v4.77ZM365.5,752.13h4.77v-4.77h-4.77v4.77ZM694.43,704.46h4.77v-4.77h-4.77v4.77ZM699.19,690.16h4.77v-4.77h-4.77v4.77ZM575.25,690.16h4.77v-4.77h-4.77v4.77ZM336.9,690.16h4.77v-4.77h-4.77v4.77ZM327.36,690.16h4.77v-4.77h-4.77v4.77ZM565.71,685.39h4.77v-9.53h-4.77v-9.53h-4.77v9.53h4.77v9.53ZM451.31,685.39h4.77v-4.77h-4.77v4.77ZM584.78,680.62h4.77v-4.77h-4.77v4.77ZM332.13,680.62h4.77v-4.77h-4.77v4.77ZM322.59,680.62h4.77v-4.77h-4.77v4.77ZM451.31,675.86h4.77v-4.77h-4.77v4.77ZM589.55,671.09h4.77v-4.77h-4.77v4.77ZM570.48,671.09h4.77v-4.77h-4.77v4.77ZM518.04,671.09h9.53v-4.77h-4.77v-4.77h9.53v-4.77h9.53v-4.77h4.77v-4.77h4.77v4.77h4.77v-9.53h4.77v4.77h4.77v-19.07h-4.77v-9.53h-4.77v-4.77h-4.77v-4.77h-4.77v4.77h-4.77v4.77h-4.77v-4.77h-4.77v9.53h-4.77v-4.77h-9.53v4.77h-4.77v4.77h-4.77v-9.53h-4.77v-4.77h-4.77v4.77h-4.77v-4.77h-4.77v4.77h4.77v4.77h-23.84v9.53h-4.77v9.53h4.77v9.53h4.77v-4.77h4.77v14.3h4.77v-9.53h4.77v9.53h4.77v4.77h4.77v-4.77h-4.77v-4.77h4.77v4.77h4.77v-14.3h4.77v23.84h4.77v-4.77h4.77v4.77ZM460.84,671.09h4.77v-4.77h-4.77v4.77ZM446.54,666.32h4.77v-4.77h-4.77v4.77ZM437,666.32h4.77v-14.3h-4.77v14.3ZM317.83,661.55h4.77v-4.77h-4.77v4.77ZM332.13,656.79h4.77v-4.77h-4.77v-4.77h-4.77v4.77h4.77v4.77ZM317.83,652.02h4.77v-4.77h-4.77v4.77ZM594.32,647.25h4.77v-4.77h-4.77v4.77ZM460.84,647.25h4.77v-4.77h-4.77v4.77ZM451.31,647.25h4.77v-4.77h-4.77v4.77ZM327.36,642.49h4.77v-4.77h-4.77v4.77ZM313.06,642.49h4.77v-14.3h-4.77v14.3ZM341.66,637.72h4.77v-4.77h-4.77v4.77ZM594.32,632.95h4.77v-4.77h-4.77v4.77ZM575.25,632.95h4.77v-4.77h-4.77v-4.77h-4.77v4.77h4.77v4.77ZM327.36,632.95h4.77v-4.77h-4.77v4.77ZM336.9,628.18h9.53v-4.77h-9.53v-4.77h4.77v-4.77h-4.77v-28.6h-4.77v19.07h-4.77v4.77h4.77v14.3h4.77v4.77ZM441.77,623.42h9.53v-4.77h-9.53v4.77ZM308.29,623.42h4.77v-23.84h-4.77v-4.77h4.77v-9.53h-4.77v-47.67h-4.77v-4.77h4.77v-4.77h-4.77v-4.77h-4.77v-4.77h4.77v-9.53h-4.77v-9.53h4.77v-4.77h-4.77v-14.3h4.77v-4.77h-4.77v-4.77h4.77v-14.3h4.77v-14.3h4.77v-38.14h4.77v-4.77h-4.77v-4.77h4.77v-9.53h-4.77v-9.53h-4.77v-4.77h4.77v-4.77h-9.53v-9.53h-9.53v-4.77h9.53v4.77h4.77v-4.77h-4.77v-4.77h-14.3v-4.77h-4.77v-4.77h4.77v4.77h4.77v-4.77h-4.77v-4.77h-4.77v-4.77h4.77v4.77h4.77v4.77h4.77v4.77h4.77v-4.77h-4.77v-4.77h-4.77v-4.77h-4.77v-4.77h-9.53v52.44h4.77v4.77h-4.77v14.3h4.77v4.77h-4.77v4.77h4.77v4.77h-4.77v4.77h4.77v4.77h-4.77v14.3h-4.77v9.53h4.77v9.53h4.77v4.77h-4.77v4.77h4.77v4.77h-4.77v9.53h4.77v52.44h4.77v19.07h4.77v19.07h4.77v14.3h4.77v19.07h4.77v23.84ZM451.31,618.65h4.77v-4.77h-4.77v4.77ZM437,613.88h4.77v-4.77h-4.77v-4.77h-4.77v-4.77h-4.77v-4.77h4.77v4.77h4.77v4.77h4.77v-4.77h-4.77v-4.77h-4.77v-4.77h-4.77v-4.77h-4.77v-9.53h-4.77v-4.77h-4.77v4.77h4.77v9.53h4.77v14.3h4.77v4.77h4.77v4.77h4.77v4.77ZM727.79,609.12h4.77v-4.77h-4.77v4.77ZM446.54,609.12h4.77v-4.77h-4.77v4.77ZM713.49,604.35h4.77v-4.77h-4.77v4.77ZM532.35,604.35h4.77v-14.3h-9.53v-4.77h-4.77v-4.77h-4.77v-4.77h4.77v4.77h4.77v-4.77h-4.77v-4.77h-4.77v-4.77h4.77v4.77h9.53v14.3h4.77v-14.3h-4.77v-4.77h-9.53v-4.77h-4.77v-4.77h4.77v4.77h4.77v-4.77h-4.77v-4.77h-4.77v-4.77h-4.77v-4.77h-4.77v4.77h4.77v14.3h-4.77v9.53h4.77v9.53h4.77v4.77h-4.77v-4.77h-4.77v-4.77h-4.77v4.77h4.77v4.77h4.77v4.77h-4.77v-4.77h-4.77v4.77h4.77v4.77h4.77v9.53h4.77v-4.77h4.77v4.77h4.77v-4.77h-4.77v-4.77h-4.77v-4.77h4.77v4.77h9.53v9.53ZM503.74,604.35h4.77v-9.53h-4.77v9.53ZM727.79,599.58h4.77v-9.53h-4.77v9.53ZM703.96,599.58h4.77v-4.77h-4.77v4.77ZM470.37,599.58h4.77v-4.77h4.77v-4.77h-9.53v9.53ZM456.07,599.58h4.77v-4.77h-4.77v-4.77h-4.77v-4.77h-4.77v-9.53h-4.77v9.53h4.77v4.77h4.77v4.77h4.77v4.77ZM441.77,599.58h9.53v-4.77h-9.53v-9.53h-4.77v-9.53h-4.77v-4.77h-4.77v-4.77h-4.77v4.77h4.77v4.77h4.77v4.77h-4.77v4.77h9.53v9.53h4.77v4.77ZM713.49,594.82h4.77v-4.77h-4.77v4.77ZM732.56,590.05h4.77v-19.07h4.77v-14.3h4.77v-19.07h4.77v-19.07h4.77v-4.77h4.77v-4.77h-4.77v-42.9h4.77v-4.77h-4.77v-4.77h-4.77v-14.3h-4.77v-4.77h4.77v4.77h4.77v14.3h4.77v-9.53h4.77v-9.53h-4.77v-4.77h-4.77v-4.77h4.77v4.77h4.77v4.77h4.77v-4.77h-4.77v-4.77h-4.77v-4.77h-4.77v-52.44h4.77v-4.77h-4.77v-4.77h4.77v-9.53h-4.77v-4.77h-4.77v-4.77h-4.77v4.77h4.77v4.77h4.77v4.77h-9.53v4.77h4.77v9.53h-4.77v-4.77h-4.77v4.77h4.77v4.77h4.77v4.77h-4.77v-4.77h-4.77v4.77h4.77v4.77h4.77v4.77h-4.77v-4.77h-4.77v9.53h-4.77v4.77h4.77v14.3h-4.77v-4.77h-4.77v4.77h4.77v4.77h4.77v9.53h4.77v4.77h-4.77v-4.77h-4.77v4.77h4.77v14.3h4.77v4.77h-4.77v9.53h4.77v4.77h-4.77v9.53h4.77v4.77h-4.77v14.3h4.77v4.77h-4.77v-4.77h-4.77v9.53h4.77v4.77h-4.77v-4.77h-4.77v9.53h4.77v4.77h-9.53v-4.77h-4.77v4.77h4.77v4.77h4.77v4.77h-4.77v4.77h4.77v4.77h-4.77v4.77h4.77v4.77h-4.77v-4.77h-4.77v4.77h4.77v4.77h4.77v4.77h-4.77v9.53h4.77v4.77h-4.77v4.77h4.77v4.77h-4.77v4.77h4.77v4.77ZM494.21,590.05h4.77v-4.77h-4.77v4.77ZM289.23,590.05h4.77v-4.77h-4.77v4.77ZM746.86,585.28h4.77v-4.77h-4.77v4.77ZM689.66,585.28h4.77v-4.77h-4.77v-4.77h-4.77v4.77h4.77v4.77ZM451.31,585.28h9.53v-4.77h-9.53v4.77ZM489.44,580.51h4.77v-4.77h-4.77v4.77ZM408.4,580.51h4.77v-4.77h-4.77v-4.77h-4.77v-4.77h-4.77v4.77h4.77v4.77h4.77v4.77ZM661.06,575.75h9.53v-4.77h-9.53v4.77ZM646.75,575.75h4.77v-4.77h-4.77v4.77ZM599.08,575.75h4.77v-9.53h-4.77v9.53ZM451.31,575.75h9.53v-4.77h-9.53v4.77ZM375.03,575.75h4.77v-4.77h-4.77v-4.77h-4.77v-4.77h-4.77v4.77h4.77v4.77h4.77v4.77ZM637.22,570.98h4.77v-4.77h-4.77v4.77ZM608.62,570.98h4.77v-4.77h-4.77v4.77ZM589.55,570.98h4.77v-4.77h-4.77v4.77ZM565.71,570.98h4.77v-4.77h-4.77v4.77ZM465.61,570.98h4.77v-4.77h-4.77v4.77ZM627.69,566.21h4.77v-4.77h-4.77v4.77ZM551.41,566.21h4.77v-4.77h-4.77v4.77ZM456.07,566.21h4.77v-4.77h-4.77v4.77ZM446.54,566.21h4.77v-4.77h-4.77v4.77ZM637.22,561.45h4.77v-4.77h-4.77v4.77ZM575.25,561.45h9.53v-4.77h-9.53v-4.77h-4.77v4.77h4.77v4.77ZM460.84,561.45h4.77v-4.77h-4.77v4.77ZM394.1,561.45h4.77v-4.77h-4.77v4.77ZM384.57,561.45h4.77v-4.77h-4.77v4.77ZM375.03,561.45h4.77v-4.77h-4.77v-4.77h-4.77v4.77h4.77v4.77ZM470.37,556.68h4.77v-4.77h-4.77v-4.77h-4.77v4.77h4.77v4.77ZM703.96,551.91h9.53v-4.77h-4.77v-4.77h9.53v-4.77h-4.77v-9.53h-9.53v4.77h-4.77v14.3h4.77v4.77ZM522.81,551.91h4.77v-4.77h-4.77v-9.53h-4.77v-4.77h4.77v-19.07h-4.77v-4.77h4.77v-4.77h-9.53v9.53h4.77v14.3h-4.77v14.3h4.77v4.77h4.77v4.77ZM489.44,551.91h4.77v-4.77h-4.77v4.77ZM456.07,551.91h4.77v-4.77h-4.77v4.77ZM327.36,551.91h4.77v-4.77h4.77v-19.07h-9.53v4.77h-4.77v9.53h4.77v9.53ZM546.65,547.14h4.77v-4.77h-4.77v4.77ZM313.06,547.14h4.77v-4.77h-4.77v4.77ZM565.71,542.38h4.77v-4.77h-4.77v4.77ZM465.61,542.38h4.77v-4.77h-4.77v4.77ZM546.65,537.61h4.77v-4.77h-4.77v4.77ZM489.44,532.84h4.77v-4.77h-4.77v4.77ZM541.88,528.08h4.77v-4.77h-4.77v4.77ZM646.75,523.31h4.77v-4.77h-4.77v-9.53h4.77v4.77h9.53v-4.77h-4.77v-4.77h4.77v4.77h4.77v-4.77h-4.77v-4.77h-4.77v-4.77h4.77v4.77h4.77v4.77h4.77v-4.77h-4.77v-4.77h-4.77v-4.77h-14.3v-4.77h-4.77v-4.77h4.77v4.77h19.07v-4.77h4.77v-4.77h-4.77v-4.77h4.77v4.77h9.53v-4.77h4.77v14.3h4.77v-9.53h4.77v4.77h4.77v4.77h4.77v-9.53h-4.77v-4.77h4.77v4.77h4.77v4.77h4.77v4.77h4.77v-4.77h-4.77v-9.53h-4.77v-4.77h4.77v4.77h4.77v4.77h4.77v-4.77h-4.77v-4.77h4.77v-14.3h-4.77v-4.77h4.77v-4.77h-9.53v-4.77h-4.77v-4.77h4.77v-4.77h-4.77v-4.77h-4.77v-4.77h-4.77v-9.53h-9.53v4.77h4.77v4.77h-4.77v-4.77h-9.53v-9.53h4.77v-4.77h-4.77v-4.77h-4.77v-4.77h4.77v4.77h4.77v-4.77h-4.77v-4.77h-9.53v-4.77h-4.77v-4.77h9.53v4.77h4.77v4.77h4.77v-4.77h-4.77v-4.77h-4.77v-14.3h-4.77v-4.77h4.77v4.77h4.77v14.3h4.77v4.77h4.77v-4.77h-4.77v-9.53h4.77v9.53h4.77v-9.53h-4.77v-4.77h-4.77v-4.77h4.77v4.77h4.77v4.77h4.77v-4.77h-4.77v-4.77h-4.77v-4.77h4.77v4.77h4.77v-4.77h-4.77v-4.77h4.77v4.77h4.77v-9.53h-4.77v-9.53h4.77v4.77h4.77v-4.77h-4.77v-4.77h4.77v4.77h4.77v-4.77h-4.77v-4.77h-4.77v-9.53h4.77v4.77h4.77v-4.77h-4.77v-4.77h-4.77v-4.77h-4.77v-4.77h4.77v4.77h4.77v4.77h4.77v-4.77h-4.77v-4.77h-4.77v-4.77h-4.77v-4.77h4.77v4.77h4.77v4.77h4.77v-4.77h-4.77v-4.77h4.77v4.77h4.77v-4.77h-4.77v-4.77h-4.77v-4.77h-4.77v-4.77h4.77v4.77h4.77v-4.77h-4.77v-4.77h4.77v4.77h4.77v-4.77h-4.77v-4.77h-4.77v-4.77h-4.77v-4.77h4.77v4.77h4.77v-4.77h-4.77v-4.77h-4.77v-4.77h-4.77v-4.77h4.77v4.77h4.77v4.77h4.77v4.77h4.77v-4.77h-4.77v-9.53h-9.53v-4.77h4.77v-14.3h-4.77v-4.77h4.77v4.77h4.77v-4.77h-4.77v-4.77h-4.77v-14.3h-4.77v-9.53h4.77v-4.77h-9.53v-4.77h-4.77v-14.3h-4.77v-4.77h-4.77v-4.77h-9.53v-4.77h4.77v-9.53h4.77v-9.53h-4.77v-4.77h-4.77v-4.77h-4.77v-4.77h-4.77v-4.77h-4.77v-9.53h-4.77v9.53h4.77v4.77h4.77v4.77h4.77v4.77h4.77v4.77h4.77v4.77h-4.77v-4.77h-4.77v-4.77h-4.77v-4.77h-4.77v-4.77h-4.77v-4.77h-4.77v-14.3h-4.77v-4.77h-4.77v-4.77h-4.77v4.77h4.77v4.77h4.77v4.77h-4.77v-4.77h-4.77v-4.77h-4.77v-9.53h-4.77v9.53h4.77v4.77h4.77v4.77h4.77v4.77h4.77v4.77h-4.77v-4.77h-4.77v-4.77h-4.77v-4.77h-4.77v-4.77h-4.77v-9.53h-4.77v9.53h4.77v4.77h4.77v4.77h-4.77v-4.77h-9.53v-4.77h-4.77v-4.77h-4.77v4.77h4.77v4.77h4.77v4.77h-4.77v-4.77h-14.3v19.07h4.77v4.77h-4.77v-4.77h-4.77v-23.84h-4.77v-4.77h-4.77v-9.53h-4.77v-4.77h-4.77v4.77h4.77v9.53h4.77v4.77h4.77v4.77h-4.77v-4.77h-4.77v-4.77h-4.77v-4.77h-4.77v4.77h4.77v4.77h4.77v4.77h4.77v4.77h4.77v4.77h-4.77v-4.77h-4.77v-4.77h-4.77v-4.77h-4.77v-4.77h-4.77v4.77h4.77v4.77h4.77v4.77h-4.77v-4.77h-4.77v4.77h4.77v4.77h4.77v4.77h-4.77v-4.77h-4.77v-4.77h-4.77v4.77h4.77v4.77h4.77v9.53h4.77v4.77h-4.77v-4.77h-4.77v-9.53h-4.77v9.53h4.77v4.77h4.77v4.77h4.77v4.77h9.53v4.77h4.77v4.77h4.77v4.77h4.77v4.77h-4.77v-4.77h-4.77v-4.77h-4.77v-4.77h-4.77v4.77h4.77v4.77h4.77v4.77h4.77v9.53h4.77v19.07h4.77v4.77h4.77v9.53h-9.53v4.77h9.53v9.53h4.77v-23.84h-4.77v-4.77h-4.77v-9.53h4.77v9.53h4.77v-9.53h-4.77v-4.77h-4.77v-4.77h-4.77v-4.77h4.77v4.77h4.77v4.77h4.77v4.77h4.77v4.77h4.77v4.77h4.77v4.77h4.77v4.77h-4.77v-4.77h-4.77v-4.77h-4.77v4.77h4.77v4.77h4.77v14.3h4.77v4.77h-4.77v-4.77h-4.77v-4.77h-4.77v4.77h4.77v4.77h4.77v19.07h4.77v4.77h-4.77v-4.77h-9.53v4.77h9.53v19.07h-9.53v14.3h4.77v4.77h4.77v4.77h-4.77v-4.77h-4.77v4.77h-4.77v-9.53h-4.77v9.53h4.77v4.77h4.77v9.53h4.77v4.77h4.77v4.77h4.77v4.77h-4.77v-4.77h-4.77v-4.77h-4.77v-4.77h-9.53v4.77h9.53v19.07h4.77v4.77h4.77v14.3h4.77v4.77h9.53v4.77h14.3v4.77h-9.53v4.77h14.3v9.53h4.77v4.77h4.77v9.53h4.77v4.77h-4.77v-4.77h-4.77v-9.53h-4.77v-4.77h-4.77v-4.77h-9.53v-4.77h-4.77v4.77h4.77v4.77h9.53v4.77h4.77v23.84h-4.77v-14.3h-4.77v19.07h-4.77v4.77h4.77v9.53h-4.77v-4.77h-4.77v-19.07h-4.77v-4.77h-4.77v4.77h4.77v4.77h-14.3v-4.77h-4.77v4.77h4.77v9.53h-4.77v-4.77h-4.77v-14.3h-4.77v-4.77h-4.77v4.77h4.77v9.53h-4.77v-4.77h-4.77v4.77h4.77v4.77h-4.77v-4.77h-4.77v4.77h-4.77v-9.53h-9.53v4.77h4.77v4.77h-4.77v-4.77h-4.77v-4.77h-9.53v4.77h9.53v9.53h-4.77v-4.77h-4.77v-4.77h-4.77v4.77h4.77v4.77h-4.77v-4.77h-4.77v-9.53h-4.77v9.53h4.77v4.77h-4.77v19.07h4.77v4.77h-4.77v19.07h-4.77v-23.84h-4.77v-4.77h-4.77v-4.77h-4.77v4.77h4.77v4.77h-4.77v-4.77h-4.77v-19.07h-4.77v-4.77h-9.53v4.77h9.53v9.53h-4.77v-4.77h-4.77v4.77h4.77v4.77h4.77v4.77h4.77v4.77h4.77v4.77h-4.77v-4.77h-4.77v-4.77h-4.77v-4.77h-9.53v-9.53h-4.77v-4.77h-4.77v-4.77h-9.53v-4.77h4.77v-4.77h-9.53v9.53h4.77v4.77h9.53v9.53h-4.77v85.81h9.53v4.77h4.77v-23.84h4.77v-4.77h-4.77v-4.77h4.77v-9.53h-4.77v-4.77h4.77v-9.53h-4.77v-4.77h9.53v28.6h4.77v-19.07h9.53v4.77h4.77v4.77h-4.77v-4.77h-4.77v4.77h4.77v9.53h4.77v4.77h4.77v4.77h4.77v9.53h4.77v4.77h4.77v4.77h-4.77v-4.77h-4.77v-4.77h-4.77v4.77h4.77v9.53h14.3v4.77h4.77v-4.77h-4.77v-9.53h-4.77v-4.77h4.77v4.77h4.77v-4.77h9.53v-9.53h4.77v9.53h4.77v-4.77h4.77v4.77h4.77v-4.77h4.77v4.77h9.53v-4.77h4.77v4.77h9.53v-4.77h4.77v4.77h23.84v4.77h4.77v4.77h4.77v4.77h-4.77v-4.77h-9.53v-4.77h-9.53v9.53h-4.77v-4.77h-4.77v-4.77h-4.77v4.77h-4.77v-4.77h-4.77v4.77h4.77v4.77h4.77v4.77h4.77v9.53h9.53v4.77h4.77v-9.53h4.77v4.77h4.77v4.77h4.77v4.77ZM508.51,523.31h4.77v-4.77h-4.77v4.77ZM470.37,523.31h4.77v-4.77h-4.77v4.77ZM537.11,518.54h4.77v-4.77h-4.77v4.77ZM494.21,518.54h4.77v-4.77h-4.77v-4.77h-4.77v4.77h4.77v4.77ZM403.63,518.54h4.77v-4.77h-4.77v-4.77h19.07v-4.77h4.77v-9.53h-4.77v-4.77h-4.77v4.77h-4.77v-4.77h-4.77v4.77h-4.77v-4.77h-4.77v4.77h-4.77v-4.77h-9.53v4.77h4.77v4.77h-9.53v-4.77h-4.77v-4.77h-4.77v-4.77h-4.77v4.77h4.77v4.77h4.77v4.77h-4.77v-4.77h-4.77v14.3h9.53v4.77h4.77v-4.77h4.77v4.77h4.77v4.77h9.53v-4.77h-4.77v-4.77h4.77v4.77h4.77v4.77ZM785,513.78h4.77v-4.77h-4.77v4.77ZM470.37,513.78h4.77v-4.77h-4.77v4.77ZM608.62,509.01h4.77v-4.77h-4.77v4.77ZM537.11,509.01h4.77v-4.77h-4.77v4.77ZM494.21,509.01h4.77v-4.77h-4.77v4.77ZM470.37,504.24h4.77v-14.3h-4.77v14.3ZM355.96,504.24h4.77v-14.3h-9.53v-4.77h4.77v-4.77h-9.53v-9.53h-4.77v-4.77h4.77v4.77h9.53v4.77h9.53v4.77h14.3v4.77h57.2v-4.77h4.77v4.77h33.37v4.77h4.77v-4.77h-4.77v-4.77h4.77v-9.53h-4.77v-4.77h4.77v-14.3h-4.77v-4.77h4.77v-14.3h-4.77v-4.77h4.77v-9.53h-4.77v-4.77h4.77v-14.3h-4.77v-4.77h-4.77v-9.53h-4.77v4.77h-9.53v4.77h14.3v4.77h4.77v9.53h-4.77v4.77h-19.07v-4.77h4.77v-4.77h-4.77v-4.77h-4.77v-9.53h-4.77v-4.77h-4.77v4.77h4.77v4.77h-4.77v-4.77h-4.77v-9.53h-4.77v-4.77h-4.77v4.77h4.77v9.53h4.77v4.77h-4.77v-4.77h-9.53v19.07h-4.77v-19.07h-4.77v4.77h-4.77v4.77h-4.77v19.07h-4.77v-23.84h-4.77v4.77h-4.77v-19.07h-9.53v-4.77h9.53v-9.53h-4.77v-4.77h-4.77v-4.77h4.77v4.77h4.77v4.77h4.77v-4.77h-4.77v-9.53h4.77v-4.77h-4.77v-4.77h-4.77v-4.77h4.77v4.77h4.77v-19.07h-4.77v-4.77h4.77v-23.84h4.77v-4.77h-4.77v-4.77h9.53v9.53h4.77v4.77h-4.77v4.77h4.77v4.77h9.53v4.77h-9.53v19.07h4.77v4.77h4.77v4.77h4.77v4.77h4.77v-4.77h-4.77v-4.77h4.77v4.77h4.77v4.77h9.53v-4.77h-9.53v-4.77h-4.77v-14.3h-4.77v-4.77h9.53v9.53h9.53v-4.77h-4.77v-4.77h-4.77v-14.3h-9.53v-4.77h9.53v4.77h4.77v14.3h4.77v-14.3h-4.77v-4.77h-4.77v-4.77h-4.77v-4.77h4.77v4.77h4.77v4.77h4.77v-4.77h-4.77v-4.77h-4.77v-4.77h-4.77v-4.77h4.77v4.77h4.77v4.77h4.77v4.77h4.77v4.77h4.77v-4.77h-4.77v-4.77h-4.77v-4.77h-4.77v-4.77h-4.77v-4.77h-4.77v-4.77h-4.77v-4.77h4.77v4.77h4.77v4.77h4.77v4.77h4.77v-4.77h-4.77v-4.77h-4.77v-9.53h-4.77v-4.77h4.77v4.77h4.77v9.53h4.77v4.77h4.77v-4.77h-4.77v-9.53h-4.77v-4.77h-4.77v-4.77h-4.77v-4.77h-4.77v-4.77h-4.77v-4.77h4.77v4.77h4.77v4.77h4.77v4.77h4.77v4.77h4.77v-4.77h-4.77v-4.77h-4.77v-14.3h4.77v4.77h4.77v-4.77h-4.77v-4.77h-9.53v-4.77h-4.77v-33.37h-4.77v-14.3h-4.77v14.3h4.77v4.77h-4.77v4.77h4.77v4.77h-9.53v4.77h4.77v4.77h4.77v4.77h-4.77v-4.77h-4.77v-4.77h-4.77v-9.53h4.77v-4.77h-4.77v-19.07h4.77v-4.77h-4.77v-4.77h-4.77v19.07h-4.77v4.77h4.77v9.53h-4.77v-4.77h-4.77v-9.53h-4.77v-4.77h9.53v-4.77h-4.77v-14.3h-4.77v-4.77h-4.77v-9.53h-9.53v-4.77h-4.77v4.77h4.77v4.77h4.77v4.77h4.77v4.77h4.77v4.77h-4.77v-4.77h-4.77v-4.77h-4.77v4.77h4.77v4.77h4.77v4.77h4.77v4.77h-4.77v-4.77h-4.77v-4.77h-4.77v-4.77h-4.77v-4.77h-4.77v-4.77h-4.77v-4.77h-4.77v4.77h4.77v4.77h4.77v4.77h4.77v4.77h4.77v4.77h-4.77v-4.77h-4.77v-4.77h-4.77v-4.77h-4.77v4.77h4.77v4.77h4.77v4.77h4.77v4.77h4.77v4.77h4.77v4.77h4.77v4.77h4.77v4.77h-4.77v-4.77h-4.77v-4.77h-4.77v-4.77h-4.77v-4.77h-4.77v-4.77h-4.77v-4.77h-4.77v-4.77h-4.77v4.77h4.77v9.53h4.77v4.77h-4.77v-4.77h-4.77v-9.53h-4.77v9.53h4.77v4.77h4.77v4.77h4.77v4.77h4.77v4.77h4.77v9.53h4.77v-4.77h4.77v4.77h4.77v4.77h4.77v4.77h-4.77v-4.77h-4.77v4.77h4.77v4.77h4.77v4.77h-4.77v-4.77h-4.77v4.77h4.77v9.53h4.77v4.77h-4.77v-4.77h-4.77v4.77h4.77v19.07h-4.77v-9.53h-4.77v-4.77h-4.77v-4.77h-9.53v9.53h4.77v4.77h-4.77v-4.77h-4.77v-4.77h-4.77v-4.77h-4.77v-9.53h-4.77v-4.77h-4.77v-9.53h-9.53v4.77h4.77v4.77h4.77v4.77h-4.77v-4.77h-4.77v4.77h4.77v4.77h9.53v4.77h-4.77v4.77h-9.53v-4.77h-4.77v4.77h4.77v4.77h9.53v4.77h4.77v4.77h-4.77v-4.77h-9.53v9.53h4.77v4.77h4.77v4.77h-4.77v-4.77h-4.77v-4.77h-4.77v4.77h4.77v4.77h4.77v4.77h4.77v4.77h-4.77v-4.77h-4.77v-4.77h-4.77v4.77h4.77v4.77h4.77v4.77h4.77v33.37h4.77v4.77h4.77v4.77h-4.77v-4.77h-4.77v-4.77h-4.77v4.77h4.77v4.77h4.77v4.77h4.77v4.77h4.77v-14.3h-4.77v-4.77h-4.77v-4.77h4.77v4.77h4.77v4.77h9.53v4.77h-4.77v23.84h4.77v4.77h9.53v-4.77h4.77v-4.77h-9.53v-9.53h-4.77v-4.77h4.77v4.77h4.77v4.77h4.77v4.77h4.77v9.53h-4.77v4.77h4.77v28.6h-4.77v-4.77h-9.53v-14.3h-9.53v4.77h4.77v14.3h-9.53v4.77h4.77v4.77h-4.77v-4.77h-4.77v4.77h4.77v4.77h4.77v4.77h-4.77v-4.77h-4.77v4.77h4.77v19.07h-4.77v-9.53h-4.77v-4.77h-4.77v4.77h4.77v14.3h-9.53v4.77h4.77v9.53h4.77v19.07h4.77v4.77h-4.77v-4.77h-4.77v-4.77h-4.77v-4.77h-4.77v4.77h4.77v4.77h4.77v4.77h4.77v4.77h9.53v4.77h4.77v9.53h4.77v4.77h4.77v9.53ZM684.89,499.47h4.77v-4.77h-4.77v4.77ZM675.36,499.47h4.77v-9.53h-4.77v-4.77h-4.77v4.77h4.77v9.53ZM599.08,499.47h4.77v-4.77h-4.77v-4.77h-4.77v4.77h4.77v4.77ZM432.24,499.47h4.77v-9.53h-9.53v4.77h4.77v4.77ZM770.7,494.71h4.77v-4.77h-4.77v4.77ZM665.82,494.71h4.77v-4.77h-4.77v4.77ZM560.95,494.71h4.77v-4.77h-4.77v4.77ZM341.66,494.71h4.77v-4.77h-4.77v4.77ZM270.16,494.71h4.77v-4.77h-4.77v4.77ZM775.47,489.94h4.77v-4.77h-4.77v4.77ZM761.16,489.94h4.77v-4.77h-4.77v4.77ZM708.73,489.94h4.77v-4.77h-4.77v4.77ZM680.12,489.94h4.77v-4.77h-4.77v-4.77h-4.77v4.77h4.77v4.77ZM375.03,489.94h4.77v-4.77h-4.77v4.77ZM255.86,489.94h4.77v-4.77h-4.77v4.77ZM765.93,485.17h4.77v-4.77h-4.77v4.77ZM336.9,485.17h4.77v-4.77h-4.77v4.77ZM265.39,485.17h4.77v-4.77h-4.77v4.77ZM241.55,485.17h4.77v-4.77h-4.77v4.77ZM770.7,480.41h4.77v-4.77h-4.77v4.77ZM327.36,480.41h4.77v-4.77h-4.77v-4.77h-4.77v-4.77h-4.77v4.77h4.77v4.77h4.77v4.77ZM794.53,475.64h4.77v-4.77h-4.77v4.77ZM785,475.64h4.77v-4.77h-4.77v4.77ZM508.51,475.64h4.77v-4.77h-4.77v4.77ZM270.16,475.64h4.77v-4.77h-4.77v4.77ZM260.62,475.64h4.77v-4.77h-4.77v4.77ZM251.09,475.64h4.77v-4.77h-4.77v4.77ZM794.53,466.1h4.77v-4.77h-4.77v-4.77h-4.77v4.77h4.77v4.77ZM785,466.1h4.77v-4.77h-4.77v4.77ZM770.7,466.1h9.53v-4.77h-9.53v4.77ZM260.62,466.1h4.77v-4.77h-4.77v4.77ZM265.39,461.34h4.77v-4.77h-4.77v4.77ZM236.79,456.57h4.77v-4.77h-4.77v4.77ZM322.59,451.8h4.77v-4.77h-4.77v4.77ZM241.55,451.8h4.77v-4.77h-4.77v4.77ZM799.3,447.04h4.77v-4.77h-4.77v4.77ZM241.55,442.27h4.77v-4.77h-4.77v-4.77h-4.77v4.77h4.77v4.77ZM265.39,437.5h4.77v-9.53h-4.77v9.53ZM322.59,427.97h4.77v-4.77h-4.77v4.77ZM727.79,423.2h4.77v-4.77h-4.77v-4.77h-4.77v-4.77h-4.77v4.77h4.77v4.77h4.77v4.77ZM708.73,423.2h4.77v-4.77h-4.77v-9.53h-4.77v9.53h4.77v4.77ZM241.55,423.2h4.77v-4.77h-4.77v4.77ZM532.35,418.43h4.77v-4.77h-4.77v-4.77h-4.77v-4.77h-4.77v4.77h4.77v4.77h4.77v4.77ZM723.03,408.9h4.77v-4.77h-4.77v4.77ZM532.35,408.9h4.77v-4.77h-4.77v-4.77h-4.77v-4.77h-4.77v4.77h4.77v4.77h4.77v4.77ZM327.36,408.9h4.77v-4.77h-4.77v4.77ZM465.61,404.13h4.77v-4.77h-4.77v4.77ZM456.07,404.13h4.77v-4.77h-4.77v-4.77h-4.77v4.77h4.77v4.77ZM532.35,399.37h4.77v-4.77h-4.77v4.77ZM494.21,399.37h4.77v-4.77h-4.77v-4.77h-4.77v4.77h4.77v4.77ZM513.28,394.6h4.77v-4.77h-4.77v4.77ZM613.39,389.83h4.77v-4.77h-4.77v-4.77h-4.77v4.77h4.77v4.77ZM580.02,389.83h4.77v-4.77h-4.77v-4.77h-4.77v4.77h4.77v4.77ZM546.65,389.83h4.77v-4.77h-4.77v-4.77h-4.77v4.77h4.77v4.77ZM527.58,389.83h4.77v-4.77h-4.77v4.77ZM503.74,389.83h4.77v-4.77h-4.77v4.77ZM494.21,389.83h4.77v-4.77h-4.77v4.77ZM446.54,389.83h4.77v-4.77h-4.77v-4.77h-4.77v-4.77h-4.77v4.77h4.77v4.77h4.77v4.77ZM627.69,385.06h4.77v-9.53h-4.77v-4.77h-4.77v4.77h4.77v9.53ZM584.78,385.06h4.77v-4.77h-4.77v4.77ZM565.71,385.06h4.77v-4.77h-4.77v4.77ZM556.18,385.06h4.77v-4.77h-4.77v-4.77h-4.77v4.77h4.77v4.77ZM513.28,385.06h4.77v-4.77h-4.77v4.77ZM484.67,385.06h4.77v-4.77h-4.77v-4.77h-9.53v4.77h9.53v4.77ZM456.07,385.06h4.77v-4.77h-4.77v4.77ZM417.94,385.06h4.77v-4.77h-4.77v4.77ZM408.4,385.06h4.77v-9.53h-4.77v9.53ZM341.66,385.06h4.77v-4.77h-4.77v4.77ZM317.83,385.06h4.77v-4.77h-4.77v4.77ZM618.15,380.3h4.77v-4.77h-4.77v4.77ZM465.61,380.3h4.77v-4.77h-4.77v4.77ZM360.73,380.3h4.77v-4.77h-4.77v4.77ZM641.99,375.53h4.77v-4.77h-4.77v4.77ZM608.62,375.53h4.77v-9.53h-4.77v9.53ZM599.08,375.53h4.77v-4.77h-4.77v4.77ZM580.02,375.53h4.77v-4.77h-4.77v4.77ZM570.48,375.53h4.77v-4.77h-4.77v4.77ZM560.95,375.53h4.77v-4.77h-4.77v4.77ZM541.88,375.53h4.77v-4.77h-4.77v4.77ZM503.74,375.53h4.77v-4.77h-4.77v4.77ZM494.21,375.53h4.77v-4.77h-4.77v4.77ZM484.67,375.53h4.77v-4.77h-4.77v4.77ZM456.07,375.53h4.77v-4.77h-4.77v4.77ZM441.77,375.53h4.77v-4.77h-4.77v4.77ZM427.47,375.53h4.77v-4.77h-4.77v4.77ZM413.17,375.53h4.77v-4.77h-4.77v4.77ZM627.69,370.76h4.77v-4.77h-4.77v-4.77h-4.77v4.77h4.77v4.77ZM584.78,370.76h4.77v-4.77h-4.77v4.77ZM546.65,370.76h4.77v-4.77h-4.77v4.77ZM522.81,370.76h4.77v-4.77h-4.77v4.77ZM470.37,370.76h4.77v-4.77h-4.77v4.77ZM460.84,370.76h4.77v-4.77h-4.77v4.77ZM432.24,370.76h4.77v-9.53h-4.77v-4.77h4.77v-4.77h-9.53v9.53h4.77v9.53ZM417.94,370.76h4.77v-4.77h-4.77v-9.53h-4.77v-4.77h-4.77v-4.77h-4.77v4.77h4.77v4.77h4.77v9.53h4.77v4.77ZM403.63,370.76h4.77v-9.53h-4.77v9.53ZM355.96,370.76h4.77v-9.53h-9.53v-4.77h-4.77v9.53h9.53v4.77ZM336.9,370.76h4.77v-4.77h-4.77v4.77ZM613.39,366h4.77v-9.53h-4.77v-4.77h-4.77v4.77h4.77v9.53ZM599.08,366h4.77v-4.77h-4.77v4.77ZM565.71,366h4.77v-4.77h-4.77v4.77ZM556.18,366h4.77v-4.77h-4.77v4.77ZM479.91,366h4.77v-4.77h-4.77v-4.77h-4.77v4.77h4.77v4.77ZM441.77,366h4.77v-4.77h-4.77v4.77ZM422.7,366h4.77v-4.77h-4.77v4.77ZM703.96,361.23h4.77v-4.77h-4.77v4.77ZM494.21,361.23h4.77v-4.77h-4.77v4.77ZM460.84,361.23h4.77v-4.77h-4.77v4.77ZM336.9,361.23h4.77v-4.77h-4.77v-4.77h-4.77v-4.77h-4.77v4.77h4.77v4.77h4.77v4.77ZM618.15,356.46h9.53v-4.77h-9.53v4.77ZM599.08,356.46h4.77v-4.77h-4.77v4.77ZM580.02,356.46h4.77v-4.77h-4.77v4.77ZM556.18,356.46h4.77v-4.77h-4.77v4.77ZM541.88,356.46h4.77v-4.77h-4.77v4.77ZM441.77,356.46h4.77v-4.77h-4.77v4.77ZM417.94,356.46h4.77v-4.77h-4.77v-4.77h-4.77v4.77h4.77v4.77ZM627.69,351.7h4.77v-4.77h-4.77v4.77ZM565.71,351.7h4.77v-4.77h-4.77v4.77ZM479.91,351.7h4.77v-4.77h-4.77v4.77ZM460.84,351.7h4.77v-4.77h-4.77v4.77ZM336.9,351.7h4.77v-9.53h-4.77v-4.77h-4.77v-4.77h-4.77v4.77h4.77v4.77h4.77v9.53ZM756.4,346.93h4.77v-14.3h-4.77v-4.77h-4.77v4.77h4.77v14.3ZM708.73,346.93h4.77v-4.77h-4.77v4.77ZM613.39,346.93h4.77v-9.53h-4.77v-4.77h-4.77v9.53h4.77v4.77ZM599.08,346.93h4.77v-4.77h-4.77v4.77ZM441.77,346.93h4.77v-4.77h-4.77v4.77ZM556.18,342.16h4.77v-4.77h-4.77v4.77ZM479.91,342.16h4.77v-4.77h-4.77v4.77ZM403.63,342.16h4.77v-4.77h-4.77v4.77ZM746.86,337.39h4.77v-4.77h-4.77v4.77ZM599.08,337.39h4.77v-4.77h-4.77v4.77ZM584.78,337.39h4.77v-4.77h-4.77v4.77ZM565.71,337.39h4.77v-4.77h-4.77v4.77ZM460.84,337.39h4.77v-4.77h-4.77v4.77ZM441.77,337.39h4.77v-4.77h-4.77v4.77ZM427.47,337.39h9.53v-4.77h-9.53v4.77ZM479.91,332.63h4.77v-4.77h-4.77v4.77ZM603.85,327.86h9.53v-4.77h-4.77v-4.77h-4.77v-14.3h-4.77v-4.77h-4.77v4.77h4.77v14.3h4.77v9.53ZM441.77,327.86h4.77v-4.77h-4.77v4.77ZM293.99,327.86h4.77v-4.77h-4.77v4.77ZM751.63,323.09h9.53v-4.77h-9.53v4.77ZM594.32,323.09h4.77v-4.77h-4.77v4.77ZM584.78,323.09h4.77v-4.77h-4.77v4.77ZM565.71,323.09h4.77v-4.77h-4.77v4.77ZM465.61,323.09h4.77v-4.77h-4.77v4.77ZM456.07,318.33h4.77v-4.77h-4.77v4.77ZM441.77,318.33h4.77v-4.77h-4.77v4.77ZM279.69,318.33h9.53v-9.53h-4.77v-4.77h-4.77v14.3ZM751.63,313.56h4.77v-9.53h-4.77v9.53ZM584.78,313.56h4.77v-4.77h-4.77v-4.77h-4.77v4.77h4.77v4.77ZM441.77,308.79h4.77v-4.77h-4.77v4.77ZM317.83,308.79h4.77v-4.77h-4.77v-4.77h-4.77v4.77h4.77v4.77ZM756.4,304.02h4.77v-4.77h-4.77v-14.3h-4.77v14.3h4.77v4.77ZM284.46,304.02h4.77v-4.77h-4.77v-4.77h4.77v-4.77h-4.77v-4.77h-4.77v14.3h4.77v4.77ZM742.1,299.26h4.77v-4.77h-4.77v4.77ZM584.78,299.26h4.77v-4.77h-4.77v4.77ZM518.04,299.26h4.77v-4.77h-4.77v4.77ZM456.07,299.26h4.77v-4.77h-4.77v4.77ZM317.83,299.26h4.77v-4.77h-4.77v-4.77h-4.77v4.77h4.77v4.77ZM589.55,294.49h4.77v-4.77h-4.77v4.77ZM599.08,289.72h4.77v-4.77h-4.77v-4.77h-4.77v4.77h4.77v4.77ZM518.04,289.72h4.77v-19.07h4.77v-4.77h-4.77v-4.77h4.77v-9.53h4.77v-4.77h-9.53v-4.77h4.77v-4.77h9.53v-4.77h-9.53v-9.53h-4.77v14.3h-4.77v-14.3h-4.77v14.3h4.77v9.53h4.77v4.77h-4.77v-4.77h-4.77v-9.53h-4.77v-4.77h-4.77v4.77h4.77v14.3h4.77v4.77h4.77v33.37ZM317.83,289.72h4.77v-4.77h-4.77v-4.77h-4.77v4.77h4.77v4.77ZM584.78,284.96h4.77v-4.77h-4.77v4.77ZM451.31,284.96h4.77v-4.77h-4.77v4.77ZM441.77,284.96h4.77v-4.77h-4.77v4.77ZM284.46,284.96h4.77v-4.77h-4.77v4.77ZM751.63,280.19h4.77v-4.77h-4.77v4.77ZM589.55,275.42h4.77v-4.77h-4.77v4.77ZM580.02,275.42h4.77v-4.77h-4.77v4.77ZM284.46,275.42h4.77v-9.53h-4.77v9.53ZM751.63,270.66h4.77v-19.07h-4.77v-4.77h4.77v-4.77h-4.77v-9.53h-4.77v28.6h4.77v9.53ZM718.26,265.89h4.77v-4.77h-4.77v4.77ZM599.08,265.89h4.77v-4.77h-4.77v4.77ZM494.21,265.89h4.77v-4.77h-4.77v4.77ZM508.51,261.12h4.77v-4.77h-4.77v4.77ZM599.08,256.35h4.77v-9.53h-4.77v-4.77h-4.77v4.77h4.77v9.53ZM498.98,256.35h4.77v-4.77h-4.77v-4.77h-4.77v-4.77h-4.77v4.77h4.77v4.77h4.77v4.77ZM441.77,256.35h4.77v-4.77h-4.77v4.77ZM284.46,256.35h4.77v-4.77h-4.77v4.77ZM608.62,251.59h4.77v-9.53h-4.77v9.53ZM289.23,251.59h4.77v-4.77h-4.77v4.77ZM432.24,246.82h4.77v-4.77h-4.77v4.77ZM713.49,242.05h4.77v-4.77h-4.77v4.77ZM599.08,242.05h4.77v-4.77h-4.77v4.77ZM494.21,242.05h9.53v-4.77h-9.53v4.77ZM446.54,237.29h4.77v-4.77h-4.77v4.77ZM360.73,237.29h4.77v-4.77h-4.77v4.77ZM341.66,237.29h4.77v-9.53h-4.77v-4.77h4.77v-9.53h-4.77v-4.77h-4.77v-4.77h4.77v4.77h4.77v4.77h4.77v-9.53h-4.77v-4.77h4.77v4.77h4.77v4.77h4.77v-4.77h-4.77v-9.53h-4.77v-4.77h-4.77v-4.77h-4.77v-4.77h-9.53v14.3h9.53v4.77h-9.53v-4.77h-4.77v4.77h4.77v9.53h4.77v4.77h4.77v4.77h-4.77v-4.77h-4.77v-4.77h-4.77v-9.53h-4.77v9.53h4.77v4.77h4.77v9.53h4.77v4.77h4.77v9.53ZM317.83,237.29h4.77v-4.77h-4.77v4.77ZM289.23,237.29h4.77v-4.77h-4.77v4.77ZM713.49,232.52h4.77v-4.77h-4.77v4.77ZM599.08,232.52h4.77v-14.3h-4.77v-4.77h-4.77v-4.77h-4.77v-4.77h-4.77v4.77h4.77v4.77h4.77v4.77h4.77v14.3ZM537.11,232.52h4.77v-4.77h-4.77v-4.77h-4.77v-4.77h-4.77v-4.77h-4.77v4.77h4.77v4.77h4.77v4.77h4.77v4.77ZM494.21,232.52h4.77v-4.77h-4.77v4.77ZM351.2,232.52h4.77v-4.77h-4.77v4.77ZM293.99,232.52h4.77v-4.77h-4.77v4.77ZM608.62,227.75h4.77v-4.77h-4.77v4.77ZM742.1,222.98h4.77v-4.77h-4.77v4.77ZM494.21,222.98h4.77v-4.77h-4.77v4.77ZM441.77,222.98h4.77v-4.77h-4.77v4.77ZM422.7,222.98h9.53v-14.3h-4.77v-9.53h-4.77v14.3h4.77v4.77h-4.77v4.77ZM608.62,218.22h4.77v-4.77h-4.77v4.77ZM513.28,218.22h4.77v-4.77h-4.77v4.77ZM298.76,218.22h4.77v-4.77h-4.77v4.77ZM708.73,213.45h4.77v-9.53h-4.77v9.53ZM441.77,213.45h4.77v-4.77h-4.77v-4.77h-4.77v4.77h4.77v4.77ZM518.04,203.92h4.77v-9.53h-4.77v9.53ZM451.31,203.92h4.77v-4.77h-4.77v4.77ZM703.96,199.15h4.77v-4.77h-4.77v4.77ZM608.62,199.15h4.77v-4.77h-4.77v4.77ZM437,199.15h4.77v-9.53h-4.77v9.53ZM427.47,199.15h4.77v-4.77h-4.77v-4.77h-4.77v4.77h4.77v4.77ZM303.53,199.15h4.77v-4.77h-4.77v4.77ZM589.55,194.38h4.77v-4.77h-4.77v-4.77h-4.77v4.77h4.77v4.77ZM518.04,189.62h4.77v-4.77h-4.77v4.77ZM437,184.85h4.77v-4.77h-4.77v4.77ZM417.94,184.85h4.77v-9.53h-4.77v-9.53h-9.53v4.77h4.77v4.77h4.77v9.53ZM694.43,180.08h4.77v-9.53h-4.77v9.53ZM575.25,180.08h4.77v-4.77h-4.77v4.77ZM580.02,170.55h4.77v-4.77h-4.77v4.77ZM560.95,170.55h4.77v-4.77h-4.77v4.77ZM689.66,165.78h4.77v-4.77h-4.77v-14.3h-9.53v4.77h4.77v9.53h4.77v4.77ZM570.48,165.78h4.77v-4.77h-4.77v4.77ZM398.87,165.78h4.77v-4.77h-4.77v-4.77h4.77v-4.77h-4.77v-9.53h-4.77v19.07h4.77v4.77ZM575.25,161.01h4.77v-4.77h-4.77v-4.77h-4.77v-4.77h-4.77v4.77h4.77v4.77h4.77v4.77ZM556.18,161.01h4.77v-4.77h-4.77v4.77ZM413.17,161.01h4.77v-4.77h-4.77v-4.77h-4.77v4.77h4.77v4.77ZM384.57,161.01h4.77v-4.77h-4.77v-19.07h-4.77v-9.53h-14.3v4.77h9.53v4.77h4.77v4.77h-4.77v-4.77h-4.77v4.77h4.77v4.77h4.77v9.53h4.77v4.77ZM541.88,156.25h4.77v-4.77h-4.77v-4.77h-4.77v4.77h4.77v4.77ZM465.61,156.25h4.77v-4.77h-4.77v4.77ZM556.18,151.48h4.77v-4.77h-4.77v-4.77h-4.77v4.77h4.77v4.77ZM527.58,151.48h4.77v-4.77h-4.77v4.77ZM456.07,151.48h4.77v-4.77h-4.77v4.77ZM355.96,151.48h4.77v-4.77h-4.77v4.77ZM541.88,146.71h4.77v-14.3h-4.77v-4.77h-4.77v4.77h4.77v14.3ZM470.37,146.71h4.77v-4.77h-4.77v4.77ZM413.17,146.71h4.77v-4.77h-4.77v4.77ZM403.63,146.71h4.77v-4.77h-4.77v-4.77h-4.77v-4.77h-4.77v4.77h4.77v4.77h4.77v4.77ZM556.18,141.94h9.53v-4.77h-9.53v-9.53h-4.77v9.53h4.77v4.77ZM460.84,141.94h4.77v-4.77h-4.77v4.77ZM417.94,141.94h4.77v-4.77h-4.77v-4.77h-4.77v-4.77h-4.77v-4.77h-4.77v4.77h4.77v4.77h4.77v4.77h4.77v4.77ZM527.58,137.18h4.77v-4.77h-4.77v4.77ZM470.37,137.18h4.77v-4.77h-4.77v4.77ZM403.63,137.18h4.77v-4.77h-4.77v-4.77h-4.77v-4.77h-4.77v4.77h4.77v4.77h4.77v4.77ZM384.57,137.18h4.77v-19.07h-4.77v4.77h-4.77v4.77h4.77v9.53ZM355.96,137.18h4.77v-4.77h-4.77v4.77ZM460.84,132.41h4.77v-4.77h-4.77v4.77ZM541.88,127.64h4.77v-19.07h-4.77v19.07ZM470.37,127.64h4.77v-4.77h-4.77v4.77ZM413.17,127.64h4.77v-4.77h-4.77v-4.77h-4.77v-4.77h-4.77v4.77h4.77v4.77h4.77v4.77ZM475.14,122.88h4.77v-4.77h-4.77v4.77ZM456.07,122.88h4.77v-4.77h-4.77v4.77ZM417.94,122.88h4.77v-4.77h-4.77v-4.77h-4.77v-9.53h-4.77v9.53h4.77v4.77h4.77v4.77ZM370.27,122.88h4.77v-4.77h-4.77v4.77ZM665.82,118.11h4.77v-4.77h-4.77v4.77ZM465.61,118.11h4.77v-4.77h-4.77v4.77ZM394.1,118.11h4.77v-4.77h-4.77v-4.77h-9.53v4.77h9.53v4.77ZM375.03,118.11h4.77v-4.77h-4.77v4.77ZM417.94,113.34h4.77v-4.77h-4.77v4.77ZM513.28,108.57h9.53v-4.77h-9.53v4.77ZM470.37,108.57h4.77v-4.77h-4.77v4.77ZM451.31,108.57h4.77v-4.77h-4.77v4.77ZM398.87,108.57h4.77v-4.77h-4.77v-4.77h-4.77v4.77h4.77v4.77ZM541.88,103.81h4.77v-4.77h-4.77v4.77ZM413.17,103.81h4.77v-9.53h-4.77v9.53ZM456.07,99.04h4.77v-4.77h-4.77v4.77ZM403.63,99.04h4.77v-4.77h-4.77v4.77ZM589.55,94.27h4.77v-9.53h-4.77v9.53ZM541.88,94.27h4.77v-4.77h-4.77v4.77ZM432.24,94.27h4.77v-4.77h-4.77v-4.77h-4.77v4.77h4.77v4.77ZM603.85,89.51h4.77v-4.77h-4.77v4.77ZM594.32,84.74h4.77v-4.77h-4.77v4.77ZM541.88,84.74h4.77v-4.77h-4.77v4.77ZM479.91,84.74h4.77v-4.77h-4.77v4.77ZM556.18,79.97h4.77v-4.77h-4.77v4.77ZM870.81,985.71h-4.77v-4.77h4.77v4.77ZM837.44,985.71h-4.77v-4.77h4.77v4.77ZM813.6,985.71h-4.77v-4.77h4.77v4.77ZM708.73,985.71h-4.77v-4.77h4.77v4.77ZM680.12,985.71h-4.77v-9.53h-4.77v-4.77h-4.77v-4.77h4.77v4.77h4.77v4.77h4.77v9.53ZM599.08,985.71h-4.77v-4.77h4.77v4.77ZM508.51,985.71h-4.77v-4.77h4.77v4.77ZM403.63,985.71h-4.77v-4.77h4.77v4.77ZM313.06,985.71h-4.77v-4.77h4.77v4.77ZM174.82,985.71h-9.53v-4.77h9.53v4.77ZM842.2,980.95h-4.77v-4.77h-4.77v-4.77h4.77v4.77h4.77v4.77ZM785,980.95h-4.77v-4.77h4.77v4.77ZM699.19,980.95h-4.77v-4.77h4.77v4.77ZM689.66,980.95h-4.77v-4.77h4.77v4.77ZM665.82,980.95h-4.77v-4.77h4.77v4.77ZM613.39,980.95h-4.77v-4.77h4.77v4.77ZM441.77,980.95h-4.77v-4.77h4.77v4.77ZM427.47,980.95h-4.77v-4.77h4.77v4.77ZM212.95,980.95h-4.77v-4.77h4.77v4.77ZM804.07,976.18h-4.77v-4.77h4.77v4.77ZM794.53,976.18h-4.77v-4.77h4.77v4.77ZM732.56,976.18h-4.77v-4.77h4.77v4.77ZM708.73,976.18h-9.53v-14.3h4.77v9.53h4.77v4.77ZM599.08,976.18h-4.77v-4.77h4.77v4.77ZM527.58,976.18h-4.77v-4.77h4.77v4.77ZM508.51,976.18h-4.77v-4.77h4.77v4.77ZM403.63,976.18h-4.77v-4.77h-4.77v-4.77h4.77v-4.77h4.77v14.3ZM375.03,976.18h-4.77v-4.77h4.77v4.77ZM336.9,976.18h-4.77v-4.77h4.77v4.77ZM313.06,976.18h-4.77v-4.77h-4.77v-4.77h4.77v4.77h4.77v4.77ZM246.32,976.18h-4.77v-4.77h4.77v4.77ZM785,971.41h-4.77v-4.77h4.77v4.77ZM775.47,971.41h-4.77v-4.77h4.77v4.77ZM765.93,971.41h-4.77v-4.77h4.77v4.77ZM694.43,971.41h-4.77v-4.77h-4.77v-4.77h4.77v4.77h4.77v4.77ZM427.47,971.41h-4.77v-4.77h4.77v4.77ZM255.86,971.41h-4.77v-4.77h4.77v4.77ZM222.49,971.41h-4.77v-4.77h4.77v4.77ZM212.95,971.41h-4.77v-4.77h4.77v4.77ZM751.63,966.65h-4.77v-4.77h4.77v4.77ZM599.08,966.65h-4.77v-4.77h4.77v4.77ZM313.06,966.65h-4.77v-14.3h-4.77v-4.77h4.77v4.77h4.77v14.3ZM260.62,966.65h-4.77v-4.77h4.77v4.77ZM241.55,966.65h-4.77v-4.77h4.77v4.77ZM232.02,966.65h-4.77v-4.77h4.77v4.77ZM780.23,961.88h-4.77v-4.77h4.77v4.77ZM727.79,961.88h-4.77v-4.77h4.77v4.77ZM694.43,961.88h-4.77v-9.53h-4.77v-4.77h4.77v4.77h4.77v9.53ZM661.06,961.88h-4.77v-4.77h4.77v4.77ZM527.58,961.88h-4.77v-4.77h4.77v4.77ZM336.9,961.88h-4.77v-4.77h-4.77v-4.77h4.77v4.77h4.77v4.77ZM246.32,961.88h-4.77v-9.53h4.77v9.53ZM770.7,957.11h-4.77v-4.77h4.77v4.77ZM761.16,957.11h-4.77v-4.77h4.77v4.77ZM427.47,957.11h-4.77v-4.77h4.77v4.77ZM403.63,957.11h-4.77v-9.53h-4.77v-4.77h9.53v14.3ZM322.59,957.11h-4.77v-9.53h4.77v9.53ZM255.86,957.11h-4.77v-9.53h4.77v9.53ZM723.03,952.34h-4.77v-4.77h4.77v4.77ZM661.06,952.34h-4.77v-4.77h4.77v4.77ZM293.99,952.34h-4.77v-4.77h4.77v4.77ZM765.93,947.58h-4.77v-4.77h4.77v4.77ZM756.4,947.58h-4.77v-4.77h4.77v4.77ZM742.1,947.58h-4.77v-4.77h4.77v4.77ZM727.79,947.58h-4.77v-4.77h-4.77v-9.53h-4.77v-4.77h4.77v4.77h4.77v9.53h4.77v4.77ZM641.99,947.58h-4.77v-4.77h4.77v4.77ZM527.58,947.58h-4.77v-4.77h4.77v4.77ZM427.47,947.58h-4.77v-4.77h4.77v4.77ZM346.43,947.58h-4.77v-4.77h4.77v4.77ZM298.76,947.58h-4.77v-4.77h4.77v4.77ZM732.56,942.81h-4.77v-4.77h4.77v4.77ZM694.43,942.81h-9.53v-4.77h9.53v4.77ZM661.06,942.81h-9.53v-4.77h9.53v4.77ZM670.59,938.04h-4.77v-9.53h4.77v9.53ZM532.35,938.04h-4.77v-4.77h-4.77v-4.77h4.77v4.77h4.77v4.77ZM403.63,938.04h-9.53v-4.77h9.53v4.77ZM661.06,933.28h-4.77v-4.77h4.77v4.77ZM403.63,928.51h-9.53v-4.77h9.53v4.77ZM661.06,923.74h-4.77v-9.53h4.77v9.53ZM646.75,923.74h-4.77v-4.77h4.77v4.77ZM527.58,923.74h-4.77v-9.53h4.77v9.53ZM651.52,914.21h-4.77v-4.77h4.77v4.77ZM527.58,909.44h-4.77v-9.53h4.77v9.53ZM651.52,904.67h-4.77v-4.77h4.77v4.77ZM527.58,895.14h-4.77v-4.77h4.77v4.77ZM456.07,890.37h-4.77v-4.77h4.77v4.77ZM641.99,880.84h-4.77v-4.77h4.77v4.77ZM456.07,880.84h-4.77v-4.77h-4.77v-4.77h4.77v4.77h4.77v4.77ZM465.61,876.07h-4.77v-4.77h4.77v4.77ZM641.99,871.3h-4.77v-4.77h4.77v4.77ZM608.62,866.54h-4.77v-4.77h4.77v4.77ZM451.31,866.54h-4.77v-9.53h4.77v9.53ZM641.99,861.77h-4.77v-4.77h4.77v4.77ZM608.62,857h-4.77v-4.77h4.77v4.77ZM637.22,852.24h-4.77v-42.9h4.77v42.9ZM608.62,847.47h-4.77v-4.77h4.77v4.77ZM608.62,837.94h-4.77v-4.77h4.77v4.77ZM575.25,837.94h-9.53v-4.77h9.53v4.77ZM584.78,833.17h-9.53v-4.77h9.53v4.77ZM498.98,833.17h-4.77v-14.3h-4.77v-4.77h-4.77v-9.53h-4.77v9.53h4.77v4.77h-4.77v-4.77h-4.77v-9.53h-4.77v-9.53h4.77v-9.53h-4.77v-4.77h-4.77v-4.77h4.77v4.77h9.53v9.53h4.77v-14.3h4.77v9.53h4.77v-9.53h4.77v4.77h23.84v-4.77h4.77v4.77h14.3v-4.77h4.77v4.77h9.53v4.77h9.53v9.53h4.77v4.77h4.77v4.77h-4.77v-4.77h-4.77v-4.77h-4.77v4.77h4.77v4.77h4.77v4.77h-4.77v-4.77h-4.77v-4.77h-4.77v4.77h4.77v4.77h-4.77v9.53h-4.77v-4.77h-4.77v-4.77h-4.77v9.53h-4.77v-9.53h-4.77v9.53h-4.77v-4.77h-9.53v4.77h4.77v4.77h-4.77v-4.77h-4.77v-4.77h-14.3v4.77h4.77v4.77h-4.77v9.53ZM489.44,814.1h4.77v-4.77h-4.77v4.77ZM546.65,809.33h4.77v-4.77h-4.77v4.77ZM608.62,828.4h-4.77v-4.77h4.77v4.77ZM589.55,828.4h-4.77v-14.3h4.77v4.77h4.77v4.77h-4.77v4.77ZM556.18,828.4h-4.77v-4.77h-4.77v-4.77h4.77v4.77h4.77v4.77ZM489.44,828.4h-4.77v-4.77h4.77v4.77ZM479.91,828.4h-4.77v-4.77h4.77v4.77ZM432.24,828.4h-4.77v-4.77h4.77v4.77ZM470.37,823.63h-4.77v-4.77h-4.77v-33.37h-4.77v-4.77h4.77v4.77h9.53v4.77h-4.77v14.3h4.77v9.53h4.77v4.77h-4.77v-4.77h-4.77v4.77h4.77v4.77ZM575.25,818.87h-4.77v-4.77h4.77v4.77ZM565.71,818.87h-4.77v-4.77h4.77v4.77ZM594.32,804.57h-4.77v-4.77h-4.77v-4.77h4.77v4.77h4.77v4.77ZM575.25,795.03h-4.77v-9.53h-4.77v-4.77h-4.77v-4.77h4.77v4.77h9.53v14.3ZM584.78,790.26h-4.77v-4.77h4.77v4.77ZM594.32,785.5h-4.77v-4.77h-4.77v-4.77h4.77v4.77h4.77v4.77ZM603.85,780.73h-4.77v-4.77h4.77v4.77ZM580.02,775.96h-4.77v-4.77h4.77v4.77ZM460.84,775.96h-4.77v-4.77h4.77v4.77ZM437,775.96h-4.77v-4.77h4.77v4.77ZM608.62,771.2h-4.77v-4.77h4.77v4.77ZM427.47,771.2h-4.77v-4.77h4.77v4.77ZM580.02,756.9h-4.77v-19.07h-4.77v-14.3h-4.77v-4.77h4.77v4.77h9.53v4.77h9.53v4.77h-4.77v4.77h-4.77v4.77h4.77v4.77h-4.77v9.53ZM422.7,756.9h-4.77v-4.77h4.77v4.77ZM503.74,752.13h-4.77v-4.77h-4.77v-4.77h-4.77v-4.77h4.77v4.77h4.77v4.77h4.77v4.77ZM437,752.13h-4.77v-4.77h4.77v4.77ZM541.88,747.36h-9.53v-4.77h-4.77v-4.77h-4.77v4.77h-4.77v-4.77h-4.77v4.77h-4.77v-4.77h-14.3v-9.53h-4.77v-4.77h-4.77v-4.77h23.84v4.77h14.3v4.77h4.77v-4.77h-4.77v-4.77h38.14v4.77h4.77v14.3h-4.77v-14.3h-4.77v9.53h-14.3v4.77h-9.53v-4.77h-4.77v4.77h4.77v4.77h9.53v4.77ZM546.65,728.29h4.77v-4.77h-4.77v4.77ZM465.61,747.36h-4.77v-4.77h-4.77v-9.53h-4.77v-4.77h4.77v-4.77h14.3v4.77h-4.77v4.77h-4.77v9.53h4.77v4.77ZM560.95,742.59h-14.3v-4.77h14.3v4.77ZM651.52,737.83h-4.77v-9.53h-4.77v-4.77h4.77v-4.77h4.77v19.07ZM437,737.83h-4.77v-4.77h4.77v4.77ZM427.47,737.83h-4.77v-4.77h4.77v4.77ZM603.85,733.06h-4.77v-4.77h4.77v4.77ZM489.44,733.06h-4.77v-4.77h-4.77v-4.77h-4.77v-4.77h4.77v4.77h4.77v4.77h4.77v4.77ZM479.91,733.06h-4.77v-4.77h4.77v4.77ZM446.54,733.06h-4.77v-4.77h-4.77v-4.77h4.77v4.77h4.77v4.77ZM594.32,728.29h-4.77v-4.77h4.77v4.77ZM389.33,728.29h-4.77v-4.77h4.77v4.77ZM379.8,723.53h-4.77v-4.77h-4.77v-4.77h-4.77v-9.53h9.53v4.77h-4.77v4.77h4.77v4.77h4.77v4.77ZM680.12,713.99h-4.77v-4.77h4.77v4.77ZM599.08,704.46h-4.77v-4.77h4.77v4.77ZM603.85,699.69h-4.77v-4.77h4.77v4.77ZM560.95,699.69h-4.77v-4.77h4.77v4.77ZM541.88,699.69h-4.77v-4.77h4.77v4.77ZM451.31,699.69h-4.77v-4.77h4.77v4.77ZM437,699.69h-4.77v-4.77h4.77v4.77ZM370.27,699.69h-4.77v-4.77h4.77v4.77ZM532.35,694.92h-4.77v-4.77h4.77v4.77ZM427.47,694.92h-4.77v-4.77h4.77v4.77ZM375.03,694.92h-4.77v-4.77h4.77v4.77ZM608.62,690.16h-4.77v-4.77h-4.77v-4.77h4.77v4.77h4.77v4.77ZM437,690.16h-4.77v-4.77h-9.53v-4.77h9.53v4.77h4.77v4.77ZM632.45,685.39h-4.77v-4.77h4.77v4.77ZM375.03,685.39h-4.77v-4.77h4.77v4.77ZM360.73,685.39h-4.77v-4.77h4.77v4.77ZM637.22,680.62h-4.77v-4.77h4.77v4.77ZM622.92,680.62h-4.77v-4.77h4.77v4.77ZM613.39,675.86h-4.77v-4.77h4.77v4.77ZM422.7,675.86h-4.77v-4.77h-4.77v-4.77h-4.77v-4.77h4.77v4.77h4.77v4.77h4.77v4.77ZM622.92,671.09h-4.77v-4.77h-4.77v-4.77h4.77v4.77h4.77v4.77ZM427.47,656.79h-4.77v-4.77h-4.77v-4.77h-4.77v-4.77h4.77v4.77h4.77v4.77h4.77v4.77ZM403.63,656.79h-4.77v-4.77h4.77v4.77ZM632.45,652.02h-4.77v-4.77h4.77v4.77ZM408.4,647.25h-4.77v-4.77h4.77v4.77ZM632.45,642.49h-4.77v-4.77h4.77v4.77ZM508.51,637.72h-4.77v-4.77h4.77v4.77ZM432.24,637.72h-4.77v-4.77h-4.77v-4.77h-4.77v-4.77h-4.77v-4.77h4.77v4.77h4.77v4.77h4.77v4.77h4.77v4.77ZM417.94,637.72h-4.77v-4.77h4.77v4.77ZM703.96,632.95h-4.77v-4.77h4.77v4.77ZM637.22,632.95h-4.77v-4.77h4.77v4.77ZM622.92,632.95h-4.77v-4.77h-4.77v-4.77h-4.77v-9.53h-4.77v-4.77h-4.77v-4.77h-4.77v-4.77h4.77v4.77h4.77v4.77h4.77v4.77h4.77v9.53h4.77v4.77h4.77v4.77ZM494.21,632.95h-4.77v-4.77h4.77v4.77ZM408.4,632.95h-4.77v-4.77h4.77v4.77ZM503.74,628.18h-4.77v-4.77h4.77v4.77ZM641.99,623.42h-4.77v-4.77h4.77v4.77ZM627.69,623.42h-4.77v-4.77h4.77v4.77ZM556.18,623.42h-4.77v-4.77h4.77v4.77ZM408.4,623.42h-4.77v-4.77h4.77v4.77ZM699.19,618.65h-4.77v-4.77h4.77v4.77ZM632.45,618.65h-4.77v-4.77h-4.77v-4.77h4.77v4.77h4.77v4.77ZM432.24,618.65h-4.77v-4.77h-4.77v-4.77h4.77v4.77h4.77v4.77ZM398.87,618.65h-4.77v-4.77h4.77v4.77ZM641.99,613.88h-4.77v-4.77h4.77v4.77ZM408.4,613.88h-4.77v-4.77h4.77v4.77ZM661.06,609.12h-4.77v-4.77h4.77v4.77ZM398.87,609.12h-4.77v-4.77h4.77v4.77ZM375.03,609.12h-4.77v-4.77h4.77v4.77ZM351.2,609.12h-4.77v-4.77h4.77v4.77ZM684.89,604.35h-4.77v-4.77h4.77v4.77ZM651.52,604.35h-4.77v-4.77h4.77v4.77ZM637.22,604.35h-4.77v-4.77h-4.77v-4.77h4.77v4.77h4.77v4.77ZM627.69,604.35h-4.77v-4.77h4.77v4.77ZM618.15,604.35h-4.77v-4.77h4.77v4.77ZM417.94,604.35h-4.77v-4.77h4.77v4.77ZM403.63,604.35h-4.77v-4.77h4.77v4.77ZM389.33,604.35h-4.77v-4.77h4.77v4.77ZM656.29,599.58h-4.77v-4.77h4.77v4.77ZM394.1,599.58h-4.77v-4.77h4.77v4.77ZM594.32,594.82h-4.77v-4.77h4.77v4.77ZM384.57,594.82h-4.77v-4.77h4.77v4.77ZM375.03,594.82h-4.77v-4.77h4.77v4.77ZM365.5,594.82h-4.77v-4.77h-4.77v-4.77h4.77v4.77h4.77v4.77ZM675.36,590.05h-4.77v-4.77h4.77v4.77ZM627.69,509.01h-4.77v-4.77h4.77v4.77ZM389.33,509.01h-4.77v-4.77h4.77v4.77ZM417.94,504.24h-4.77v-4.77h4.77v4.77ZM494.21,489.94h-4.77v-4.77h4.77v4.77ZM546.65,480.41h-4.77v-4.77h4.77v4.77ZM627.69,475.64h-4.77v-4.77h-4.77v-4.77h4.77v4.77h4.77v4.77ZM408.4,475.64h-4.77v-4.77h4.77v4.77ZM389.33,475.64h-4.77v-4.77h4.77v4.77ZM694.43,470.87h-4.77v-4.77h4.77v4.77ZM661.06,470.87h-4.77v-4.77h4.77v4.77ZM641.99,470.87h-9.53v-4.77h4.77v-4.77h-4.77v-9.53h-4.77v-4.77h-4.77v-9.53h14.3v-4.77h-4.77v-4.77h4.77v4.77h4.77v4.77h4.77v4.77h4.77v4.77h-4.77v-4.77h-4.77v4.77h4.77v4.77h4.77v4.77h4.77v4.77h-4.77v-4.77h-4.77v-4.77h-4.77v4.77h-4.77v4.77h9.53v4.77h-4.77v4.77ZM627.69,447.04h4.77v-4.77h-4.77v4.77ZM537.11,470.87h-4.77v-4.77h-4.77v-4.77h4.77v4.77h4.77v4.77ZM413.17,470.87h-4.77v-4.77h4.77v4.77ZM627.69,466.1h-4.77v-4.77h4.77v4.77ZM541.88,466.1h-4.77v-4.77h4.77v4.77ZM417.94,466.1h-4.77v-4.77h4.77v4.77ZM398.87,466.1h-4.77v-4.77h-4.77v-4.77h-4.77v-4.77h4.77v4.77h4.77v4.77h4.77v4.77ZM365.5,466.1h-4.77v-4.77h-4.77v-4.77h4.77v4.77h4.77v4.77ZM713.49,461.34h-4.77v-4.77h4.77v4.77ZM675.36,461.34h-4.77v-4.77h4.77v4.77ZM618.15,461.34h-4.77v-4.77h4.77v4.77ZM408.4,461.34h-4.77v-4.77h-9.53v-14.3h-9.53v-9.53h4.77v4.77h4.77v-4.77h4.77v4.77h9.53v4.77h9.53v4.77h-9.53v-4.77h-4.77v4.77h4.77v4.77h4.77v4.77h-4.77v-4.77h-4.77v-4.77h-4.77v4.77h4.77v4.77h4.77v4.77ZM384.57,461.34h-4.77v-4.77h-4.77v-4.77h4.77v4.77h4.77v4.77ZM341.66,461.34h-4.77v-4.77h4.77v4.77ZM665.82,456.57h-4.77v-4.77h4.77v4.77ZM627.69,456.57h-4.77v-4.77h-4.77v-4.77h4.77v4.77h4.77v4.77ZM537.11,456.57h-4.77v-4.77h4.77v4.77ZM365.5,451.8h-4.77v-4.77h4.77v4.77ZM665.82,447.04h-4.77v-4.77h4.77v4.77ZM527.58,447.04h-4.77v-4.77h-9.53v-4.77h-4.77v-4.77h4.77v4.77h9.53v4.77h4.77v4.77ZM379.8,447.04h-4.77v-4.77h-4.77v-4.77h4.77v4.77h4.77v4.77ZM703.96,442.27h-4.77v-4.77h4.77v4.77ZM656.29,442.27h-4.77v-4.77h-4.77v-4.77h4.77v4.77h4.77v4.77ZM336.9,442.27h-4.77v-4.77h4.77v4.77ZM756.4,437.5h-4.77v-4.77h4.77v4.77ZM527.58,437.5h-4.77v-4.77h4.77v4.77ZM532.35,432.74h-4.77v-4.77h4.77v4.77ZM518.04,432.74h-4.77v-4.77h4.77v4.77ZM503.74,432.74h-4.77v-4.77h4.77v4.77ZM751.63,427.97h-4.77v-4.77h4.77v4.77ZM699.19,427.97h-4.77v-4.77h4.77v4.77ZM508.51,427.97h-4.77v-4.77h-4.77v-4.77h-4.77v-4.77h4.77v4.77h4.77v4.77h4.77v4.77ZM398.87,427.97h-4.77v-4.77h4.77v4.77ZM684.89,423.2h-4.77v-4.77h4.77v4.77ZM641.99,423.2h-4.77v-4.77h-4.77v-4.77h4.77v4.77h4.77v4.77ZM465.61,423.2h-4.77v-4.77h4.77v4.77ZM365.5,423.2h-4.77v-4.77h4.77v4.77ZM751.63,418.43h-4.77v-4.77h4.77v4.77ZM551.41,418.43h-4.77v-4.77h4.77v4.77ZM355.96,418.43h-4.77v-4.77h4.77v4.77ZM665.82,413.67h-4.77v-4.77h4.77v4.77ZM560.95,413.67h-4.77v-4.77h4.77v4.77ZM370.27,413.67h-4.77v-4.77h4.77v4.77ZM751.63,408.9h-4.77v-4.77h4.77v4.77ZM589.55,408.9h-4.77v-4.77h4.77v4.77ZM575.25,408.9h-4.77v-4.77h4.77v4.77ZM389.33,408.9h-4.77v-4.77h4.77v4.77ZM360.73,408.9h-4.77v-4.77h-4.77v-4.77h4.77v4.77h4.77v4.77ZM265.39,408.9h-4.77v-4.77h4.77v4.77ZM675.36,404.13h-4.77v-4.77h4.77v4.77ZM651.52,404.13h-4.77v-4.77h4.77v4.77ZM622.92,404.13h-4.77v-4.77h4.77v4.77ZM441.77,404.13h-4.77v-4.77h4.77v4.77ZM432.24,404.13h-4.77v-4.77h4.77v4.77ZM370.27,404.13h-4.77v-4.77h-4.77v-9.53h4.77v9.53h4.77v4.77ZM751.63,399.37h-4.77v-4.77h4.77v4.77ZM670.59,394.6h-4.77v-4.77h4.77v4.77ZM661.06,389.83h-4.77v-4.77h4.77v4.77ZM379.8,389.83h-4.77v-4.77h4.77v4.77ZM293.99,385.06h-4.77v-4.77h4.77v4.77ZM308.29,380.3h-4.77v-4.77h4.77v4.77ZM298.76,375.53h-4.77v-4.77h4.77v4.77ZM289.23,375.53h-4.77v-4.77h4.77v4.77ZM670.59,370.76h-9.53v-4.77h-4.77v-4.77h4.77v4.77h9.53v4.77ZM379.8,370.76h-4.77v-4.77h4.77v4.77ZM303.53,370.76h-4.77v-4.77h-9.53v-4.77h-4.77v-4.77h4.77v4.77h9.53v4.77h4.77v4.77ZM665.82,361.23h-4.77v-4.77h4.77v4.77ZM680.12,356.46h-4.77v-4.77h4.77v4.77ZM656.29,356.46h-4.77v-4.77h4.77v4.77ZM684.89,351.7h-4.77v-4.77h-4.77v-4.77h-4.77v-4.77h4.77v4.77h4.77v4.77h4.77v4.77ZM670.59,351.7h-4.77v-4.77h-4.77v-4.77h4.77v4.77h4.77v4.77ZM661.06,351.7h-4.77v-4.77h4.77v4.77ZM379.8,351.7h-4.77v-4.77h4.77v4.77ZM355.96,351.7h-4.77v-4.77h4.77v4.77ZM289.23,351.7h-4.77v-4.77h4.77v4.77ZM651.52,346.93h-4.77v-4.77h-4.77v-4.77h4.77v4.77h4.77v4.77ZM694.43,342.16h-4.77v-4.77h4.77v4.77ZM656.29,342.16h-4.77v-4.77h4.77v4.77ZM680.12,337.39h-4.77v-4.77h4.77v4.77ZM637.22,337.39h-14.3v-4.77h14.3v4.77ZM365.5,337.39h-4.77v-4.77h4.77v4.77ZM651.52,332.63h-4.77v-4.77h4.77v4.77ZM641.99,332.63h-4.77v-4.77h4.77v4.77ZM417.94,332.63h-9.53v-4.77h9.53v4.77ZM384.57,332.63h-4.77v-4.77h4.77v4.77ZM370.27,332.63h-4.77v-4.77h4.77v4.77ZM699.19,327.86h-4.77v-4.77h4.77v4.77ZM680.12,327.86h-4.77v-4.77h4.77v4.77ZM632.45,327.86h-9.53v-4.77h-4.77v-4.77h4.77v4.77h9.53v4.77ZM360.73,327.86h-4.77v-4.77h4.77v4.77ZM651.52,323.09h-4.77v-4.77h4.77v4.77ZM413.17,323.09h-4.77v-4.77h4.77v4.77ZM699.19,318.33h-4.77v-4.77h4.77v4.77ZM632.45,318.33h-4.77v-9.53h4.77v9.53ZM360.73,318.33h-4.77v-4.77h4.77v4.77ZM351.2,318.33h-4.77v-4.77h4.77v4.77ZM618.15,313.56h-4.77v-4.77h4.77v4.77ZM422.7,313.56h-4.77v-4.77h-4.77v-4.77h-4.77v-4.77h4.77v4.77h4.77v4.77h4.77v4.77ZM341.66,313.56h-4.77v-4.77h-4.77v-14.3h4.77v14.3h4.77v4.77ZM656.29,308.79h-4.77v-14.3h4.77v14.3ZM360.73,308.79h-4.77v-4.77h4.77v4.77ZM351.2,308.79h-4.77v-4.77h-4.77v-4.77h4.77v4.77h4.77v4.77ZM632.45,304.02h-4.77v-4.77h-4.77v-4.77h4.77v4.77h4.77v4.77ZM775.47,299.26h-4.77v-4.77h4.77v4.77ZM360.73,299.26h-4.77v-4.77h4.77v4.77ZM351.2,299.26h-4.77v-4.77h4.77v4.77ZM632.45,294.49h-4.77v-9.53h-4.77v-4.77h4.77v4.77h4.77v9.53ZM618.15,294.49h-4.77v-9.53h4.77v9.53ZM417.94,294.49h-4.77v-4.77h4.77v4.77ZM408.4,294.49h-4.77v-4.77h4.77v4.77ZM341.66,294.49h-4.77v-4.77h-4.77v-9.53h4.77v9.53h4.77v4.77ZM360.73,289.72h-4.77v-4.77h4.77v4.77ZM351.2,289.72h-4.77v-4.77h-4.77v-4.77h4.77v4.77h4.77v4.77ZM699.19,284.96h-4.77v-4.77h4.77v4.77ZM417.94,284.96h-4.77v-4.77h4.77v4.77ZM408.4,284.96h-4.77v-4.77h4.77v4.77ZM632.45,280.19h-4.77v-4.77h4.77v4.77ZM398.87,280.19h-4.77v-4.77h4.77v4.77ZM360.73,280.19h-4.77v-4.77h4.77v4.77ZM637.22,275.42h-4.77v-4.77h-4.77v-4.77h-4.77v-4.77h4.77v-9.53h4.77v9.53h4.77v4.77h-4.77v4.77h4.77v4.77ZM622.92,275.42h-4.77v-4.77h-4.77v-9.53h4.77v9.53h4.77v4.77ZM417.94,275.42h-4.77v-4.77h4.77v4.77ZM408.4,275.42h-4.77v-4.77h-4.77v-4.77h4.77v4.77h4.77v4.77ZM365.5,275.42h-4.77v-4.77h-4.77v-4.77h4.77v4.77h4.77v4.77ZM351.2,275.42h-4.77v-4.77h-4.77v-4.77h4.77v4.77h4.77v4.77ZM336.9,275.42h-4.77v-4.77h4.77v4.77ZM703.96,270.66h-4.77v-4.77h4.77v4.77ZM413.17,265.89h-4.77v-4.77h4.77v4.77ZM351.2,265.89h-4.77v-4.77h-4.77v-4.77h4.77v4.77h4.77v4.77ZM336.9,265.89h-4.77v-4.77h4.77v4.77ZM417.94,261.12h-4.77v-4.77h4.77v4.77ZM403.63,261.12h-4.77v-4.77h4.77v4.77ZM360.73,261.12h-4.77v-4.77h4.77v4.77ZM327.36,261.12h-4.77v-4.77h4.77v4.77ZM694.43,256.35h-4.77v-4.77h4.77v4.77ZM408.4,256.35h-4.77v-9.53h-4.77v-4.77h4.77v4.77h4.77v9.53ZM365.5,256.35h-4.77v-9.53h-4.77v-4.77h4.77v4.77h4.77v9.53ZM351.2,256.35h-4.77v-4.77h4.77v4.77ZM637.22,251.59h-4.77v-4.77h-4.77v-14.3h4.77v14.3h4.77v4.77ZM417.94,251.59h-4.77v-4.77h4.77v4.77ZM341.66,251.59h-4.77v-4.77h-4.77v-4.77h4.77v4.77h4.77v4.77ZM694.43,242.05h-4.77v-4.77h4.77v4.77ZM408.4,242.05h-4.77v-4.77h4.77v4.77ZM422.7,237.29h-4.77v-4.77h-4.77v-4.77h-4.77v-4.77h-4.77v-4.77h-4.77v-4.77h4.77v4.77h4.77v4.77h4.77v4.77h4.77v4.77h4.77v4.77ZM703.96,232.52h-4.77v-4.77h-4.77v-4.77h4.77v4.77h4.77v4.77ZM408.4,232.52h-4.77v-4.77h-4.77v-4.77h4.77v4.77h4.77v4.77ZM656.29,227.75h-9.53v-4.77h4.77v-9.53h4.77v14.3ZM632.45,227.75h-4.77v-4.77h-4.77v-4.77h4.77v4.77h4.77v4.77ZM632.45,218.22h-4.77v-4.77h4.77v4.77ZM699.19,213.45h-4.77v-4.77h4.77v4.77ZM389.33,213.45h-4.77v-4.77h4.77v4.77ZM680.12,208.68h-4.77v-4.77h4.77v4.77ZM699.19,203.92h-4.77v-4.77h4.77v4.77ZM637.22,203.92h-4.77v-4.77h4.77v4.77ZM627.69,203.92h-4.77v-4.77h4.77v4.77ZM384.57,203.92h-4.77v-4.77h4.77v4.77ZM684.89,199.15h-4.77v-4.77h4.77v4.77ZM375.03,199.15h-4.77v-4.77h4.77v4.77ZM694.43,194.38h-4.77v-9.53h4.77v9.53ZM646.75,194.38h-4.77v-4.77h4.77v4.77ZM632.45,194.38h-4.77v-4.77h4.77v4.77ZM365.5,194.38h-4.77v-4.77h4.77v4.77ZM346.43,194.38h-4.77v-4.77h-4.77v-4.77h4.77v4.77h4.77v4.77ZM684.89,189.62h-4.77v-4.77h-4.77v-4.77h4.77v4.77h4.77v4.77ZM646.75,184.85h-4.77v-14.3h4.77v14.3ZM627.69,184.85h-4.77v-4.77h4.77v4.77ZM360.73,184.85h-4.77v-4.77h4.77v4.77ZM684.89,180.08h-4.77v-9.53h-4.77v-9.53h4.77v9.53h4.77v9.53ZM632.45,180.08h-4.77v-4.77h4.77v4.77ZM618.15,180.08h-4.77v-4.77h4.77v4.77ZM375.03,180.08h-4.77v-4.77h4.77v4.77ZM661.06,175.31h-4.77v-4.77h4.77v4.77ZM622.92,175.31h-4.77v-4.77h-4.77v-4.77h4.77v4.77h4.77v4.77ZM608.62,170.55h-4.77v-19.07h4.77v19.07ZM637.22,161.01h-4.77v-4.77h4.77v4.77ZM618.15,161.01h-4.77v-4.77h4.77v4.77ZM599.08,161.01h-4.77v-9.53h-4.77v-4.77h9.53v14.3ZM656.29,156.25h-4.77v-4.77h4.77v4.77ZM618.15,151.48h-4.77v-4.77h4.77v4.77ZM670.59,146.71h-4.77v-4.77h4.77v4.77ZM656.29,146.71h-4.77v-4.77h4.77v4.77ZM632.45,146.71h-4.77v-4.77h4.77v4.77ZM603.85,146.71h-4.77v-4.77h4.77v4.77ZM613.39,141.94h-4.77v-4.77h4.77v4.77ZM594.32,141.94h-4.77v-4.77h4.77v4.77ZM584.78,141.94h-4.77v-4.77h-4.77v-4.77h-4.77v-4.77h4.77v4.77h4.77v4.77h4.77v4.77ZM661.06,137.18h-4.77v-4.77h4.77v4.77ZM632.45,137.18h-4.77v-4.77h4.77v4.77ZM603.85,137.18h-9.53v-4.77h-4.77v-4.77h-4.77v-4.77h4.77v4.77h4.77v4.77h9.53v4.77ZM613.39,132.41h-4.77v-4.77h4.77v4.77ZM656.29,127.64h-4.77v-4.77h4.77v4.77ZM632.45,127.64h-4.77v-4.77h4.77v4.77ZM603.85,127.64h-4.77v-9.53h-4.77v-4.77h4.77v4.77h4.77v9.53ZM580.02,127.64h-4.77v-4.77h4.77v4.77ZM646.75,122.88h-4.77v-4.77h4.77v4.77ZM622.92,122.88h-4.77v-4.77h4.77v4.77ZM613.39,122.88h-4.77v-4.77h4.77v4.77ZM570.48,122.88h-4.77v-4.77h4.77v4.77ZM637.22,118.11h-4.77v-4.77h-4.77v-4.77h4.77v4.77h4.77v4.77ZM580.02,118.11h-4.77v-4.77h-4.77v-4.77h4.77v4.77h4.77v4.77ZM622.92,113.34h-4.77v-4.77h-4.77v-4.77h4.77v4.77h4.77v4.77ZM613.39,113.34h-4.77v-4.77h4.77v4.77ZM603.85,113.34h-4.77v-4.77h-4.77v-4.77h9.53v9.53Z"/><rect id="e" class="f" x="10" y="10" width="980" height="980"/></g></svg>