<?xml version="1.0" encoding="UTF-8"?><svg id="b" xmlns="http://www.w3.org/2000/svg" viewBox="0 0 1000 1000"><defs><style>.f{fill:none;stroke:#202020;stroke-miterlimit:10;stroke-width:20px;}.g{fill:#afcaee;}.h{fill:#fff;}.i{fill:#ccdafe;}.j{fill:#93b1fe;}.k{fill:#4784e0;}.l{fill:#bed1fd;}.m{fill:#8fb6e9;}</style></defs><g id="c"><rect id="d" width="1000" height="1000"/><rect id="e" class="f" x="10" y="10" width="980" height="980"/><rect x="254.41" y="279.55" width="510.85" height="451.25"/><path class="h" d="M436.83,666.31c-10.04,21.61-28.22,48.72-50.57,58.75-43.39,19.46-86.87-17.18-78.79-62.79,5.1-28.78,27.46-38.2,47.48-54.84,1.05-1.31,2.43-2.34,3.99-2.99,16.42-16.23,29.03-40.61,20.97-63.88,25.21,22.72,41.67,53.69,50.43,86.83l6.48,38.93Z"/><path class="j" d="M358.95,604.43c-2,1.98-2.86,2.05-3.99,2.99.8-1.71,2-2.94,3.99-2.99Z"/><path class="h" d="M582.61,551.53c4.76,35.04,30.88,34.9,57.29,48.03,28.59,14.21,45.54,38.12,49.55,69.75l1,4.99c2.48,62.54-61.25,108.67-119.03,80.56-17.7-8.61-29.09-22.66-39.73-38.64-.72-1.73-1.05-3.39-1-4.99-9.02-57.77,12.36-121.01,50.92-163.69l1,3.99Z"/><path class="k" d="M531.69,716.22c-.67-1.01-1.34-1.95-2-2.99l1-2c.16,1.05,1.9,3.01,1,4.99Z"/><path class="i" d="M690.45,674.3c-1.62-.85-.94-3.39-1-4.99.17,1.34.9,2.44,1,4.99Z"/><path class="g" d="M828.24,363.88c.12-3.28.11-6.7,0-9.98,1.66,2.02,1.71,7.77,0,9.98Z"/><path class="l" d="M582.61,551.53c-.09-.66-1.78-2.4-1-3.99.32-.35.68-.65,1-1v4.99Z"/><path class="h" d="M828.24,353.9c.92,3.26.92,6.72,0,9.98-2.07,54.86-37.15,98.46-89.44,113.71-63.67,18.57-107.42,16.15-156.18,68.95,0,.66-.34.99-1,1l-1.53,4.76c-35.81,42.27-54.67,98.75-48.07,154.05l-1.32,4.89c.39,1.78.05,2.45-1,2-88.8-140.31-38.45-393.51,120.46-463.98,83.57-37.06,174.89,11.12,178.09,104.66Z"/><path class="h" d="M458.8,543.55c.93,6.62.93,13.34,0,19.96-.94,34.48-7.39,71.42-21.97,102.81l-2.16-.82c-5.11-42.99-18.05-86.6-51.01-118.66l-3.74-6.29c-47.34-42.66-115.62-14.3-166.06-50.09-92.28-65.48-25.8-217.96,91.94-182.73,95.55,28.59,150.46,142.29,153,235.82Z"/><path class="m" d="M458.8,563.51c.18-6.59.18-13.37,0-19.96,1.68,5.8,1.67,14.24,0,19.96Z"/></g></svg>