<?xml version="1.0" encoding="UTF-8"?><svg id="b" xmlns="http://www.w3.org/2000/svg" viewBox="0 0 1000 1000"><defs><style>.f{fill:none;stroke:#202020;stroke-miterlimit:10;stroke-width:20px;}.g{fill:#fff;}</style></defs><g id="c"><rect id="d" width="1000" height="1000"/><rect id="e" class="f" x="10" y="10" width="980" height="980"/><path class="g" d="M797.84,411.48c.1,1.27-.27,2.81.04,4.01,2.95,11.33,5.42,22.93,7.09,34.56.44,3.07-.5,7.08.12,9.69,1.69,7.18,1.21,9.76,1.8,17.35.96,12.19,2.46,22.69,1.83,35.35-1.09,21.83-4.74,49.5-10.85,70.62-.34,1.19.07,2.75-.04,4.02-1.44,1.55-18.57-3.13-21.51-4.26-21.03-8.05-40.71-26.93-49.96-47.95-21.56-48.97,7.71-107.97,58.56-121.36,2.43-.64,5.63-1.63,7.19-2,1.69-.4,3.91.17,5.72-.02Z"/><path class="g" d="M207.76,411.78c3.34,1.52,2.9.74,6.08,1.56,58.3,15.11,84.61,84.26,51.68,135.37-11.08,17.2-36.67,35.32-57.11,38.32-2.2.32-4.53-.08-6.74.06-.1-1.27.31-2.83-.04-4.02-10.88-37.62-12.19-81.23-8.95-121.29.57-7.03,2.39-16.84,3.64-23.52,1.67-8.96,4.51-17.85,5.36-26.77,1.93.21,4.29-.53,6.1.29Z"/><path class="g" d="M648.46,226.98c-.13,2.55,2.35,1.21,3.45,1.97,27.45,18.82,54.86,39.11,77.22,64.37,13.2,14.91,32.14,37.71,40.06,55.42.22.49,2.57.13,1.22,3.68-6.2,5.27-13.64,8.74-21.3,11.67-15.96,6.08-35.48,7.88-52.88,3.93-.31-.07-3.35-1.39-5.37-2.01-7.56-2.3-14.49-6.63-21.39-8.97l-.19-2.44c-3.34-.79-9.89-5.11-12.61-7.79-31.87-31.35-37.79-81.22-11.68-117.47.55-.77,1.99-.96,1.79-2.47l1.69.11Z"/><path class="g" d="M353.07,230.17c35.53,48.46,12.63,117.57-44.42,135.85-10.85,3.48-29.11,5.51-41.45,3.9-1.67-.22-1.19-1.7-1.92-1.86-2.1-.48-4.8.45-6.9-.04-1.76-.41-24.76-10.03-25.84-10.99-.34-.31.1-1.76-.33-2.29-.46-.55-4.12-1.46-5.17-2.16-.62-2.7,2.76-4.7,3.3-5.62,27.96-48.28,71.16-89.23,117.24-118.01.86-.54,2.29.02,3.14-.52.58-.37-.37-1.95,1.1-1.57.06,1.26.5,2.3,1.24,3.31Z"/><path class="g" d="M320.68,638.18c1.08.52,2.83,1.22,3.71,1.7,12.09,6.47,24.72,18.45,31.67,30.27,1.23,2.1,2.76,4.16,3.81,6.38,14.12,29.77,14.26,60.3-3.84,89.45-.86,1.39-4.14,2.94-4.65,5.72l-2.21-.59c-1.63-1.47-4.4-3.55-6.22-4.73-42.4-27.66-81.63-62.98-109.02-107.09-.47-3.39-5.75-7.39-6.38-9.92-1.32-5.29,2.8-4.35,5.92-6.3,26.23-16.33,58.38-18.62,87.21-4.89Z"/><path class="g" d="M582.29,200.89c.3.13,1.29,2.92,4.76,1.53-.84,5.32-1.55,10.35-2.99,15.55-6.62,23.86-28.46,46.6-51.14,55.82-13.53,5.5-35.08,7.62-50.42,5.62-1.68-.22-1.2-1.71-1.91-1.86-8.41-1.85-15.3-3.26-23.51-7.56-19.02-9.97-35.06-29.29-41.85-49.12-.91-2.66-1.25-6.25-1.91-8.9-.75-2.99-2.99-5.51-1.71-9.49,3.88-1.84,8.66-1.15,11.99-1.88,8.19-1.8,17.29-4.97,26.45-6.27,37.28-5.27,85.66-3.23,122.03,4.52,1.93.41,9.73,1.83,10.21,2.05Z"/><path class="g" d="M756.74,638.16l13.83,7.86c2.27,3.61-3.55,8.78-5.2,11.49-28.13,46.25-69.15,85.08-115.93,113.72-.86.52-1.53.69-2.51.26-2.27-1.01-6.43-11.76-8.88-13.69-36.84-77.85,41.43-154.7,118.68-119.65Z"/><path class="g" d="M529.8,724.95c19.58,7.39,41.39,26.54,50.8,47.54,1.69,3.78,4.86,13.22,5.51,16.92.47,2.65-.31,5.74.95,8.55-3.39,1.52-7.29,1.2-10.36,1.87-52.46,11.42-107.95,12.05-160.91-.07-.39-.09-1.35-3.04-4.23-1.8.21-2.06-.44-4.72,0-6.61.24-1.02,1.45-5.08,2.04-7.16,13.85-48.78,64.01-73.21,111.72-59.77,1.5.42,2.98-.03,4.47.54Z"/><ellipse class="g" cx="499.07" cy="332.57" rx="27.61" ry="27.63"/><ellipse class="g" cx="380.84" cy="617.8" rx="27.53" ry="27.54"/><path class="g" d="M634.6,359.41c12.51,9.19,14.2,29.5,3.15,40.79-1.11,1.14-10.48,7.63-11.29,7.73-8.8,1.06-21.94.37-28.23-6.71-.31-.35-5.05-7.44-5.24-7.87-2.17-5.07-4.8-13.36-3.24-19.24.23-.87,1.86-.92,2.19-1.59,1.52-3.11,2.11-6,4.21-9.2.63-.95,10.73-8.68,11.45-8.86,4.2-1.07,15.28-1.01,19.52.21.69.2,6.39,3.96,7.48,4.76Z"/><ellipse class="g" cx="617.71" cy="618.11" rx="27.53" ry="27.55"/><ellipse class="g" cx="380.96" cy="381.35" rx="27.52" ry="27.54"/><ellipse class="g" cx="499.12" cy="667.64" rx="27.53" ry="27.54"/><ellipse class="g" cx="667.04" cy="499.57" rx="27.5" ry="27.51"/><ellipse class="g" cx="332.42" cy="499.57" rx="27.49" ry="27.5"/></g></svg>