<?xml version="1.0" encoding="UTF-8"?><svg id="b" xmlns="http://www.w3.org/2000/svg" viewBox="0 0 1000 1000"><defs><style>.f{fill:#313234;}.g{fill:none;stroke:#202020;stroke-miterlimit:10;stroke-width:20px;}.h{fill:#fff;}</style></defs><g id="c"><rect id="d" width="1000" height="1000"/><rect id="e" class="g" x="10" y="10" width="980" height="980"/><path d="M796.98,415.24l-1.3,6.46c6.51,10.08,15.88,18.09,22.65,27.95-.16,4-1.13,10.05.56,13.69.89.75,1,.96,2.13,1.07.77-6.44.66-12.95,1.42-19.37-3.87-5.14-21.62-27.11-25.46-29.81Z"/><path d="M825.61,445.5c-.74,6.37-.89,12.79-1.63,19.16l.35.4c9.95-6.25,20.42-11.85,30.19-18.34.04-2.77.75-15.39-.43-16.9-9.39,5.37-19.18,10.23-28.49,15.68Z"/><path class="h" d="M919.73,521.81c-.87,4.5-3.27,9.12-6.41,12.46-4.68,4.98-23.89,15.16-30.87,19.44l-101.3,61.74-294.04,179.73c-39.51,24.25-78.51,49.31-118.22,73.25-6.93,4.18-13.63,8.78-20.61,12.84-5.53,3.21-10.6,4.46-16.95,4.58-6.74-.17-12.71-1.94-18.13-6.02-4.48-3.37-8.49-8.19-12.42-12.21l-24.05-24.75c-29.57-29.61-58.87-59.48-87.9-89.61-24.32-24.99-49.33-49.33-73.79-74.18-9.1-9.24-19.28-18.17-27.65-28.05-.48-.56-.95-1.15-1.39-1.74-.44-.6-.86-1.21-1.26-1.84-.4-.63-.78-1.27-1.13-1.92-.35-.65-.69-1.32-.99-1.99-.31-.68-.59-1.36-.85-2.06-.26-.69-.5-1.4-.71-2.11-.21-.71-.4-1.43-.56-2.16s-.3-1.45-.41-2.19c-1.01-7.02-.43-14.64-.4-21.74l.17-38.69c-.11-20.9-.11-41.81,0-62.72.01-9.32-1-19.49.2-28.7.1-.75.22-1.5.37-2.24.15-.74.32-1.48.52-2.21.2-.73.42-1.46.67-2.17.25-.72.52-1.43.81-2.12.29-.7.61-1.39.95-2.07.34-.68.7-1.34,1.08-2,.38-.66.79-1.29,1.21-1.92.42-.63.87-1.24,1.33-1.84,2.25-2.95,4.91-5.21,8.01-7.22,17.93-11.59,36.77-21.91,54.98-33.08l190.06-115.24,196.84-120.13,90.85-55c9.52-5.67,18.79-11.83,28.42-17.3,4.08-2.32,7.78-3.74,12.44-4.36.31-.04.63-.06.94-.08,6.83-.44,14.37,2.08,19.45,6.72,6.47,5.91,17.87,22.68,23.86,30.63l57.69,77.26,100.57,132.94c9,11.77,17.95,23.59,26.83,35.45,5.17,6.77,10.81,13.47,15.46,20.61,4.27,6.55,6.25,13.04,6.66,20.83.87,16.55.13,33.48.15,50.06.01,8.38.97,25.66-.47,33.1Z"/><path d="M920.2,488.72c-.02-16.59.72-33.52-.15-50.06-.41-7.79-2.4-14.28-6.66-20.83-4.65-7.14-10.29-13.83-15.46-20.61-8.88-11.86-17.82-23.68-26.83-35.45l-100.57-132.94-57.69-77.26c-5.99-7.95-17.4-24.72-23.86-30.63-5.07-4.64-12.61-7.16-19.45-6.72-.31.02-.63.05-.94.08-4.66.62-8.36,2.05-12.44,4.36-9.63,5.47-18.9,11.62-28.42,17.3l-90.85,55-196.84,120.13-190.06,115.24c-18.2,11.17-37.05,21.49-54.98,33.08-3.1,2.01-5.76,4.27-8.01,7.22-.46.6-.91,1.21-1.33,1.84-.42.63-.83,1.27-1.21,1.92-.38.65-.74,1.32-1.08,2-.34.68-.65,1.37-.95,2.07-.29.7-.56,1.41-.81,2.12-.25.71-.47,1.44-.67,2.17-.2.73-.37,1.47-.52,2.21-.15.74-.27,1.49-.37,2.24-1.19,9.21-.19,19.38-.2,28.7-.11,20.9-.12,41.81,0,62.72l-.17,38.69c-.04,7.09-.61,14.72.4,21.74.11.73.25,1.46.41,2.19s.35,1.44.56,2.16c.21.71.45,1.42.71,2.11.26.7.54,1.38.85,2.06.31.68.64,1.34.99,1.99.35.65.73,1.29,1.13,1.92.4.63.82,1.24,1.26,1.84.44.6.9,1.18,1.39,1.74,8.37,9.88,18.55,18.81,27.65,28.05,24.46,24.86,49.47,49.19,73.79,74.18,29.03,30.13,58.33,60,87.9,89.61l24.05,24.75c3.93,4.02,7.94,8.84,12.42,12.21,5.42,4.08,11.38,5.85,18.13,6.02,6.35-.12,11.43-1.37,16.95-4.58,6.99-4.06,13.68-8.66,20.61-12.84,39.71-23.94,78.71-49,118.22-73.25l294.04-179.73,101.3-61.74c6.98-4.28,26.19-14.46,30.87-19.44,3.14-3.34,5.53-7.96,6.41-12.46,1.44-7.43.48-24.72.47-33.1ZM917.62,520.78c-.56,3.93-2.09,7.95-4.63,11.02-.62.73-1.28,1.41-1.99,2.05-.71.64-1.46,1.22-2.26,1.75-6.04,4.08-12.86,7.48-19.13,11.25l-43.72,26.61-227.45,138.59-68.51,42.25c-23.63,14.41-47.46,28.57-70.89,43.28l-102.22,63.38c-9.39,5.72-18.48,12.04-27.98,17.54-5.7,3.3-10.29,4.81-16.85,5.31-5.42-.19-10.67-1.52-15.3-4.42-5.49-3.45-17.66-17.03-22.89-22.25-25.16-25.09-49.64-50.83-74.57-76.13l-92.47-93.32c-6.82-6.94-13.69-13.83-20.6-20.69-5.66-5.52-11.66-10.88-16.91-16.79-3.64-4.1-5.86-8.82-6.98-14.21-1.52-7.31-.58-16.39-.58-23.89l.04-45.87-.04-55.14c0-8.98-.69-18.65.29-27.54.53-4.8,2.82-10.53,5.53-14.49,1.8-2.64,4.37-5.25,7.06-6.96,13.89-8.81,28.39-16.79,42.45-25.34l143.43-86.62,255.47-155.94c30.86-19.17,61.9-38.06,93.11-56.65,9.82-5.82,19.23-12.51,29.36-17.79,3.22-1.68,6.37-2.75,9.94-3.37,6.46-.28,12.42.93,17.71,4.95,7.77,5.9,22.86,28.61,29.59,37.64l54.25,72.82,106.64,141.09c8.05,10.76,16.39,21.36,24.55,32.04,3.24,4.23,6.81,8.26,9.82,12.66,3.74,5.46,5.9,10.44,6.7,17.03.69,5.67.38,11.54.37,17.25l-.06,26.96.11,25.42c.02,5.46.35,11.09-.41,16.5Z"/><path d="M918.04,504.28l-.11-25.42.06-26.96c.01-5.71.32-11.58-.37-17.25-.79-6.59-2.96-11.57-6.7-17.03-3.01-4.4-6.58-8.43-9.82-12.66-8.16-10.68-16.51-21.27-24.55-32.04l-106.64-141.09-54.25-72.82c-6.73-9.03-21.82-31.74-29.59-37.64-5.29-4.02-11.25-5.23-17.71-4.95-3.57.62-6.72,1.7-9.94,3.37-10.13,5.28-19.54,11.97-29.36,17.79-31.21,18.59-62.25,37.48-93.11,56.65l-255.47,155.94-143.43,86.62c-14.06,8.55-28.56,16.52-42.45,25.34-2.69,1.71-5.26,4.32-7.06,6.96-2.71,3.97-5,9.69-5.53,14.49-.98,8.89-.29,18.56-.29,27.54l.04,55.14-.04,45.87c0,7.5-.94,16.58.58,23.89,1.12,5.39,3.34,10.11,6.98,14.21,5.24,5.91,11.25,11.27,16.91,16.79,6.91,6.85,13.78,13.75,20.6,20.69l92.47,93.32c24.93,25.3,49.41,51.04,74.57,76.13,5.23,5.21,17.4,18.8,22.89,22.25,4.62,2.9,9.87,4.23,15.3,4.42,6.56-.51,11.15-2.01,16.85-5.31,9.5-5.5,18.6-11.82,27.98-17.54l102.22-63.38c23.44-14.71,47.27-28.87,70.89-43.28l68.51-42.25,227.45-138.59,43.72-26.61c6.27-3.78,13.09-7.17,19.13-11.25.79-.53,1.55-1.12,2.26-1.75.71-.64,1.37-1.32,1.99-2.05,2.54-3.07,4.07-7.09,4.63-11.02.77-5.41.44-11.04.41-16.5ZM914.77,519.81c-.74,4.09-2.21,7.69-5.23,10.64-4.91,4.79-25.8,15.66-33.16,20.16l-102.25,62.43-297.6,181.74c-31.47,19.88-63.11,39.47-94.93,58.77-9.78,6.01-35.7,24.01-45.03,26.15-2.18.5-4.35.47-6.57.45-4.64-.23-9.17-1.31-12.88-4.22-7.6-5.98-17.59-18-24.89-25.4l-62.7-63.6c-27.15-27.52-53.98-55.45-81.39-82.69l-37.08-37.07c-6.5-6.5-13.41-12.69-19.44-19.65-3.52-4.06-5.63-7.86-6.15-13.32-.95-9.9-.26-20.47-.27-30.43l-.04-59.99c-.04-13.01-.04-26.04-.25-39.05-.11-6.64-.96-13.84-.18-20.42.64-5.42,2.82-10.15,6.33-14.34,5.08-6.08,21.53-14.13,29.03-18.62l34.69-20.9,133.05-80.59,235.52-143.68,77.55-47.06c18.55-11.35,36.94-23.19,55.78-34.04,4.65-2.68,8.81-4.22,14.17-4.67,6.1.08,11.61,2.46,16.03,6.65,7.69,7.3,17.63,22.95,24.36,32.13,15.29,20.89,30.75,41.65,46.38,62.3l112.69,149.51,28.53,37.53c3.92,5.11,8.36,9.94,11.93,15.3,3.51,5.27,5.02,10.61,5.1,16.94.17,13.81-.34,27.72-.32,41.56.02,10.84,1.08,27.3-.77,37.49Z"/><path d="M915.86,440.76c-.08-6.33-1.59-11.68-5.1-16.94-3.57-5.36-8.01-10.18-11.93-15.3l-28.53-37.53-112.69-149.51c-15.62-20.65-31.08-41.41-46.38-62.3-6.73-9.18-16.67-24.83-24.36-32.13-4.42-4.19-9.93-6.58-16.03-6.65-5.36.45-9.52,1.99-14.17,4.67-18.84,10.85-37.23,22.69-55.78,34.04l-77.55,47.06-235.52,143.68-133.05,80.59-34.69,20.9c-7.5,4.49-23.95,12.54-29.03,18.62-3.5,4.19-5.68,8.92-6.33,14.34-.78,6.58.07,13.78.18,20.42.22,13.01.21,26.04.25,39.05l.04,59.99c0,9.97-.69,20.53.27,30.43.52,5.46,2.63,9.26,6.15,13.32,6.03,6.95,12.93,13.15,19.44,19.65l37.08,37.07c27.41,27.25,54.24,55.17,81.39,82.69l62.7,63.6c7.31,7.39,17.29,19.42,24.89,25.4,3.71,2.91,8.24,3.99,12.88,4.22,2.22.02,4.39.04,6.57-.45,9.33-2.14,35.25-20.14,45.03-26.15,31.82-19.3,63.47-38.89,94.93-58.77l297.6-181.74,102.25-62.43c7.36-4.5,28.26-15.37,33.16-20.16,3.03-2.95,4.49-6.55,5.23-10.64,1.85-10.18.79-26.64.77-37.49-.02-13.84.49-27.75.32-41.56ZM911.71,522.48c-1.07,2.84-2.71,5.25-5.12,7.1-7.13,5.44-16.04,9.75-23.77,14.34l-41.82,25.17-123.6,75.39-159.63,97.57c-27.71,16.91-55.64,33.54-83.14,50.78-31.9,20.15-63.97,40.02-96.21,59.61-7.63,4.74-15.23,9.53-22.8,14.36-4.86,3.08-9.93,6.66-15.24,8.92-5.38,2.29-13.55,2.17-19-.1-2.44-1.02-4.31-2.64-6.16-4.47-7.99-7.88-15.31-16.47-23.21-24.45l-105.01-106.63-56.08-56.56c-11.95-11.9-24.35-23.59-35.89-35.88-2.48-2.64-4.38-5.26-5.77-8.63-.8-2.84-1.09-5.79-1.46-8.72,5.17,8.49,12.45,14.73,19.43,21.68,7.21,7.31,14.49,14.54,21.86,21.69,15.9,15.63,31.62,31.57,47.21,47.51l101.17,103.2c8.07,8.15,16.27,16.19,24.26,24.43,5.21,5.37,10.44,11.75,16.34,16.33,5.14,3.99,12.68,4.42,18.91,3.4,5.11-.84,9.7-3.34,14.1-5.96,7.38-4.41,14.35-9.48,21.68-13.97,28.95-17.38,57.71-35.06,86.28-53.04l191.05-117.38,186.3-113.41,48.08-28.78c6.45-3.86,13.11-7.49,19.41-11.58,3.71-2.41,6.22-5.12,8.79-8.69.47,2.11-.21,4.83-.95,6.8ZM912.63,507.93c-.95,4.15-3.62,8.07-6.47,11.18-3.53,3.85-28.82,17.77-34.61,21.25l-87.98,53.2-293.02,178.91c-39.95,24.51-79.45,49.7-119.65,73.82-8.4,5.04-16.1,11.22-24.75,15.87-2.93,1.58-5.96,2.82-9.25,3.42-1.64.31-3.36.54-5.03.53-4.16-.01-8.97-.87-12.33-3.45-6.34-4.87-14.63-14.43-20.59-20.47l-45.57-46.36c-51.39-53.1-103.37-105.62-155.95-157.56-4.47-4.46-6.86-8.17-8.5-14.31-2.37-8.89-1.2-19.4-1.19-28.59l.07-34.6-.03-61.23c38.7,50.82,77,101.94,114.89,153.36l81.58,110.89c6.86,9.13,23.04,33.93,31.29,39.4,6.76,4.49,17.33,4.04,24.95,2.46,1.59-.33,3.15-.77,4.68-1.31,1.53-.54,3.02-1.19,4.47-1.93,6.75-3.43,13.08-8.28,19.56-12.24l51.92-31.86,213.84-131.18,207.85-127.24c11.41-7.05,22.78-14.23,34.36-21.01,8.87-5.2,18.05-9.98,26.67-15.57,3.66-2.37,6.57-5.29,8.94-8.94.07.46.11.66.13,1.18.39,8.22,0,16.61.04,24.85.04,7.42,1.17,20.95-.33,27.5ZM907.79,455.86c-6.35,7.45-25.92,16.86-35.15,22.48l-63.63,38.8-238.74,146.12c-51.96,32.31-104.14,64.27-156.52,95.9l-48.22,29.84c-5.51,3.39-10.81,7.24-16.44,10.4-5.41,3.04-10.83,3.9-16.94,4.36-4.82.46-10.67-.42-14.87-2.83-5.08-2.92-14.64-16.83-18.68-22.17L90.49,498.44c-1.26-1.7-2.41-3.42-2.91-5.51-1.47-6.15.26-12.86,3.44-18.16,2.13-3.55,4.8-6.12,8.3-8.31,8.63-5.41,17.7-10.26,26.47-15.47l61.11-36.75,267.22-162.59,141.87-86.24,44.77-27.58c8.16-4.95,17.99-12.57,27.15-14.87,5.94-.48,10.94.8,15.61,4.64,7.11,5.83,12.56,15.29,18.03,22.65,12.66,17.06,24.96,34.43,37.76,51.37l127.47,169.13c13.4,17.96,28.16,35.16,41.01,53.5,2.97,4.24,5.5,8.89,5.93,14.15.49,6-2.01,12.87-5.91,17.45Z"/><path d="M884.39,430.06c-.85-3.38-2.85-6.42-4.83-9.24-9.37-13.4-19.55-26.3-29.36-39.39l-57.18-76.35-68.97-91.86c-15.11-20.32-29.72-41.11-45.23-61.13-1.37-1.77-3.02-3.87-4.98-4.98-2.23-1.26-4.71-1.3-7.19-1.24-6.8,2.61-13,7.3-19.18,11.1l-24.67,14.98-97.31,59.22-265.16,161.44-102.01,62.11c-10.52,6.45-21.22,12.63-31.65,19.22-3.44,2.18-6.25,4.47-7.97,8.29-.11.23-.21.47-.3.71-.1.24-.18.48-.27.72-.08.24-.16.49-.23.73-.07.25-.13.49-.19.74-.06.25-.11.5-.15.75-.04.25-.08.5-.11.76-.03.25-.05.51-.07.77-.02.25-.03.51-.03.77,0,.25,0,.51,0,.77,0,.26.03.51.05.77.02.26.05.51.09.76.04.25.08.5.13.76.05.25.11.5.17.75.06.25.13.5.21.74.08.25.16.49.25.73.09.24.18.48.28.71,2.81,6.63,12.45,17.74,17.05,23.85,8.43,11.24,16.77,22.56,24.99,33.96l112,152.62,31.77,43.44c4.95,6.74,9.78,13.65,15.01,20.18,2.26,2.82,4.82,5.41,8.26,6.75,2.85,1.11,5.79,1.14,8.8,1.13,3.1-.42,5.07-1,7.8-2.63,30.51-18.3,60.34-37.83,90.72-56.38,115.07-69.58,229.68-139.9,343.83-210.98l66.82-40.11c7.37-4.39,30.81-16.35,35.08-21.47.37-.45.61-.94.89-1.45,2.3-4.17,4.08-8.16,2.85-13.03ZM878.59,442.05c-1.18,1.42-2.53,2.79-4.05,3.85-7.87,5.52-17.57,9.94-25.96,14.85-19.8,11.57-39.6,23.26-59.18,35.21l-319.34,195.95-80.85,49.82c-11.27,7.08-22.48,14.2-33.85,21.13-5.03,3.06-10.07,6.53-15.33,9.13-1.83.91-3.56,1.12-5.58,1.31-2.33-.14-4.66-.58-6.76-1.66-3.03-1.56-5.35-4.36-7.41-7.01-14.15-18.22-27.41-37.29-41.08-55.89l-73.98-100.61c-15.91-21.78-31.5-43.85-47.58-65.5l-20.35-27.31c-4.55-6.03-9.36-11.96-13.62-18.18-1.26-1.84-2.43-3.81-3.03-5.97-.86-3.1-.22-5.91,1.32-8.68.99-1.78,2.04-3.19,3.66-4.42,3.55-2.69,7.78-4.84,11.61-7.14l20.24-12.26,74.82-45.4,358.81-218.25c17.58-10.48,34.91-21.42,52.37-32.1,6.31-3.86,17.76-11.96,24.3-13.94,1.74.15,3.61.24,5.08,1.29,4.03,2.87,13.96,17.69,17.37,22.28l42.31,57.4,88.9,118.21c18.42,24.4,37.38,48.67,55.04,73.62,2.18,3.07,4.85,6.92,5.26,10.74.4,3.71-.79,6.71-3.14,9.54Z"/><path d="M862.82,430.73c-.34-2.76-2.96-4.75-4.87-6.51l-.06-6.89c-3.88-6.6-11.02-13.34-16.1-19.24-3.64-4.23-7.01-8.94-10.98-12.84-1.24-1.22-2.52-2.43-4.22-2.93-5.55,1.23-25.35,14.46-31.58,18.24-.72,1.85-.68,4.32-1.91,5.89-.94,1.2-3.36,1.37-4.79,1.63l1.14-5.64c-4.27-7.1-18.02-20.24-24.27-27.21,7.28-4.67,32.88-18.79,37.03-23.08.68-.7.72-.85.65-1.83-.35-4.91-27.56-37.83-32.24-42.07l-2.98,1.87c.05-3.3.04-6.61-.01-9.92-2.86-4.94-25.09-32.15-28.88-33.04-2.91-.68-28.63,16.15-33.25,18.81-1.15,3.08-1.56,6.19-1.94,9.43-1.76-1.85-3.53-3.31-5.8-4.49-6.63,2.86-28.48,15.79-33.69,20.39-.77,3.07-1.2,6.29-1.76,9.41-1.68-1.83-3.32-3.4-5.29-4.91-11.18,5.96-22,12.76-32.81,19.37-1.25,3.64-2.03,7.32-2.83,11.08-1.8.99-4.58,2.17-5.57,4.03,2.6,3.97,30.82,36.04,32.76,36.8l4.23-1.7c.5-5.47.89-10.95,1.18-16.44,8.87-5.67,19.26-12.41,28.64-16.99.49,2.7.95,5.42,1.38,8.13-9.95,5.36-19.24,11.95-29.3,17.1-.25,2.77-.71,5.48-1.18,8.22-.76,2.57-1.55,3.88-3.42,5.74.43,1.18.92,2.12,1.67,3.12,4.26,5.66,9.45,10.7,14.09,16.05,3.98,4.59,7.64,9.66,11.85,14.02,1.09,1.13,2.22,2.1,3.54,2.94,3.8.33,36.4-20.34,42.45-23.77l.17,5.16c6.64,8.54,14.17,16.39,20.84,24.93-7.18,4.19-17.6,9.27-23.79,14.43-1.62,1.35-2.43,3.31-3.9,4.77-1.22,1.2-2.8,2-4.04,3.22-2.83,2.78-2.03,8.42-2.03,12.14,7.65,6.81,14.88,15.23,21.6,23,3.78,4.36,7.52,9.39,12.05,12.99,10.01-3.44,24.98-14.82,34.76-20.62,12.75-7.56,26.79-13.95,38.68-22.87,0-1.53-.19-3.36.38-4.79,1.26.19,2.1,1.33,3.05,2.18,6.87-3.39,36.3-19.83,40.35-24.21.8-.87,1.14-1.9,1-3.09ZM791.17,410.6c3.15,3.54,6,7.34,9.07,10.95,4.58,5.4,9.34,10.65,13.76,16.2-9.53,5.28-18.43,11.6-28,16.81-3.73-3.23-20.15-23.17-22.76-27.48,7.12-5.36,19.84-11.85,27.93-16.48ZM759.27,426.99c-.45,3.94-.81,7.88-1.1,11.83l-2.64-3.2c1.12-4.46,1.31-8.82,1.32-13.4,9.42-3.71,19.59-11.06,28.31-16.39.84.71,1.24,2.52,1.63,3.59-6.51,3.34-22.41,12.54-27.54,17.57ZM785.56,401.94c-9.15,5.64-18.27,11.38-27.67,16.6l-.82.26c-3.85-.95-21.02-23.03-25.42-27.49l27.85-16.46c2.68.35,22.89,23.61,26.07,27.09ZM795.44,344.35c1.66,1.41,3.28,3.45,4.21,5.41l-.32.83c-.76.52-1.52,1.16-2.47,1.22-.59.04-.77-.32-1.18-.68-.72-2.07-.32-4.61-.24-6.78ZM764.33,302.91c.83,1.87.1,6.51.13,8.77-9.75,5.29-19.2,11.45-28.72,17.15l-.58-.13c-.88-1.86.69-7.89.93-10.3,9.41-4.75,18.17-10.71,27.5-15.64l.74.15ZM737.89,270.16c.15.01.3,0,.45.04,2.4.5,21.71,24.86,24.8,28.73-8.95,5.54-18.09,11.04-27.39,15.98-2.58-.38-22-24.89-24.67-28.46,8.61-5.87,17.76-11.12,26.8-16.28ZM707.99,288.57c3.25,2.79,6.03,6.75,8.79,10.06l16.31,19.6c-.49,3.08-.47,11.89-2.39,13.65-.92.62-1.53,1.07-2.64,1.28-1.68-2-.79-7.38-.85-10.09-7.15-7.56-13.69-15.92-20.5-23.82.31-3.57.74-7.13,1.29-10.67ZM724.25,335.49c-10.04,6.42-20.42,12.71-30.75,18.65-.03-.02-.06-.04-.08-.07-1.19-1.9.72-8.47,1.2-10.83,9.75-5.35,19.4-10.87,28.94-16.57l.3.27c.79,2.39.38,5.99.39,8.55ZM697.23,294.44c2.95.78,21.8,24.41,25.59,28.56-8.69,6.22-19.33,11.87-28.79,16.91h-.69c-3.08-2.54-5.77-6.51-8.36-9.57-5.35-6.32-10.7-12.6-16.38-18.63,9.27-6.15,19.06-11.62,28.64-17.27ZM649.4,383.26l-.57.06c-8.78-9.5-17.38-19.43-25.79-29.27,1.54-5.03,1.55-10.46,3.38-15.36,2.68,2.2,5.05,5.6,7.31,8.24,5.98,6.98,11.86,14.04,17.63,21.19-.22,4.46-.14,11.14-1.97,15.14ZM654.02,365.25c-1.72-.24-22.29-25.43-25.16-28.86,8.12-6.56,18.35-11.55,27.43-16.71,5.04,3.11,20.92,23.62,25.45,29.35-9.48,4.97-18.6,10.62-27.73,16.21ZM665.98,325.11c.02-3.54.09-6.83,1.23-10.23,3.44,2.85,6.42,6.84,9.33,10.23,4.95,5.79,9.99,11.54,14.61,17.59-.73,4.59-1.28,9.16-1.76,13.77l-1.53.74c-2.06-.53-1.85-5.63-2.34-7.51-1.24-4.79-15.39-19.8-19.55-24.6ZM678.48,420.64c-7.34-9.69-15.82-18.83-23.73-28.08,1.25-4.36,1.87-8.92,2.88-13.34,5.35,3.68,18.19,19.64,23.31,25.47-.61,4.14-.72,12.35-2.46,15.95ZM661.22,377.3c6.35-4.53,13.34-8.3,20.06-12.26l22.35-13.46c22.06-13.13,43.97-26.71,66.39-39.19,3.32,1.67,18.04,21.29,21.26,25.5-13.37,8.94-27.58,16.72-41.34,25.07-22.1,13.4-44.01,27.14-66.64,39.63-7.29-8.49-14.65-16.92-22.08-25.28ZM724.59,399.31c-13.63,8.38-27.57,16.27-41.37,24.38l-.89.32-.59-.37c-.41-3.74,1.72-13.18,2.17-17.73,36.44-20.95,72.13-43.13,108.35-64.46,1.12,3.2.37,8.77,1.31,12.72-6.62,4.32-13.47,8.3-20.25,12.35-2.94,1.75-6.38,4.27-9.56,5.46-1.33.5-2.22-.28-3.43-.83-2.26.15-29.85,16.98-34.57,19.59-.61,2.82-.85,5.71-1.18,8.57ZM739.73,422.74l-12.67-15.08c.44-4.68.08-9.8,1.3-14.34,2.41.93,22.91,24.86,25.44,28.1,0,3.52-.32,7.06-.54,10.58-1.89-.2-3.82-.16-5.73-.33-2.89-2.58-5.32-5.96-7.81-8.93ZM743.64,498.59l-.41.03-1.8-2.12c-3.16-4.11-7.01-8.01-10.47-11.9-5.52-6.21-10.97-12.54-16.76-18.49l.25-6.99,5.41-4.74c3.82,2.3,20.16,21.94,24.47,26.73.32,5.81-.08,11.71-.69,17.49ZM722.16,451.41c5.93-5.27,19.98-12.89,27.33-17.04.77.21,1.29.52,1.85,1.08,2.73,2.74,5.1,6.08,7.64,9.02,5.07,5.86,10.32,11.55,15.3,17.49-9.17,5.34-18.36,10.65-27.21,16.51-2.62-1.1-21.17-23.02-24.92-27.06ZM748.32,499.12l-1.08.62-.41-.22c.89-6.02.98-11.76,1.02-17.84,8.6-6.3,18.41-11.44,27.61-16.84.06.04.13.07.18.12.02.02.6.8.61.84.67,1.49-.03,4.65-.04,6.32-.01,2.86.88,5.63.89,8.52-2.97,3.71-23.18,14.8-28.79,18.48ZM780.95,475.67c-.39.41-.12.23-.9.35-1.61-3.76.76-9.61-1.4-13.06-.1-.17-.22-.33-.33-.49-4.78-7.57-11.64-13.88-17.49-20.65.32-3.45.52-6.97,1.18-10.36,7.58,7.85,14.98,16.83,21.52,25.57-.97,6.2-1.64,12.44-2.59,18.65ZM814.64,459.51l-30.59,18.33-.49-.08c.24-1.96.76-3.88,1.05-5.84.7-4.76,1.02-9.49,1.99-14.21,9.2-5.82,18.82-11.03,28.09-16.75.43.06.15-.02.71.48.41,6-.28,12.1-.77,18.07ZM821.01,453.02c-1.13-.1-1.25-.32-2.13-1.07-1.69-3.64-.72-9.69-.56-13.69-6.77-9.86-16.15-17.88-22.65-27.95l1.3-6.45c3.83,2.7,21.59,24.67,25.46,29.8-.77,6.42-.66,12.93-1.42,19.37ZM799.59,401.37c9.08-5.15,17.78-10.93,26.87-16.06,3.01,1.75,22.84,25.91,26.26,30.3-9.15,4.74-17.82,10.34-27.01,15.01l-.54.19c-3.86-1.5-20.68-24.52-25.57-29.44ZM854.52,435.33c-9.77,6.49-20.24,12.09-30.19,18.34l-.35-.4c.74-6.37.89-12.79,1.63-19.17,9.31-5.46,19.09-10.31,28.49-15.68,1.17,1.51.46,14.13.42,16.9Z"/><path d="M785.17,405.84c-8.72,5.33-18.89,12.67-28.31,16.39-.02,4.58-.21,8.94-1.32,13.4l2.64,3.2c.28-3.95.65-7.89,1.1-11.83,5.13-5.03,21.02-14.23,27.54-17.57-.39-1.07-.8-2.88-1.63-3.59Z"/><path d="M760.84,441.81c5.84,6.77,12.7,13.08,17.49,20.65.11.17.22.33.33.49,2.16,3.45-.21,9.3,1.4,13.06.77-.12.51.06.9-.35.95-6.2,1.62-12.45,2.59-18.65-6.54-8.74-13.93-17.72-21.52-25.57-.67,3.4-.86,6.92-1.18,10.37Z"/><path d="M684.02,360.09c-.43-2.72-.89-5.43-1.38-8.13-9.38,4.58-19.77,11.32-28.64,16.99-.29,5.49-.69,10.96-1.18,16.44l.72.03c.47-2.74.92-5.45,1.18-8.22,10.05-5.15,19.35-11.74,29.3-17.1Z"/><path d="M735.16,328.71l.58.13c9.52-5.7,18.97-11.86,28.72-17.15-.04-2.26.7-6.9-.13-8.77l-.74-.15c-9.33,4.93-18.09,10.89-27.5,15.64-.24,2.41-1.81,8.44-.93,10.3Z"/><path d="M694.62,343.24c-.48,2.37-2.39,8.94-1.19,10.83.02.03.05.05.08.07,10.34-5.94,20.71-12.23,30.75-18.65,0-2.56.4-6.16-.39-8.55l-.3-.27c-9.55,5.7-19.19,11.22-28.94,16.57Z"/><path d="M687.87,357.22l1.53-.74c.48-4.62,1.02-9.19,1.76-13.77-4.62-6.06-9.66-11.81-14.61-17.59-2.91-3.39-5.89-7.38-9.33-10.23-1.14,3.4-1.22,6.69-1.23,10.23,4.16,4.8,18.31,19.81,19.55,24.6.49,1.88.27,6.98,2.33,7.51Z"/><path d="M728.07,333.15c1.11-.21,1.72-.66,2.64-1.28,1.93-1.76,1.9-10.57,2.39-13.64l-16.31-19.6c-2.77-3.31-5.54-7.27-8.79-10.06-.55,3.54-.98,7.1-1.28,10.67,6.81,7.89,13.35,16.26,20.5,23.82.06,2.71-.83,8.09.86,10.09Z"/><path d="M657.63,379.22c-1.01,4.43-1.63,8.99-2.88,13.34,7.92,9.25,16.39,18.39,23.73,28.08,1.74-3.6,1.85-11.81,2.46-15.95-5.13-5.83-17.97-21.79-23.32-25.47Z"/><path d="M747.54,431.67c1.91.17,3.83.13,5.73.33.22-3.51.54-7.06.54-10.58-2.53-3.24-23.03-27.17-25.44-28.09-1.22,4.53-.86,9.65-1.3,14.33l12.67,15.08c2.49,2.97,4.92,6.34,7.81,8.93Z"/><path d="M626.42,338.68c-1.83,4.91-1.84,10.33-3.38,15.37,8.41,9.84,17.01,19.76,25.79,29.27l.57-.06c1.83-4,1.75-10.68,1.96-15.14-5.77-7.15-11.65-14.22-17.63-21.19-2.27-2.65-4.63-6.04-7.31-8.24Z"/><path d="M776.26,465.8s-.59-.82-.61-.84c-.05-.05-.12-.08-.18-.13-9.2,5.4-19.01,10.54-27.61,16.84-.04,6.07-.13,11.82-1.02,17.84l.41.22,1.08-.62c5.61-3.68,25.82-14.77,28.79-18.48,0-2.88-.9-5.66-.89-8.52,0-1.68.71-4.83.04-6.32Z"/><path d="M719.86,454.38l-5.41,4.74-.25,6.99c5.8,5.96,11.24,12.28,16.76,18.49,3.46,3.89,7.31,7.79,10.47,11.9l1.8,2.13.41-.03c.61-5.78,1-11.68.69-17.49-4.31-4.78-20.65-24.43-24.47-26.73Z"/><path d="M814.7,440.96c-9.28,5.72-18.89,10.93-28.09,16.75-.97,4.72-1.29,9.46-1.99,14.21-.29,1.96-.82,3.88-1.05,5.84l.49.08,30.59-18.33c.49-5.98,1.18-12.08.77-18.07-.57-.5-.29-.42-.71-.49Z"/><path d="M763.76,371.96c3.18-1.19,6.61-3.7,9.56-5.46,6.79-4.04,13.64-8.02,20.25-12.35-.94-3.95-.19-9.52-1.31-12.72-36.22,21.33-71.9,43.52-108.35,64.46-.46,4.55-2.58,14-2.17,17.73l.59.37.89-.32c13.8-8.1,27.74-15.99,41.37-24.38.33-2.86.57-5.76,1.18-8.57,4.72-2.61,32.31-19.45,34.57-19.59,1.21.55,2.1,1.32,3.43.83Z"/><path d="M722.52,245.3c-3.96-6.01-31.99-43.97-36.4-45.65-24.13,13.86-48.07,28.05-71.81,42.58l-21.02,12.57c-4.23,2.51-8.81,4.86-12.71,7.84-.6,4.05-1.35,8.13-1.76,12.2-10.84,5.54-21.25,12.43-31.64,18.77l-52.7,32.19-172.67,106.22-95.28,58.22c-15.31,9.05-30.5,18.3-45.55,27.77-6.11,3.79-14,7.48-19.05,12.54,3.92,8.78,11.25,17.14,16.85,24.93,4.23,5.88,8.16,12.68,13.22,17.87,2.02-.95,4.02-1.85,5.91-3.04l295.41-181.7c41.91-26.11,84.11-51.74,126.61-76.88,30.44-18.44,61.06-36.56,91.86-54.36,2.49-1.41,10.99-5.31,11.64-7.91.39-1.57-.07-2.85-.92-4.15ZM689.19,206.73c2.75,2.7,5.16,6.41,7.52,9.48l14.84,19.44c-8.65,4.91-17.07,10.31-25.57,15.47-16.01,9.79-32.1,19.44-48.28,28.96-7.71,4.52-15.34,10.12-23.44,13.86-4.67-5.79-9.3-11.61-14.06-17.33-3.05-3.67-6.31-7.17-9.19-10.97,21.71-13.66,43.96-26.59,66.04-39.64,10.75-6.36,21.21-13.23,32.15-19.26ZM585.7,262.36c2.81-1.92,6.06-3.41,8.99-5.2,8.78-5.45,17.61-10.83,26.49-16.13,21.1-12.68,42.03-25.6,63.38-37.88.19.02.38.01.56.06,1.08.3,1.45.6,2.07,1.46-1.44,2.13-66.98,40.12-74.5,44.62-7.96,4.76-15.75,9.98-23.86,14.48l-3.16-1.15.02-.26ZM168.7,536.2c-1.46-1.19-2.16-3-3.01-4.64,4.95-3.93,10.83-7.1,16.2-10.42,10.77-6.65,21.6-13.22,32.47-19.71l85.7-52.34,193.15-118.68c29.1-17.68,57.77-36.22,87.46-52.9,1.72,1.43,2.97,3.04,4.31,4.81-13.86,7.24-27.1,16.16-40.54,24.19-36.08,21.69-71.99,43.65-107.73,65.89l-154.78,95.24c-37.38,22.85-75.22,45.07-112.19,68.56h-1.04ZM170.96,539.57c8.91-6.25,18.31-11.72,27.59-17.39,13.39-8.3,26.85-16.5,40.36-24.61l100.17-61.39,163.71-100.61c27.86-16.98,55.43-34.84,83.96-50.65,1.67,1.61,2.92,3.27,4.24,5.17-11.35,7.35-23.28,13.98-34.88,20.94l-61.12,37.11-207.07,127.42-73.27,44.78-23.64,14.32c-5.36,3.25-10.96,6.38-15.93,10.2-1.49-1.05-2.98-3.75-4.1-5.28ZM176.94,547.49c6.02-4.55,12.78-8.29,19.23-12.21l29.65-18.08,96.65-59.16,157-96.53c37.56-23.52,75.47-46.45,113.75-68.77,1.77,1.06,3.25,3.62,4.47,5.27-19.87,11.27-39.22,23.51-58.73,35.37-30.48,18.15-60.77,36.62-90.87,55.4l-266.91,163.83c-1.55-.85-3.14-3.66-4.24-5.12ZM182.68,555.36c13.9-8.08,27.5-16.73,41.22-25.13,25.78-15.6,51.45-31.37,77.01-47.33l180.89-111.04,67.95-41.46c16.71-10.25,33.43-21.01,50.75-30.18,1.49,1.62,2.82,3.58,4.18,5.31-96.13,57.75-191.78,116.29-286.96,175.61l-92.51,56.81c-7.65,4.77-15.33,9.48-23.05,14.15-4.96,2.96-10.37,5.68-14.98,9.14l-4.51-5.87ZM537.97,357.17l-153.3,93.75-134.73,83.47c-18.85,11.57-37.38,24.13-56.69,34.89-1.91-.91-3.51-4.11-4.67-5.85,7.77-3.9,15.19-8.78,22.6-13.34l30.79-18.82,96.3-59.39,267.7-163.54c1.83.39,3.74,3.37,4.9,4.81-24.14,14.92-48.62,29.33-72.9,44.03ZM611.14,308.34l-.13.22c-.19-.04-.41-.01-.58-.12-1-.63-5.37-7.59-6.43-8.93-3.6-4.52-7.75-8.63-11.51-13.03-3.38-3.94-6.41-8.12-9.98-11.91-.08-3.28.29-6.57.57-9.84,1.51.51,2.86,1.04,4.09,2.09,3.44,2.97,6.43,7.11,9.36,10.6,5.43,6.54,10.93,13.03,16.51,19.45-.97,3.79-1.52,7.57-1.9,11.46ZM683.8,270.01c-21.68,12.57-43.21,25.4-64.59,38.47l-5.53,3.45c.75-4.9,1.66-9.82,2.02-14.76,10.8-7.18,22.24-13.55,33.34-20.28,21.29-13.07,42.74-25.87,64.36-38.38,2.74,3.01,5.05,6.71,7.15,10.19-12.37,6.89-24.51,14.19-36.76,21.31Z"/><path class="f" d="M612.69,249.29c7.51-4.49,73.06-42.49,74.5-44.62-.62-.86-.99-1.15-2.07-1.46-.18-.05-.37-.04-.56-.06-21.35,12.28-42.28,25.2-63.38,37.88-8.88,5.3-17.7,10.68-26.49,16.13-2.93,1.79-6.18,3.28-8.99,5.2l-.03.26,3.16,1.15c8.1-4.5,15.89-9.72,23.86-14.48Z"/><path d="M592.5,286.49c3.76,4.39,7.91,8.5,11.51,13.03,1.06,1.33,5.42,8.3,6.43,8.93.17.1.38.08.58.11l.13-.22c.39-3.89.94-7.67,1.9-11.46-5.58-6.42-11.08-12.9-16.51-19.45-2.93-3.48-5.92-7.62-9.36-10.6-1.22-1.05-2.58-1.58-4.09-2.09-.27,3.26-.65,6.56-.57,9.84,3.57,3.79,6.6,7.97,9.98,11.91Z"/><path d="M615.7,297.17c-.36,4.94-1.27,9.87-2.02,14.76l5.53-3.46c21.38-13.07,42.91-25.9,64.59-38.47,12.25-7.11,24.38-14.42,36.76-21.31-2.1-3.49-4.41-7.18-7.15-10.19-21.62,12.52-43.08,25.31-64.36,38.38-11.1,6.73-22.54,13.1-33.34,20.28Z"/><polygon points="279.1 665.02 279.5 664.55 279.05 664.8 279.1 665.02"/><path d="M724.98,499.3c-1.43-4.75-23.09-26.74-28.18-31.7-1.61-.09-3.4.02-4.77-.92-1.1-1.57-.89-3.8-1.05-5.66-7.05-9.53-16.72-17.04-24.32-26.11-2.77-3.3-2.1-7.37-4.21-10.71-2.42-3.82-26.33-30.41-29.52-32.25-1.37-.08-2.7-.08-3.99-.58-.94-3.19.19-6.71-1.4-9.78-1.13-2.17-25.47-30.22-26.94-31.07-.35-.2-.47-.23-.88-.38-5.13,2.38-27.96,15.85-31.31,19.09-1.27,1.23-1.83,3.15-2.5,4.75-.33.8-.15.5-.7,1.1l-.51-.25c-1.17-.56-2.03-1.06-3.37-.96-5.84,2.65-11.36,6.44-16.89,9.7-5.11,3.01-10.83,5.73-15.43,9.48-1.07.87-1.94,1.9-2.45,3.18-.64,1.58-.88,3.38-1.16,5.05-1.17-1.02-2.32-2.08-3.57-3-6.55,1.77-26.54,15.29-34.15,19.68-1.38,2.84-2.34,5.59-3.17,8.64-1.56-1.38-3.04-2.4-4.88-3.36-5.36,2.48-31.98,17.22-33.71,21.39-.91,2.22-1.21,4.72-1.98,7l-3.69-3.63c-5.97,3.3-31.83,17.47-35.18,21.34-1.68,1.94-2.73,5.36-3.6,7.77-1.3-1.44-2.47-2.73-4.08-3.84-6.46,2.69-25.17,14.3-31.11,18.71l-1.09,4.13c-2.14,1.24-4.17,2.48-6.16,3.97-1.06-.85-1.86-1.7-3.29-1.71-4.97,1.77-27.48,15.66-31.54,19.21-.99,3.1-1.81,6.43-4.92,8.08-.14.07-.29.13-.43.19-1.18-.66-2.65-1.94-4.03-1.53-3.26.96-30.41,17.58-31.32,19.62-.56,1.26-.52,2.97-.58,4.33l-4.58,3.79c-1.39-.9-2.77-1.84-4.2-2.68-7.14,3.33-13.92,7.86-20.68,11.9-4.98,2.98-10.61,5.79-15.11,9.44-.73,1.98-1.44,3.96-2.04,5.98-4.06,2.53-14.87,9.63-16.36,13.92.78,3.29,11.27,15.3,14.06,19.05l102.11,135.17c1.71,2.28,3.36,4.65,5.18,6.83l278.42-169.68c19.03-11.68,37.94-23.55,57.16-34.91,11.44-6.76,22.7-13.58,33.91-20.7,5.08-3.22,10.61-6.31,15.26-10.13-.14-5.27.42-11.93-1.1-16.97ZM686.53,460.47l-34.93,20.67c-11.26,6.75-22.5,13.68-34.13,19.78l-.99.45c-2.99-.91-18.46-21.13-22.34-25.15,8.07-5.58,16.83-10.5,25.25-15.53,14.29-8.55,28.64-17.01,43.03-25.38,3.9,2.44,20.08,20.57,24.11,25.17ZM402.07,635.69c-2.25-3.8-5.58-7.22-8.42-10.59-4.41-5.23-8.78-10.46-12.91-15.91,1.42-1,2.8-2.05,4.19-3.09,3.47.45,20.51,23.58,26.39,27.75,9.58-6.79,19.81-12.85,29.75-19.13l.24,7.63-4.64,3.06c-7.47,4.78-15.2,9.16-22.86,13.63-3.86,2.25-8.24,4.35-11.71,7.17.1-3.52.1-7-.02-10.52ZM284.1,603.25c-2.88-.1-11.67,6.99-14.82,8.77l-.63.35c.19-3.5.31-7.01.37-10.52,10.19-5.81,20.3-11.76,30.31-17.87,1.7,1.47,1.99,5.75,2.42,7.94-3.37,2.24-7.01,3.99-10.1,6.64-.54,3.07-1.79,6.12-2.69,9.13.06.06.12.12.17.18,1.68-1.71,3.13-3.5,4.6-5.42,5.37,5.54,10.47,11.62,15.42,17.54,2.19,2.62,4.21,5.66,6.62,8.05.8.79,1.84,1.49,2.97,1.68,1.17.2,2.37-.18,3.42-.66,3.87-1.77,7.59-4.75,11.16-7.07,5.04-3.24,10.13-6.39,15.26-9.48.55,2.71.91,5.28,1.04,8.05-5.52,3.51-11.18,6.81-16.78,10.19-6.64,4.17-13.23,8.57-20.13,12.29-.42-2.8-.6-5.63-.83-8.45-3.98-5.06-15.31-19.02-22.75-26.72-.11.11-.21.22-.33.33.05-.17.1-.34.15-.51-1.98-2.04-3.67-3.62-4.86-4.45ZM324.35,581.46c3.16,2.25,21.02,23.7,24.08,27.69-9.64,5.82-19.22,11.74-28.74,17.77-4.46-3.22-19.21-21.73-24.18-27.17l28.83-18.29ZM312.09,647.08c9.67-5.96,19.41-11.82,29.21-17.56,11.4-6.71,22.38-14.13,34.09-20.3,2.21.59,19.96,22.71,22.81,26.15-13.86,7.72-27.31,16.05-40.91,24.2-13.19,7.73-26.3,15.61-39.32,23.63l-.3.13c-1.85-.86-18.57-22.52-21.78-26.15,5.12-3.77,10.77-6.81,16.2-10.1ZM369.71,556.05c2.08-1.47,4.25-2.83,6.38-4.23,3.18,1.78,20.85,24.83,24.91,29.38,5.51-2.1,10.82-5.8,15.82-8.89,5.24-3.23,10.51-6.4,15.82-9.51.37,2.47.42,4.98.54,7.48-2.64,1.65-5.55,3.28-7.73,5.52-.03.18-.07.37-.1.55-.58,3.74-1.86,4.62-4.61,7.03-1.06-1.07-2.18-2.09-3.28-3.14-7.39,4.69-15.07,9.01-22.59,13.51-.83-3.28-1.03-6.41-1.14-9.77-8.39-8.65-15.74-18.99-24.03-27.93ZM389.21,584.06l-28.63,17.29c-2.25-.54-21.23-24.36-23.77-27.75,8.89-6.39,18.87-11.87,28.3-17.44,4.09,2.83,20.71,23.25,24.1,27.91ZM587.4,416.7c-3.06,1.97-5.94,3.76-8.16,6.72-.19,1.11-.5,6.46-1.08,6.94-1.1-1.19-2.15-2.3-3.82-2.58-4.19-.71-8.98,3.31-12.32,5.5l-3.45,2.04c.02-3.01-.13-6-.3-9.01,9.66-4.75,19.15-10.74,28.18-16.6,1.21,1.18.9,5.32.95,6.99ZM607.34,462.6c-.06,1.41-.14,1.72-1.2,2.66-1.25.49-1.72.91-3.02.52-1.03-1.55-.62-4.78-.68-6.68-6.49-8.74-14.28-16.62-21.29-24.94.28-2.87.58-5.69,1.13-8.52,4.28,2.85,20.71,23.01,24.99,28.49-.04,2.8.19,5.68.06,8.46ZM613.49,517.74c-.26.52-.77.87-1.15,1.31-.5.17-1.04.3-1.56.44l-.66-.62c-.88-2.39-.65-5.12-.68-7.65-5.86-8.3-13.22-15.56-19.59-23.48.72-3.15.93-6.42,1.24-9.62,4.05,2.92,19.27,21.65,22.99,26.6-.26,2.88.43,10.97-.6,13.01ZM428.83,577.26c6.84-6,21.22-13.62,29.38-18.55.31.1.68.11.95.31,1.12.79,20.25,24.3,22.36,27.14-9.63,6.15-19.58,11.78-29.18,17.98-2.34-.73-20.4-23.03-23.51-26.88ZM451.29,616.63l-5.54,3.35-1,.34c-1.26-1.51-.96-6.91-1.04-8.95-6.8-8.84-14.51-16.89-21.29-25.72,1.88-1.25,3.59-2.84,5.33-4.28,3.41,2.85,6.18,7.09,9.12,10.47,4.8,5.52,10,10.81,14.49,16.58.21,2.78.13,5.42-.06,8.2ZM454.13,607.19c8.77-6.89,19.21-12.49,28.7-18.37,1.2,2.07.95,5.92,1.06,8.3-9.49,6.05-19.45,11.4-28.99,17.4l-.54-.05c-.37-2.36-.22-4.9-.24-7.29ZM464.42,559.95c1.91-1.13,3.73-2.44,5.56-3.68,7.05,5.67,13.74,14.89,19.62,21.86,1.7,2.01,3.5,4.82,5.5,6.43,1.83-.41,2.22-3.24,3.78-4.35,3.1-2.19,6.68-4.03,9.94-6,5.33-3.22,10.61-6.5,15.85-9.86.42,2.57.54,5.2.74,7.8l-5.3,3.35c-11.07,6.48-21.91,13.33-33.06,19.69l-1.59-9.82c-6.96-8.52-14.24-16.79-21.06-25.42ZM471.18,552.67c9.74-6.02,19.64-11.8,29.41-17.77,3.07,3,5.77,6.59,8.56,9.86,4.72,5.53,9.56,10.99,14.02,16.74-9.34,6.19-18.98,12.41-28.85,17.7-7.15-9.2-14.76-18.41-23.13-26.53ZM506.8,537.96l1.81-9.15c3.15,2.26,5.88,6.26,8.4,9.23,5.61,6.62,11.08,13.49,17.14,19.7.38,2.76.56,5.56.81,8.33l-3.24,2.25-3.16,1.99c-.15-2.07-.2-4.37-.81-6.35-3.06-10.01-15.27-17.47-20.95-25.99ZM511.81,526.85c9.63-5.03,18.96-11.52,28.22-17.26.12.02.24.01.36.04,4.04,1.01,21.13,22.52,23.93,26.74-8.9,6.41-18.82,11.63-28.13,17.43-.48.33-.16.17-1.04.27-8.23-8.49-15.66-18.21-23.33-27.23ZM560.17,494.08c-3.53,1.98-8.29,4.01-11.18,6.78-2.88,2.75-2.72,5.02-2.74,8.72-1-.93-2.48-2.28-3.83-2.64-3.72-.97-7.14,2.01-10.08,3.88-1.04.55-1.25.84-2.39.66-.46-.87-.61-1.45-.62-2.41,0-1.63-.16-3.23-.31-4.85,9.49-6.29,19.27-12.12,29.02-17.99,1.4,1.6,1.7,5.7,2.12,7.85ZM540.01,459c.68-3.53.9-7.18,1.27-10.76,3.22,2.67,6.09,6.63,8.75,9.85,5.76,6.95,11.3,14.16,17.6,20.62.42,3.37.74,6.76,1.1,10.14-.92.73-1.96,1.32-2.95,1.96-.81.6-1.31,1-2.33,1.14-1.02-1.37-.8-6.07-3.51-10.05-5.6-8.21-13.59-15.2-19.93-22.91ZM565.01,539.73c.98,1.86,1.22,5.05,1.63,7.16-9.46,5.61-18.65,11.69-28.12,17.32-1.11-1.25-1.15-5.28-1.37-7.07,9.17-5.98,18.71-11.35,27.85-17.41ZM548.89,512.44c.46-2.87.71-5.72,1.31-8.57,6.28,5.18,13.24,14.81,18.61,21.34,2.05,2.48,4.07,5.43,6.65,7.35.13,2.89.52,5.61,1.06,8.45l-3.04,1.72-4.03,2.27c-.33-2.3-.55-4.85-1.31-7.05-3.1-8.94-13.39-17.91-19.26-25.5ZM553.03,502.04c9.67-6.18,19.56-12.06,29.35-18.06,2.99,2.7,5.68,6.36,8.32,9.43,5.27,6.06,10.47,12.19,15.6,18.37-9.66,6.09-19.73,11.68-29.58,17.47-2.89-1.8-20.03-23.22-23.69-27.21ZM578.91,531.88c8.98-5.54,17.99-11,27.05-16.41,1.1,1.39,1.2,4.63,1.47,6.36-9.07,6.02-18.49,11.54-27.79,17.21l-.56.02c-.75-1.95-.23-5.08-.16-7.18ZM588.47,475.84c-.27,2.87-.44,5.76-.66,8.63-1.26-1.64-2.56-3.02-4.05-4.44-3.14,1.67-6.15,3.65-9.19,5.5-.96.55-1.24.82-2.32.79-1.4-1.82-1.34-5.11-1.63-7.37,9.23-5.95,18.82-11.42,28.23-17.07,1.18,1.12,1.19,5.27,1.37,6.92-3.83,2.52-7.77,4.79-11.76,7.05ZM573.13,430.2c1.87.71,22.75,25.67,24.8,28.49-9.24,5.71-18.72,11.01-27.93,16.77-.37-.1-.77-.1-1.1-.29-2.26-1.27-21.01-24.62-23.97-28.47,9.07-5.88,18.84-11.04,28.19-16.5ZM539.89,445.96c-2.93,2.4-2.82,7.08-3.21,10.53-1.07-1.06-2.38-2.66-3.9-3.03-3.37-.82-8.03,3.26-10.77,4.96l-2.86,1.71-.14-9.31c9.07-6.02,18.5-11.58,27.8-17.25.67,2.53.8,5.42,1.13,8.03-2.43,1.41-5.96,2.66-8.04,4.36ZM531.37,456.16c4.12,1.05,22.04,23.05,25.48,27.15-9.42,6.15-19.22,11.9-28.95,17.56-1.34.03-21.95-24.24-25.09-27.2,9.62-5.67,19.14-11.51,28.56-17.51ZM516.36,493.42c3.35,3.92,6.97,7.68,10.12,11.75,0,2.88.2,5.74.36,8.61l-3.18,2c-.95.64-1.72,1.18-2.86,1.43-1.62-2.35-.98-6.07-2.5-8.64-4.51-7.64-14.33-17.72-20.34-24.74l2.72-7.76c5.94,4.61,10.81,11.62,15.69,17.34ZM515.41,509.6l-28.78,17.23-.99.13c-4.33-3.22-18.28-22.23-23.41-27.9,9.55-5.96,19.07-11.9,28.72-17.68,1.63.42,22.11,25.28,24.46,28.22ZM467.18,510.12c3.14,3.89,6.43,7.66,9.56,11.56,2.86,3.56,5.57,7.36,8.87,10.53,5.47-5.36,23.4-15.1,30.8-19.19.54,2.18.9,4.41,1.31,6.62l-6.77,3.97c-.14.08-.27.15-.4.24-2.32,1.42-4.5,2.53-5.19,5.32-.26,1.07-.56,2.13-.84,3.2-.6-.39-1.16-.81-1.73-1.25-2.71-.19-21.65,11.82-25.6,14.13l.1-11.63c-7.56-8.43-15.09-17.41-22.1-26.3,1.59-1.87,2.84-3.97,4.14-6.05,3.01,2.04,5.54,6.01,7.84,8.86ZM473.83,534.57c-9.55,6.22-19.27,12.17-29.15,17.85-2.62-.72-20.87-24.41-23.85-28.26,9.31-6.07,18.89-11.81,28.43-17.53,2.53.77,22.32,24.82,24.58,27.95ZM444.12,556.77c10.04-6.12,20.03-12.22,29.82-18.73.4,2.85.7,5.7.9,8.57-2.16,1.62-4.58,2.85-6.94,4.16-.1,1.1-.15,2.28-.68,3.28-.82,1.55-2.83,2.77-4.44,3.34l-1.58-1c-.63-.4-1.5-1.06-2.27-1.07-2.36-.05-20.26,11.58-23.28,13.46.02-.12.03-.25.04-.37.02-.21.03-.42.05-.63.27-3.07-.12-6.08-.42-9.13-6.78-9.24-14.83-17.48-21.47-26.82,1.84-1.51,3.38-2.99,4.9-4.82,8.63,9.81,16.13,20.45,25.36,29.79ZM416.52,540.4c5.17,6.44,10.44,12.8,15.82,19.06-9.9,5.82-19.66,11.89-29.63,17.61-.52.04-.79-.1-1.22-.44-2.1-1.68-18.37-21.13-20.24-23.98-.92-1.4-1.39-2.52-1.6-4.17.13-.34.14-.76.39-1.03,1.3-1.44,24.82-14.72,28.56-16.92,2.88,2.84,5.37,6.71,7.92,9.87ZM416.39,584.42c3.38,1.97,20.17,22.85,23.48,27.19-8.76,6.57-19.68,12.61-29.02,18.54-3.75-5.94-18.35-22.25-23.66-27.29,9.03-7.04,19.46-12.43,29.21-18.44ZM431.76,632.15l121.79-73.42,58.04-35.67c13.67-8.54,27.08-17.37,41-25.5,4.25,2.27,17.49,16.18,21.98,20.45-15.45,8.74-30.55,17.95-45.81,27.01-35.51,21.06-70.83,42.44-105.97,64.13l-95.7,57.74c-1.05.68-1.87,1.29-3.16,1.42-2.59-2.27-4.77-5.12-7.07-7.68-3.83-4.28-7.76-8.47-11.42-12.9,8.69-5.34,17.58-10.31,26.31-15.57ZM659.41,425.63c1.16,1.83,1.73,3.97,1.32,6.1-1.67,2.48-42.42,26.02-48.62,29.83l-.91.33-.6-.34c-.75-2.89-.6-6-1.11-8.97l-.09-.51c5.7-3.98,11.99-7.29,18.03-10.74,10.11-5.7,20.18-11.48,30.2-17.35.81.32,1.32.92,1.78,1.64ZM630.62,394.45c2.93.47,22.21,23.37,25.39,27.04-15.92,8.4-32.08,17.63-47.23,27.32l-.43.2c-2.81-.39-20.79-22.84-24.01-26.51,15.02-9.98,30.83-18.78,46.28-28.06ZM625.1,385.92c.94,1.29.57,6.06.6,7.82-8.95,5.38-17.93,10.72-26.94,16.01-1.06-1.11-.57-6.14-.57-7.72,8.81-5.6,17.89-10.76,26.77-16.25.05.05.1.08.14.14ZM598.85,354.02c.31.05.65.01.93.14,1.34.6,22.12,25.51,24.68,28.46l-26.56,16.06-.51.13c-2.16-.42-22.52-24.87-25.16-28.39,8.61-5.85,17.66-11.09,26.61-16.4ZM569.4,372.88c.72.46,1.29,1,1.9,1.6,3.34,3.25,22.34,24.91,23.71,28.39.95,2.41.6,6.12.62,8.74l-3.34,1.98-1.14.65c-1.79-1.32-1.24-7.72-2.74-10.02-2.36-3.63-5.8-7-8.65-10.28-4.18-4.77-8.23-9.65-12.14-14.64l1.78-6.41ZM560.98,377.08c3.71,3.11,6.73,7.37,9.87,11.05,5.11,5.99,10.35,11.88,15.12,18.14-8.04,6.24-19.8,12.13-28.8,17.22-8.36-9.57-16.33-19.47-24.76-28.98,9.32-6.11,19.22-11.32,28.57-17.43ZM529.8,396.83c5.37,4.4,20.84,23.32,25.19,29.3.22,3,.72,6.41.23,9.38-.32,1.95-.82,2.28-2.37,3.34-.65.09-.84.02-1.45-.18-1.51-2.2-1.39-5.68-1.62-8.29-7.16-8.75-15.05-17.08-21.89-26.05.51-2.56,1.11-5.01,1.9-7.49ZM520.69,401.82c5.45,3.95,20.73,22.74,25.18,28.85-9.69,5.64-19.28,11.44-28.78,17.39-2.35-.53-21.96-24.85-25.01-28.62,9.33-6.06,19.04-11.94,28.61-17.63ZM489.15,421.65c2.39,1.57,4.48,4.4,6.35,6.58,4.34,5.03,15.7,19.8,20.19,23.01.15,3.55.22,7.1.22,10.65l-3.34,2.21c-.42.24-.83.37-1.29.53-1.96-2.51-1.31-7.34-3.12-10.39-5.43-9.17-14.29-17.45-21.4-25.39.74-2.41,1.53-4.81,2.38-7.19ZM464.55,435.65c4.96-2.96,9.89-5.97,14.79-9.04,5.79,3.42,22.15,23.69,25.97,29.91-9.29,6.32-19.38,11.42-28.67,17.74l-.19.19c-3.16-1.61-20.93-25.39-25.57-30.26,4.2-3.31,9.07-5.84,13.67-8.54ZM448.83,447.04c3.89,3.76,7.3,8.28,10.74,12.46l16.38,20.08c7.85-7.9,21.29-13.95,30.83-20.51.64,2.57.95,5.31,1.37,7.93l-6.76,3.84-3.71,2.39c-.42,2.54-1.07,5-1.73,7.48-.96-.94-1.86-1.67-2.99-2.39-4.26-.7-21.58,11.16-25.88,13.77-.19-3.71.02-8.25-1.2-11.76-2.1-6.06-15.84-20.92-20.86-26.78,1.52-2.08,2.67-4.19,3.82-6.49ZM438.96,452.27c2.2.65,22,25.1,24.26,28.54-3.64,2.78-7.78,5.02-11.69,7.39-6.09,3.74-12.24,7.4-18.43,10.96-7.69-9.7-15.49-19.63-23.91-28.69,9.65-6.45,19.83-12.24,29.78-18.21ZM406.77,473.37c4.36,2.31,20.83,24.93,27.17,30.42,4.18-4.94,23.11-15.46,29.65-19.53l.27,9.9-4.41,2.57c-3.09,2.31-4.14,4.38-5.62,7.83-.93-.31-1.87-.64-2.82-.85-4.34-.93-21.5,11.19-26.09,13.94-.25-3.76.27-7.86-.74-11.52-1.6-5.79-15.85-20.5-20.31-26.25.9-2.2,1.92-4.35,2.91-6.51ZM368.73,494.39c6.95-5.9,19.66-12.5,27.77-17.4,2.1.62,22.21,25.29,24.49,29.17-9.34,6.05-19.06,11.5-28.44,17.49-3.76-2.92-9.77-11.56-13.3-15.61-2.92-3.35-6.27-6.43-8.97-9.96-.83-1.08-1.45-1.99-1.81-3.31h.61s-.35-.39-.35-.39ZM366.27,498.75c2.37,1.44,4.54,4.64,6.4,6.77,6.52,7.49,13.1,16.52,20.39,23.15,4.75-5.62,21.23-14.37,28.63-19.01.08,3.39,0,6.79-.01,10.18-1.58.67-2.91,1.36-4.28,2.39-1.72,2.35-2.37,5.24-4.68,7.14-.95-.55-1.95-1.2-3-1.54-3.16-1.03-18.21,9.13-22.07,11.32-.85-3.26-1.49-7.22-3.05-10.22-2.12-4.07-6.31-7.81-9.4-11.2-4.66-5.1-9.38-10.14-13.49-15.7,1.44-1.33,2.87-2.31,4.57-3.29ZM355.69,501.5c3.58,1.68,21.93,23.71,25.67,28.23-9.93,5.97-19.69,12.28-29.49,18.47l-.95.1c-3.05-2.82-5.73-6.24-8.48-9.35-5.51-6.15-10.94-12.37-16.29-18.66,4.74-5.02,22.81-14.93,29.54-18.78ZM325.08,524.39c2.35,1.64,4.51,4.6,6.43,6.77,6.01,6.83,11.85,14.67,18.57,20.76,9.34-3.28,23.1-14.11,32.6-19.27.99,2.91,1.48,5.7,1.76,8.75-1.99.91-3.9,2.1-5.82,3.16-1.52.91-2.1,1.37-2.93,2.97-1.42,2.74-6.37,5.07-9.22,6.01-.61-.35-1.21-.64-1.86-.92-4.07,1.4-14.96,9.2-19.29,11.96-.36-2.79-.95-5.84-2.2-8.37-3.86-7.86-16.38-20.43-22.75-27.7l4.7-4.11ZM314.8,527.44c1.84.71,22.74,25.46,25.09,28.56-9.88,5.16-19.4,11.79-28.89,17.68l-.74.21c-3.62-2.27-21.79-24.08-24.24-28.2,8.5-7.12,19.2-12.69,28.79-18.24ZM285.19,550.57c1.92,1.39,3.65,3.96,5.2,5.77,5.49,6.42,12.95,16.81,19.75,21.35,10.6-5.33,20.58-12.64,30.8-18.72.75,2.33,1.52,4.61,2.45,6.88-3.42,2.05-6.98,4.13-9.88,6.88-.23,1.79-.42,3.5-.39,5.3l.54.48,1.51-.83c.55.21,21.39,24.58,24.41,27.67,7.01-3.8,13.69-8.05,20.5-12.18,3.27-1.99,6.62-4.31,10.15-5.82.79,1.09.83,2.25,1.05,3.55.17,1.47.61,2.99.94,4.44-2.46,1.65-6.08,3.45-8.04,5.63-1.93,2.15-2.18,4.34-4.8,6.01-.76-.45-1.48-.94-2.21-1.43-3.01-.61-20.71,11.13-24.6,13.52-.36-3.62-.49-7.22-.56-10.86-5.83-5.83-12.31-13.92-17.71-20.38-2.86-3.42-5.59-7.36-9.04-10.19-6.92,3.38-13.69,8.23-20.3,12.25-.73-2.67-1.39-5.44-2.63-7.93-4.31-8.61-15.5-20.35-22.23-27.61,1.66-1.31,3.38-2.54,5.1-3.78ZM273.86,552.7c4.91,3.71,19.66,22.25,24.8,28.26-9.63,6.21-19.93,11.7-29.86,17.45l-.33.07c-1.62-.59-21.47-24.95-24.05-28.31,9.77-5.89,19.58-11.72,29.44-17.47ZM241.29,572.06c3.14,2.46,5.8,6.19,8.39,9.23,5.6,6.55,11.07,13.2,16.42,19.96,0,3.67.07,7.64-.65,11.24h-.5c-8.16-11.38-18.35-21.39-25.82-33.26.36-2.55.81-4.93,2.16-7.16ZM279.61,664.49l-.23,1.33c-.78-.84-1.4-1.88-2.06-2.82-17.63-24.47-35.75-48.56-54.37-72.28,3.74-3.81,8.33-7.03,12.62-10.21,3.08,3.62,5.88,7.48,8.87,11.17,6.43,7.93,12.88,15.64,18.72,24.03-1.84,1.2-3.73,2.38-5.48,3.7-1.1.83-2.18,1.69-2.41,3.12,2.47,5.93,18.99,24.31,24.16,30.44l.21,11.49-.04.02ZM258.27,622.64c8.02-5.66,16.67-10.36,24.64-16.09,4.72,3.3,20.48,22.68,25.02,28.3-8.15,5.28-16.73,9.97-25.17,14.78l-1.02.37c-2.49-.52-20.73-23.98-23.48-27.36ZM283.09,669.65c-1.05-1.7-.55-13.68-.56-16.41,8.98-4.97,17.8-10.19,26.48-15.66,1.04,1.49,1.05,4.83,1.3,6.7-5.75,3.65-12.04,8.43-18.42,10.83-3.46,4.21-5.83,9.59-8.38,14.38l-.43.17ZM312.77,709.81l-2.17-2.95c-8.26-11.62-16.87-22.97-25.82-34.06,3.08-4.24,5.67-8.9,8.45-13.35,3.97,2.76,18.07,21.81,22.03,26.92-1.1,7.76-1.71,15.63-2.49,23.43ZM341.23,745.89l-.42.12-1.43-1.78c-8.05-10.25-15.95-20.61-23.7-31.08,3.07-5.27,5.13-10.93,7.33-16.59,6.59,7.1,15.65,17.97,21.01,26-.19,6.5-1.17,17.12-2.79,23.33ZM323.67,692.76c9.39-5.38,18.61-11.1,27.91-16.63,2.09.86,20.5,23.21,23.02,26.42-8.93,6.22-18.6,11.58-27.92,17.19-2.65-1.55-18.57-22.63-23.01-26.97ZM346.06,745.38l-1.02.62c-.47-.7,2.14-20.44,2.44-23.06,8.58-6.58,19.1-11.32,28.24-17.2,1.05,1.04,1.57,17.59,2.02,20.43-10.71,6.15-21.27,12.55-31.67,19.21ZM380.84,723.61c-1.58-5.27-.12-16.7-2.3-20.66-.09-.17-.2-.33-.3-.5-4.21-7.21-13.35-16.27-19.04-22.78-2.21-2.57-4.4-5.14-6.84-7.5-3.85,1.56-7.55,4.1-11.08,6.28-6.73,4.15-13.37,8.51-20.34,12.24-.7,5.24-2.58,9.75-4.58,14.61.8-6.24,1.29-12.55,1.98-18.81,11.08-6.93,22.53-13.29,33.74-20.01,15.46-9.27,30.69-18.86,46.41-27.7l.37.34c.91,3.98-.37,9.59-.87,13.69-1.45-1.84-2.95-3.42-4.67-5.01-5.7,2.57-11.12,6.43-16.49,9.65-6.01,3.61-12.22,6.94-18.08,10.78,2.34,4.17,6,7.72,9.09,11.34l16.03,18.75c-.68,4.95-1.43,9.91-1.98,14.88-.39,3.46-.47,6.98-1.04,10.42ZM414.76,678.03c-9.05,6.64-19.65,12.11-29.34,17.81-2.65-2.77-4.99-6.03-7.43-8.99-4.88-6-9.9-11.89-15.06-17.66,10.07-5.33,19.89-11.52,29.49-17.64,2.42,1.97,4.62,5.42,6.66,7.86l15.68,18.63ZM384.97,721.78l-.54-.16.14-.99-.82-.33.69-.38c.82-6.92,1.68-13.83,2.2-20.79,8.97-6.33,19.09-11.65,28.5-17.32.77.72.86,17.49,1.12,20.6-10.68,5.88-21.24,12.45-31.28,19.36ZM419.37,687.64l-.22-.53c-.06-2.47.27-5.5-.52-7.85-1.99-5.88-14.59-18.95-19.36-24.51l4.19-3.9c2.73,1.32,15.47,16.57,17.84,19.75-.09,5.44-.63,11.75-1.93,17.03ZM660.93,552.95c-19.34,11.61-38.33,23.82-57.59,35.56-58.97,36.41-118.16,72.46-177.57,108.15l-3.97,2.45c.63-9.17,1.75-18.3,2.77-27.43,13.34-8.34,27.13-16,40.61-24.12l88.23-53.57,73.22-44.06c16.3-9.77,32.48-19.91,49.24-28.87,1.66,2.05,3.79,16.77,4.47,20.33-6.59,3.55-12.99,7.71-19.42,11.57ZM680.45,524.8c-.28-2.31-.63-4.48-1.23-6.74-5.53-6.17-19.79-20.41-26.53-24.48l-3.86,2.25c-10.83,6.44-21.49,13.14-31.99,20.12l.07-11.05c8.6-5.5,17.91-10.22,26.74-15.36,14.59-8.47,28.95-17.25,43.66-25.52,1.3,1.22.98,4.79,1.04,6.49-4.56,1.96-22.71,11.31-26.23,14.21-1.09.9-1.78,1.57-1.93,3,2.39,5.05,11.11,11.76,15.32,16.16,8.61,9,5.17,9.79,4.95,20.92ZM663.81,487.22l30.45-16.72c2.1.34,21.09,21.48,24.25,24.7-10.21,6.42-21.11,11.89-31.72,17.61l-1.55.91c-.91-.26-.72-.73-.95-1.6-.35-1.34-.66-3.16-1.4-4.33-3.38-5.36-14.19-15.64-19.08-20.58ZM708.86,524.06l-22.61,14.2-1.89.94c-1.01-4.2-.17-16.19-.14-21.34,11.82-7.02,24.15-13.34,36.17-20.01l1.1.64c1.89,2.9.93,12.64,1.58,16.7-4.88,2.63-9.54,5.89-14.22,8.87Z"/><path d="M403.46,650.86l-4.19,3.9c4.77,5.55,17.37,18.63,19.36,24.51.8,2.35.47,5.37.52,7.85l.22.53c1.3-5.28,1.85-11.59,1.94-17.03-2.38-3.19-15.12-18.43-17.84-19.75Z"/><path d="M579.64,539.04c9.29-5.66,18.72-11.19,27.79-17.21-.27-1.73-.36-4.98-1.46-6.36-9.06,5.4-18.07,10.87-27.05,16.4-.07,2.1-.59,5.23.16,7.18l.57-.02Z"/><path d="M598.75,409.75c9.01-5.29,17.99-10.63,26.94-16.01-.03-1.76.34-6.52-.6-7.82-.04-.05-.09-.09-.14-.14-8.88,5.49-17.96,10.65-26.77,16.25,0,1.58-.49,6.61.57,7.72Z"/><path d="M566.64,546.89c-.41-2.11-.65-5.3-1.63-7.16-9.14,6.06-18.68,11.43-27.85,17.41.22,1.79.26,5.82,1.37,7.07,9.46-5.63,18.66-11.71,28.12-17.32Z"/><path d="M310.31,644.28c-.26-1.86-.26-5.21-1.3-6.7-8.68,5.47-17.51,10.69-26.48,15.66.01,2.73-.49,14.71.56,16.41l.43-.17c2.55-4.79,4.92-10.17,8.38-14.38,6.38-2.4,12.67-7.19,18.42-10.83Z"/><path d="M454.37,614.48l.54.05c9.54-6,19.5-11.35,28.98-17.4-.12-2.39.14-6.24-1.06-8.3-9.49,5.88-19.93,11.48-28.7,18.37.02,2.39-.13,4.93.24,7.29Z"/><path d="M598.85,461.86c-9.41,5.66-19.01,11.13-28.23,17.07.28,2.26.22,5.55,1.63,7.37,1.08.03,1.37-.24,2.32-.79,3.04-1.85,6.05-3.83,9.19-5.5,1.49,1.42,2.8,2.81,4.05,4.44.22-2.87.38-5.76.66-8.63,3.99-2.26,7.92-4.53,11.76-7.05-.18-1.65-.19-5.8-1.37-6.92Z"/><path d="M586.44,409.71c-9.03,5.86-18.51,11.85-28.18,16.6.17,3.01.32,6,.3,9.01l3.45-2.04c3.34-2.19,8.13-6.21,12.32-5.5,1.68.29,2.73,1.39,3.82,2.58.58-.48.89-5.83,1.08-6.94,2.22-2.96,5.1-4.75,8.16-6.72-.05-1.67.26-5.81-.95-6.99Z"/><path d="M519.01,450.82l.14,9.31,2.86-1.71c2.75-1.7,7.4-5.79,10.78-4.96,1.51.37,2.83,1.97,3.9,3.03.39-3.45.27-8.12,3.21-10.53,2.08-1.7,5.61-2.95,8.04-4.36-.33-2.61-.46-5.5-1.13-8.03-9.3,5.67-18.72,11.22-27.8,17.25Z"/><path d="M588.4,404.21c1.5,2.3.96,8.7,2.74,10.02l1.14-.65,3.34-1.98c-.02-2.61.33-6.33-.62-8.74-1.37-3.48-20.37-25.13-23.71-28.39-.61-.59-1.18-1.14-1.9-1.6l-1.78,6.41c3.91,4.99,7.96,9.87,12.14,14.64,2.85,3.28,6.29,6.66,8.65,10.28Z"/><path d="M582.29,425.64c-.55,2.83-.86,5.65-1.13,8.52,7.01,8.33,14.8,16.21,21.29,24.94.06,1.91-.35,5.14.68,6.68,1.31.39,1.78-.03,3.02-.52,1.05-.94,1.13-1.26,1.2-2.66.13-2.79-.1-5.66-.06-8.46-4.29-5.48-20.71-25.65-24.99-28.49Z"/><path d="M529.34,509.07c0,.97.16,1.54.62,2.41,1.14.18,1.36-.11,2.39-.66,2.94-1.87,6.36-4.85,10.08-3.88,1.35.35,2.82,1.71,3.83,2.64.02-3.71-.14-5.97,2.74-8.72,2.89-2.76,7.65-4.8,11.18-6.78-.43-2.15-.72-6.24-2.12-7.85-9.75,5.88-19.53,11.7-29.02,18,.15,1.62.3,3.22.31,4.85Z"/><path d="M591.09,478.13c-.31,3.21-.52,6.48-1.24,9.62,6.37,7.92,13.72,15.17,19.59,23.48.03,2.53-.2,5.26.68,7.65l.65.62c.52-.14,1.06-.27,1.56-.44.38-.44.89-.79,1.15-1.31,1.02-2.04.33-10.14.6-13.01-3.72-4.95-18.94-23.68-22.99-26.6Z"/><path d="M551.41,438.67c.61.2.8.27,1.45.18,1.54-1.06,2.04-1.39,2.37-3.34.49-2.97-.01-6.37-.23-9.37-4.35-5.98-19.82-24.9-25.19-29.3-.79,2.49-1.39,4.93-1.9,7.49,6.84,8.97,14.73,17.3,21.89,26.05.23,2.61.11,6.09,1.62,8.29Z"/><path d="M265.44,612.48c.72-3.59.65-7.57.65-11.24-5.35-6.76-10.82-13.41-16.42-19.96-2.59-3.04-5.24-6.77-8.39-9.23-1.34,2.24-1.79,4.61-2.16,7.16,7.46,11.88,17.65,21.88,25.82,33.26h.5Z"/><path d="M569.45,544.99l4.03-2.27,3.04-1.72c-.54-2.84-.93-5.56-1.06-8.45-2.59-1.92-4.6-4.87-6.65-7.35-5.38-6.52-12.34-16.16-18.62-21.34-.6,2.85-.85,5.7-1.31,8.57,5.87,7.59,16.16,16.56,19.25,25.5.76,2.19.98,4.74,1.31,7.05Z"/><path d="M511.29,464.62c.45-.16.87-.28,1.29-.53l3.34-2.21c0-3.55-.07-7.1-.22-10.64-4.49-3.21-15.86-17.97-20.19-23.01-1.88-2.18-3.96-5.01-6.35-6.58-.85,2.38-1.64,4.78-2.38,7.19,7.11,7.94,15.97,16.22,21.4,25.39,1.81,3.05,1.15,7.88,3.12,10.39Z"/><path d="M427.74,581.37c-1.74,1.44-3.45,3.03-5.33,4.28,6.78,8.83,14.49,16.87,21.29,25.72.08,2.04-.22,7.44,1.04,8.95l.99-.34,5.55-3.35c.19-2.78.27-5.42.06-8.2-4.49-5.78-9.69-11.06-14.49-16.58-2.94-3.39-5.71-7.63-9.12-10.47Z"/><path d="M528.55,570.31l3.16-1.99,3.24-2.25c-.25-2.77-.43-5.57-.81-8.33-6.06-6.2-11.53-13.08-17.14-19.7-2.52-2.97-5.26-6.97-8.4-9.23l-1.81,9.15c5.68,8.52,17.89,15.98,20.95,25.99.61,1.98.65,4.29.81,6.35Z"/><path d="M497.95,483.84c6.01,7.02,15.84,17.1,20.34,24.74,1.52,2.57.88,6.29,2.5,8.64,1.14-.25,1.91-.79,2.86-1.43l3.18-2c-.16-2.87-.37-5.74-.36-8.61-3.15-4.08-6.77-7.83-10.12-11.75-4.88-5.72-9.75-12.72-15.69-17.34l-2.73,7.76Z"/><path d="M565.78,490.81c.99-.63,2.03-1.23,2.95-1.96-.36-3.38-.68-6.77-1.1-10.14-6.31-6.46-11.84-13.67-17.6-20.62-2.66-3.21-5.54-7.18-8.75-9.85-.37,3.57-.59,7.23-1.27,10.76,6.34,7.71,14.33,14.69,19.93,22.9,2.71,3.97,2.5,8.68,3.51,10.05,1.01-.14,1.52-.54,2.33-1.14Z"/><path d="M609.4,452.07l.09.51c.51,2.96.35,6.08,1.11,8.97l.6.33.91-.33c6.2-3.81,46.95-27.35,48.62-29.83.42-2.13-.16-4.27-1.32-6.1-.46-.73-.97-1.32-1.78-1.64-10.02,5.86-20.09,11.65-30.2,17.35-6.04,3.45-12.32,6.76-18.03,10.74Z"/><path d="M413.8,639.04c7.66-4.47,15.39-8.85,22.86-13.63l4.64-3.06-.24-7.63c-9.93,6.27-20.17,12.33-29.75,19.13-5.88-4.16-22.92-27.3-26.39-27.75-1.39,1.03-2.77,2.09-4.19,3.09,4.13,5.45,8.5,10.68,12.91,15.91,2.85,3.37,6.17,6.79,8.42,10.59.13,3.52.13,7,.02,10.52,3.47-2.82,7.85-4.92,11.71-7.17Z"/><path d="M487.07,595.19c11.15-6.36,21.98-13.21,33.06-19.69l5.3-3.35c-.2-2.6-.32-5.23-.74-7.8-5.24,3.36-10.52,6.65-15.85,9.87-3.27,1.96-6.85,3.81-9.94,6-1.57,1.11-1.95,3.94-3.78,4.35-2.01-1.62-3.81-4.43-5.5-6.43-5.89-6.97-12.58-16.19-19.62-21.86-1.84,1.24-3.65,2.55-5.56,3.68,6.82,8.63,14.1,16.9,21.06,25.42l1.59,9.82Z"/><path d="M384.6,528.94c1.56,3,2.21,6.96,3.05,10.22,3.86-2.19,18.91-12.35,22.07-11.32,1.05.34,2.05.99,3,1.54,2.31-1.9,2.96-4.8,4.68-7.14,1.37-1.03,2.7-1.72,4.28-2.39.02-3.39.09-6.79.01-10.18-7.4,4.64-23.88,13.39-28.63,19.01-7.28-6.63-13.87-15.66-20.39-23.15-1.86-2.13-4.03-5.33-6.4-6.77-1.7.98-3.13,1.96-4.57,3.29,4.12,5.56,8.83,10.6,13.49,15.7,3.1,3.39,7.29,7.13,9.4,11.2Z"/><path d="M413.86,531.81c6.64,9.34,14.69,17.58,21.47,26.82.3,3.06.69,6.06.42,9.13-.02.21-.03.42-.05.63-.01.13-.03.25-.04.37,3.01-1.88,20.92-13.51,23.28-13.46.77.02,1.64.67,2.27,1.07l1.58,1.01c1.61-.56,3.62-1.78,4.44-3.34.53-1,.59-2.17.68-3.28,2.36-1.3,4.78-2.53,6.94-4.16-.19-2.87-.49-5.72-.9-8.57-9.79,6.51-19.78,12.61-29.82,18.73-9.22-9.34-16.73-19.97-25.36-29.79-1.53,1.83-3.06,3.32-4.9,4.82Z"/><path d="M459.34,501.26c-1.3,2.08-2.55,4.17-4.14,6.05,7.01,8.89,14.54,17.87,22.1,26.3l-.1,11.63c3.95-2.31,22.89-14.32,25.6-14.13.57.44,1.12.86,1.73,1.25.28-1.07.58-2.13.84-3.2.69-2.79,2.87-3.89,5.19-5.32.13-.08.27-.16.4-.24l6.77-3.97c-.41-2.2-.77-4.44-1.31-6.62-7.4,4.08-25.34,13.83-30.8,19.19-3.3-3.17-6.01-6.97-8.87-10.53-3.13-3.9-6.42-7.66-9.56-11.56-2.3-2.85-4.83-6.82-7.84-8.86Z"/><path d="M293.23,659.45c-2.78,4.45-5.37,9.11-8.45,13.35,8.95,11.09,17.56,22.45,25.82,34.06l2.17,2.95c.79-7.8,1.39-15.67,2.49-23.44-3.96-5.11-18.06-24.17-22.03-26.92Z"/><path d="M345.33,564.58c4.34-2.76,15.22-10.56,19.29-11.96.65.27,1.25.57,1.86.92,2.85-.94,7.8-3.27,9.22-6.01.83-1.6,1.41-2.06,2.93-2.97,1.91-1.07,3.82-2.26,5.82-3.16-.29-3.05-.78-5.83-1.76-8.75-9.5,5.16-23.26,15.99-32.6,19.27-6.72-6.08-12.56-13.93-18.57-20.76-1.91-2.17-4.07-5.13-6.42-6.77l-4.7,4.11c6.36,7.27,18.89,19.84,22.75,27.7,1.25,2.54,1.84,5.58,2.2,8.37Z"/><path d="M315.68,713.15c7.75,10.47,15.65,20.84,23.7,31.08l1.43,1.78.42-.12c1.62-6.21,2.6-16.83,2.79-23.33-5.36-8.03-14.42-18.9-21.01-26-2.2,5.66-4.26,11.33-7.33,16.59Z"/><path d="M386.62,699.14c-.51,6.95-1.37,13.87-2.19,20.78l-.69.38.82.33-.14.99.54.16c10.04-6.91,20.6-13.48,31.28-19.36-.27-3.11-.35-19.88-1.12-20.6-9.42,5.67-19.53,10.99-28.5,17.32Z"/><path d="M394.87,593.76c7.51-4.5,15.2-8.82,22.59-13.51,1.09,1.04,2.21,2.06,3.28,3.14,2.75-2.41,4.03-3.29,4.61-7.03.03-.19.07-.37.1-.55,2.18-2.24,5.09-3.86,7.73-5.52-.11-2.5-.16-5-.54-7.48-5.3,3.12-10.58,6.29-15.81,9.52-5,3.09-10.31,6.79-15.82,8.89-4.06-4.55-21.73-27.6-24.91-29.38-2.13,1.4-4.3,2.76-6.38,4.23,8.28,8.94,15.64,19.28,24.03,27.93.11,3.36.31,6.49,1.14,9.77Z"/><path d="M467.08,492.07c4.31-2.61,21.62-14.47,25.88-13.77,1.13.72,2.03,1.46,2.99,2.39.65-2.48,1.31-4.94,1.73-7.48l3.71-2.39,6.76-3.84c-.42-2.62-.74-5.35-1.37-7.93-9.54,6.57-22.98,12.61-30.83,20.51l-16.38-20.08c-3.44-4.18-6.85-8.7-10.74-12.46-1.15,2.31-2.3,4.41-3.81,6.49,5.02,5.86,18.76,20.71,20.86,26.77,1.22,3.52,1.01,8.05,1.2,11.77Z"/><path d="M347.47,722.94c-.3,2.63-2.91,22.37-2.44,23.07l1.02-.62c10.4-6.66,20.95-13.07,31.67-19.21-.45-2.84-.96-19.39-2.02-20.43-9.14,5.88-19.66,10.62-28.23,17.2Z"/><path d="M424.91,517.66c4.59-2.75,21.76-14.87,26.1-13.94.96.21,1.9.54,2.82.85,1.47-3.45,2.52-5.51,5.61-7.83l4.41-2.57-.27-9.9c-6.54,4.07-25.47,14.59-29.65,19.53-6.34-5.49-22.81-28.11-27.17-30.42-.99,2.16-2.01,4.31-2.91,6.51,4.46,5.76,18.71,20.46,20.31,26.25,1.01,3.66.49,7.76.74,11.52Z"/><path d="M720.4,497.85c-12.02,6.67-24.35,12.99-36.17,20.01-.03,5.15-.87,17.14.14,21.34l1.88-.94,22.61-14.2c4.68-2.97,9.34-6.23,14.22-8.87-.65-4.06.31-13.81-1.58-16.7l-1.1-.64Z"/><path d="M367.83,679.57c-3.09-3.62-6.75-7.17-9.09-11.34,5.86-3.84,12.08-7.17,18.09-10.78,5.37-3.22,10.79-7.08,16.49-9.65,1.72,1.59,3.22,3.17,4.67,5.01.5-4.1,1.78-9.71.87-13.69l-.37-.34c-15.72,8.85-30.94,18.43-46.41,27.7-11.21,6.72-22.66,13.08-33.74,20.01-.69,6.26-1.18,12.57-1.98,18.81,2-4.85,3.88-9.36,4.58-14.61,6.97-3.73,13.62-8.09,20.34-12.24,3.54-2.18,7.23-4.72,11.08-6.28,2.44,2.36,4.63,4.93,6.84,7.5,5.69,6.52,14.83,15.58,19.04,22.78.1.17.2.33.3.5,2.18,3.95.73,15.38,2.3,20.66.57-3.44.65-6.96,1.04-10.42.56-4.97,1.3-9.93,1.98-14.88l-16.03-18.75Z"/><path d="M660.18,487.72c.15-1.43.84-2.1,1.93-3,3.52-2.9,21.67-12.25,26.23-14.21-.06-1.71.27-5.27-1.04-6.49-14.71,8.27-29.07,17.05-43.66,25.52-8.84,5.13-18.15,9.86-26.74,15.36l-.07,11.05c10.49-6.97,21.16-13.68,31.99-20.12l3.86-2.25c6.74,4.07,21,18.31,26.53,24.48.6,2.25.95,4.43,1.23,6.74.22-11.13,3.66-11.92-4.95-20.92-4.21-4.39-12.93-11.11-15.32-16.16Z"/><path d="M289.13,607.88c-.06-.06-.12-.12-.18-.18-.05.17-.1.34-.15.51.11-.11.22-.22.33-.33Z"/><path d="M301.75,591.93c-.43-2.19-.72-6.47-2.42-7.94-10.02,6.1-20.12,12.06-30.31,17.87-.05,3.51-.18,7.01-.36,10.52l.63-.35c3.15-1.78,11.94-8.87,14.82-8.77,1.19.83,2.88,2.41,4.86,4.45.9-3.01,2.14-6.06,2.69-9.13,3.09-2.65,6.73-4.4,10.1-6.64Z"/><path d="M312.71,643.05c6.9-3.73,13.49-8.13,20.13-12.3,5.6-3.38,11.27-6.68,16.78-10.19-.14-2.76-.49-5.34-1.04-8.05-5.13,3.09-10.22,6.24-15.26,9.48-3.57,2.32-7.29,5.3-11.16,7.07-1.05.48-2.25.86-3.42.66-1.13-.19-2.17-.88-2.97-1.68-2.42-2.38-4.44-5.42-6.62-8.05-4.94-5.93-10.05-12.01-15.41-17.54-1.47,1.91-2.92,3.7-4.6,5.42,7.44,7.7,18.77,21.66,22.75,26.72.23,2.82.41,5.65.83,8.45Z"/><path d="M279.44,652.98c-5.17-6.13-21.69-24.52-24.16-30.44.22-1.43,1.3-2.29,2.41-3.12,1.75-1.32,3.64-2.5,5.48-3.7-5.84-8.39-12.29-16.1-18.72-24.03-2.99-3.69-5.79-7.56-8.87-11.17-4.29,3.18-8.88,6.41-12.62,10.21,18.62,23.72,36.74,47.81,54.37,72.28.66.94,1.28,1.98,2.06,2.82l.23-1.33.04-.02-.21-11.49ZM279.1,665.02l-.05-.22.45-.25-.4.47Z"/><path d="M304.96,589.89c6.6-4.02,13.38-8.87,20.29-12.25,3.46,2.83,6.19,6.77,9.04,10.19,5.4,6.46,11.88,14.55,17.71,20.38.07,3.64.2,7.23.56,10.86,3.89-2.39,21.59-14.13,24.6-13.52.73.49,1.46.98,2.21,1.43,2.62-1.67,2.87-3.86,4.8-6.01,1.95-2.18,5.58-3.97,8.04-5.63-.32-1.45-.77-2.96-.94-4.44-.23-1.3-.26-2.46-1.05-3.55-3.53,1.5-6.88,3.83-10.15,5.82-6.81,4.14-13.49,8.38-20.5,12.18-3.03-3.09-23.87-27.46-24.41-27.67l-1.51.83-.54-.49c-.04-1.8.15-3.51.39-5.3,2.91-2.76,6.46-4.83,9.89-6.88-.93-2.27-1.7-4.55-2.45-6.88-10.23,6.09-20.2,13.39-30.8,18.72-6.79-4.54-14.26-14.93-19.75-21.35-1.55-1.81-3.28-4.38-5.2-5.77-1.71,1.24-3.44,2.47-5.1,3.78,6.74,7.26,17.92,19.01,22.23,27.61,1.24,2.49,1.9,5.25,2.64,7.92Z"/><path d="M626.65,549.93l-73.22,44.06-88.23,53.57c-13.48,8.12-27.27,15.78-40.62,24.12-1.03,9.13-2.14,18.26-2.77,27.43l3.97-2.45c59.41-35.69,118.6-71.74,177.57-108.15,19.26-11.75,38.25-23.95,57.59-35.56,6.43-3.86,12.83-8.01,19.42-11.57-.68-3.55-2.81-18.28-4.47-20.33-16.76,8.96-32.94,19.1-49.24,28.87Z"/></g></svg>