<?xml version="1.0" encoding="UTF-8"?><svg id="b" xmlns="http://www.w3.org/2000/svg" viewBox="0 0 1000 1000"><defs><style>.f{fill:none;stroke:#202020;stroke-miterlimit:10;stroke-width:20px;}.g{fill:#fff;}</style></defs><g id="c"><rect id="d" width="1000" height="1000"/><rect id="e" class="f" x="10" y="10" width="980" height="980"/><path class="g" d="M752.46,216.9c-37.48-34.6-76.99-51.42-120.78-51.42-51.64,0-98.77,23.65-144.36,46.54-41.01,20.59-79.74,40.03-116.85,40.03-28.03,0-53.18-11.16-79.16-35.14-8.94-8.26-21.94-10.44-33.1-5.55-10.46,4.58-17.36,14.57-18.19,25.82-1.5,3.62-2.35,7.58-2.35,11.74v554.95c0,16.94,13.73,30.66,30.66,30.66s30.66-13.73,30.66-30.66v-180.4c22.71,11.24,46.36,16.97,71.47,16.97h.02c51.63-.01,98.76-23.65,144.35-46.54,41.02-20.59,79.76-40.02,116.87-40.02,28.03,0,53.18,11.16,79.15,35.14,8.94,8.28,21.94,10.46,33.1,5.56,11.16-4.89,18.37-15.91,18.37-28.09V239.43c0-8.57-3.58-16.72-9.86-22.53ZM701,508.24c-22.04-10.51-45-15.68-69.29-15.68-51.64,0-98.78,23.65-144.38,46.54-41.01,20.58-79.74,40.01-116.84,40.02h-.01c-24.46,0-46.73-8.51-69.28-26.63v-254.81c22.04,10.52,45,15.69,69.29,15.69,51.64,0,98.78-23.65,144.36-46.54,41.01-20.59,79.75-40.03,116.85-40.03,24.48,0,46.75,8.51,69.3,26.63v254.81Z"/></g></svg>