<?xml version="1.0" encoding="UTF-8"?><svg id="b" xmlns="http://www.w3.org/2000/svg" viewBox="0 0 1000 1000"><defs><style>.f{fill:none;stroke:#202020;stroke-miterlimit:10;stroke-width:20px;}.g{fill:#fff;}</style></defs><g id="c"><rect id="d" width="1000" height="1000"/><rect id="e" class="f" x="10" y="10" width="980" height="980"/><path class="g" d="M884.34,422.11c-15.26-35.97-40.62-66.5-72.59-88.11-15.91-10.74-33.51-19.28-52.4-25.11-18.76-5.95-38.82-9.06-59.51-9.06-26.53,0-52.02,5.18-75.31,14.63-1.95.77-3.75,1.54-5.56,2.45-20.96,9.19-40.12,22.13-56.54,37.53-5.31,5.04-10.35,10.35-15.4,16.3-8.92,10.22-18.11,22-27.04,33.9-1.81,2.45-3.75,5.04-5.56,7.51-4.92,6.72-51.89,75.56-60.17,87.85-4.14,6.2-9.06,13.19-14.37,20.82-1.16,1.68-2.45,3.5-3.74,5.31-8.81,12.55-18.64,25.75-27.7,37.4-4.52,5.81-9.06,11.25-12.94,15.78-4,4.65-7.63,8.4-10.22,10.87-11.12,10.48-24.2,19.02-38.55,24.84-14.37,5.82-30.02,9.06-46.59,9.06-11.38,0-22.38-1.56-32.73-4.4-5.31-1.43-10.49-3.23-15.53-5.43-22.26-9.32-41.28-25.11-54.61-44.91-6.72-9.96-12.03-20.82-15.65-32.47-3.49-11.65-5.56-23.93-5.56-36.87,0-17.21,3.5-33.38,9.7-48.27,9.45-22.25,25.23-41.14,45.03-54.6,9.96-6.73,20.82-11.9,32.47-15.53,11.64-3.63,23.93-5.68,36.87-5.68,16.57.13,32.22,3.23,46.59,9.05,14.35,5.95,27.43,14.37,38.55,24.84,2.59,2.46,6.22,6.34,10.22,10.88,6.99,8.15,15.26,18.62,23.55,29.63,3.23,4.4,6.47,8.79,9.7,13.32,12.42-18.11,34.15-49.94,45.54-66.37-1.93-2.59-3.88-5.17-5.81-7.76-5.18-6.61-10.36-12.94-15.53-18.76-5.18-5.95-10.1-11.26-15.4-16.3-17.85-16.83-38.94-30.54-62.1-39.98-23.29-9.45-48.78-14.63-75.31-14.63s-53.95,5.57-78.01,15.79c-35.97,15.14-66.39,40.5-87.99,72.45-10.74,15.92-19.27,33.64-25.22,52.4-5.82,18.9-8.93,38.82-8.93,59.53,0,27.56,5.56,53.95,15.66,77.88,15.26,36.1,40.62,66.51,72.45,88.12,16.05,10.74,33.65,19.27,52.54,25.22,18.76,5.82,38.82,8.93,59.51,8.93,26.52,0,52.02-5.18,75.31-14.62,23.16-9.45,44.12-23.16,61.98-39.85l.13-.13c5.31-4.92,10.22-10.36,15.4-16.31,8.92-10.22,18.11-21.99,27.04-33.89,1.81-2.46,3.75-4.93,5.56-7.38,4.92-6.86,69.23-101.18,74.52-108.82,1.18-1.68,2.46-3.49,3.75-5.31,8.81-12.42,18.64-25.75,27.7-37.39,4.52-5.82,9.06-11.26,12.94-15.78,4.01-4.66,7.63-8.42,10.22-10.88,11.12-10.47,24.2-18.89,38.55-24.84,3.5-1.42,6.99-2.58,10.61-3.75,11.38-3.36,23.41-5.17,35.97-5.29,17.21.13,33.51,3.49,48.25,9.83,22.25,9.31,41.28,25.09,54.6,44.89,6.73,9.97,12.04,20.84,15.65,32.47,3.63,11.65,5.57,23.94,5.57,36.88,0,17.21-3.5,33.51-9.7,48.25-9.45,22.25-25.23,41.28-45.03,54.6-9.96,6.73-20.82,12.04-32.47,15.53-11.51,3.63-23.93,5.7-36.87,5.7-16.57,0-32.22-3.23-46.59-9.06-14.35-5.82-27.43-14.37-38.55-24.84-2.59-2.46-6.22-6.34-10.22-10.87-6.99-8.02-15.28-18.64-23.55-29.63-3.36-4.4-6.6-8.93-9.83-13.46-1.04,1.55-2.07,3.11-3.23,4.79-21.35,31.31-34.81,51.11-42.18,61.84,1.93,2.59,3.88,5.05,5.81,7.65,5.18,6.6,10.36,12.94,15.53,18.75,5.05,5.95,10.1,11.4,15.4,16.31,17.85,16.82,38.94,30.53,62.1,39.98,23.29,9.44,48.77,14.62,75.31,14.62s53.95-5.56,77.88-15.65c36.1-15.26,66.5-40.62,88.12-72.59,10.73-15.91,19.41-33.51,25.22-52.4,5.83-18.76,8.94-38.82,8.94-59.51,0-27.56-5.56-53.95-15.66-77.9Z"/></g></svg>