<?xml version="1.0" encoding="UTF-8"?><svg id="b" xmlns="http://www.w3.org/2000/svg" viewBox="0 0 1000 1000"><defs><style>.f{stroke:#202020;stroke-miterlimit:10;stroke-width:20px;}.f,.g{fill:none;}.g{stroke:#fff;stroke-linecap:round;stroke-linejoin:round;stroke-width:66.67px;}</style></defs><g id="c"><rect id="d" width="1000" height="1000"/><rect id="e" class="f" x="10" y="10" width="980" height="980"/><path class="g" d="M233.33,733.33v-426.67c0-37.34,0-56.01,7.27-70.27,6.39-12.54,16.59-22.74,29.13-29.13,14.26-7.27,32.93-7.27,70.27-7.27h320c37.34,0,56.01,0,70.27,7.27,12.54,6.39,22.74,16.59,29.13,29.13,7.27,14.26,7.27,32.93,7.27,70.27v360h-466.67c-36.82,0-66.67,29.85-66.67,66.67ZM233.33,733.33c0,36.82,29.85,66.67,66.67,66.67h466.67M400,333.33h200M400,466.67h200M733.33,666.67v133.33"/></g></svg>