<?xml version="1.0" encoding="UTF-8"?><svg id="b" xmlns="http://www.w3.org/2000/svg" viewBox="0 0 1000 1000"><defs><style>.f{stroke:#202020;stroke-miterlimit:10;stroke-width:20px;}.f,.g{fill:none;}.g{stroke:#fff;stroke-linecap:round;stroke-linejoin:round;stroke-width:66.67px;}</style></defs><g id="c"><rect id="d" width="1000" height="1000"/><rect id="e" class="f" x="10" y="10" width="980" height="980"/><path class="g" d="M333.33,266.67v466.67M666.67,266.67v466.67M200,366.67h133.33M666.67,366.67h133.33M200,633.33h133.33M666.67,633.33h133.33M200,500h133.33M666.67,500h133.33M306.67,766.67h386.67c37.34,0,56.01,0,70.27-7.27,12.54-6.39,22.74-16.59,29.13-29.13,7.27-14.26,7.27-32.93,7.27-70.27v-320c0-37.34,0-56.01-7.27-70.27-6.39-12.54-16.59-22.74-29.13-29.13-14.26-7.27-32.93-7.27-70.27-7.27h-386.67c-37.34,0-56.01,0-70.27,7.27-12.54,6.39-22.74,16.59-29.13,29.13-7.27,14.26-7.27,32.93-7.27,70.27v320c0,37.34,0,56.01,7.27,70.27,6.39,12.54,16.59,22.74,29.13,29.13,14.26,7.27,32.93,7.27,70.27,7.27Z"/></g></svg>