<?xml version="1.0" encoding="UTF-8"?><svg id="b" xmlns="http://www.w3.org/2000/svg" viewBox="0 0 1000 1000"><defs><style>.f{fill:none;stroke:#202020;stroke-miterlimit:10;stroke-width:20px;}.g{fill:#fff;}</style></defs><g id="c"><rect id="d" width="1000" height="1000"/><rect id="e" class="f" x="10" y="10" width="980" height="980"/><path class="g" d="M785.76,755.2l-2.68-5.95c-.62-139.85,22.1-268.8-94.04-370.34-136.57-119.4-351.45-83.2-437.58,75.9l32.27-22.09c185.86-109.12,412.98,12.69,423.56,228.34,1.15,23.52,2.64,65.83.02,88.2-.29,2.51-.21,4.44-2.68,5.95h-60.42l-2.59-2.59v-112.21c0-21.22-18.92-65.05-30.36-83.58-87.05-141.07-294.37-131.46-371.87,12.81,4.56.81,11.15-5.42,16.1-8.07,147-79.05,316.86,28.14,306.72,193.65h-63.87v-31.94c0-17.09-13.85-48.42-23.46-62.85-58.99-88.58-196.36-80.4-243.81,14.83-3.73,7.48-14.12,35.75-14.12,42.85v34.53l-2.59,2.59h-60.42l-2.68-5.95c1.22-123.08-14.62-235.88,54.61-344.35,141.45-221.58,473.96-211.31,600.05,19.41,56.8,103.93,41.06,210.75,42.95,324.94l-2.68,5.95h-60.42Z"/></g></svg>