<?xml version="1.0" encoding="UTF-8"?><svg id="b" xmlns="http://www.w3.org/2000/svg" viewBox="0 0 1000 1000"><defs><style>.f{fill:none;stroke:#202020;stroke-miterlimit:10;stroke-width:20px;}.g{fill:#fff;}</style></defs><g id="c"><rect id="d" width="1000" height="1000"/><rect id="e" class="f" x="10" y="10" width="980" height="980"/><path class="g" d="M716.41,313.68l-84.42,266.86c-3.25,9.06-5.68,17.47-7.29,25.24-1.61,7.77-2.42,13.91-2.42,18.42,0,8.43,1.61,15.22,4.85,20.39s9.06,7.75,17.47,7.75c15.52,0,31.04-6.46,46.57-19.4,15.53-12.94,29.76-29.76,42.7-50.47,12.94-20.7,23.29-43.18,31.05-67.44,7.77-24.25,11.65-48.02,11.65-71.32,0-33.64-7.12-64.69-21.36-93.15-14.24-28.46-33.31-53.06-57.24-73.77-23.95-20.7-51.44-36.55-82.5-47.55-31.05-10.99-64.04-16.5-98.98-16.5-40.76,0-78.76,7.92-114.02,23.77s-66.48,37.36-93.64,64.53c-27.17,27.18-48.2,58.23-63.07,93.17-14.89,34.93-22.32,71.16-22.32,108.67,0,39.47,7.59,76.51,22.8,111.12,15.2,34.62,36.39,64.53,63.57,89.76,27.17,25.89,58.55,46.27,94.13,61.14,35.58,14.89,74.72,22.32,117.42,22.32,23.29,0,46.57-2.75,69.87-8.24,23.29-5.49,45.28-12.79,65.99-21.85,20.7-9.06,39.62-19.89,56.77-32.5,17.14-12.61,31.53-25.72,43.18-39.31h74.73c-15.53,25.89-34.79,49.17-57.74,69.87-22.97,20.71-48.04,38.17-75.21,52.41-27.82,14.24-57.41,25.07-88.8,32.5s-63.56,11.16-96.55,11.16c-50.47,0-97.86-8.89-142.17-26.68-44.33-17.79-82.97-42.54-115.96-74.24-32.99-31.05-59.04-68.24-78.12-111.59-19.09-43.35-28.62-90.25-28.62-140.72s9.69-93.96,29.11-136.33,45.94-79.42,79.58-111.12c32.99-31.7,71.64-56.6,115.96-74.72,44.31-18.12,91.7-27.18,142.17-27.18,45.28,0,88.29,7.12,129.05,21.36s76.66,34.29,107.72,60.16c31.05,25.89,55.31,56.45,72.78,91.7,17.46,35.26,26.2,74.24,26.2,116.93s-7.61,77.81-22.81,111.12c-15.2,33.32-34.12,61.63-56.75,84.91-22.65,23.93-46.76,42.53-72.3,55.79-25.56,13.26-48.68,19.89-69.38,19.89-22,0-39.47-5.01-52.41-15.03-12.94-10.02-20.7-25.39-23.29-46.1h-1.94c-7.12,7.77-14.4,15.2-21.83,22.32-7.45,7.12-15.69,13.59-24.75,19.4-9.71,5.82-20.38,10.51-32.03,14.07-11.65,3.57-24.91,5.34-39.78,5.34-20.71,0-39.62-3.87-56.77-11.64-17.14-7.77-31.87-18.44-44.15-32.03-25.23-28.46-37.84-63.07-37.84-103.83,0-31.7,5.49-63.4,16.5-95.1,10.99-31.7,26.52-60.17,46.57-85.4,19.42-25.23,42.86-45.78,70.36-61.63,27.5-15.85,58.71-23.77,93.64-23.77,22.64,0,44.47,5.82,65.5,17.47s36.39,31.05,46.1,58.22h1.94l19.42-59.2h61.14ZM594.13,447.59c0-22.64-6.15-41.71-18.44-57.24-12.3-15.53-30.09-23.3-53.37-23.3-21.34,0-41.08,6-59.2,17.96-18.12,11.97-33.64,27.33-46.57,46.08-13.59,18.77-24.26,39.31-32.03,61.63-7.77,22.32-11.64,43.51-11.64,63.56,0,27.18,7.28,48.04,21.83,62.59s34.12,21.83,58.71,21.83c18.11,0,35.74-6.46,52.88-19.4,17.14-12.93,32.17-29.11,45.12-48.53,12.94-18.76,23.29-39.45,31.05-62.09s11.65-43.68,11.65-63.09Z"/></g></svg>