<?xml version="1.0" encoding="UTF-8"?><svg id="b" xmlns="http://www.w3.org/2000/svg" viewBox="0 0 1000 1000"><defs><style>.h{fill:none;stroke:#202020;stroke-miterlimit:10;stroke-width:20px;}.i{fill:#fff;}</style></defs><g id="c"><rect id="d" width="1000" height="1000"/><rect id="e" class="h" x="10" y="10" width="980" height="980"/><path d="M796.98,415.24l-1.3,6.46c6.51,10.08,15.88,18.09,22.65,27.95-.16,4-1.13,10.05.56,13.69.89.75,1,.96,2.13,1.07.77-6.44.66-12.95,1.42-19.37-3.87-5.14-21.62-27.11-25.46-29.81Z"/><path d="M825.61,445.5c-.74,6.37-.89,12.79-1.63,19.16l.35.4c9.95-6.25,20.42-11.85,30.19-18.34.04-2.77.75-15.39-.43-16.9-9.39,5.37-19.18,10.23-28.49,15.68Z"/><rect x="254.41" y="279.55" width="510.85" height="451.25"/><g id="f"><path id="g" class="i" d="M252.2,202.64c-27.46,0-49.56,22.1-49.56,49.56v495.6c0,27.46,22.1,49.56,49.56,49.56h495.6c27.46,0,49.56-22.1,49.56-49.56V252.2c0-27.46-22.1-49.56-49.56-49.56H252.2ZM298.66,336.36l161.55,99.75v40.51l-160.3,99.75-22.94-33.4,142.78-86.39-142.78-85.57,21.68-34.65ZM514.33,625.21h208.69v38.43h-208.69v-38.43Z"/></g></g></svg>