<?xml version="1.0" encoding="UTF-8"?><svg id="b" xmlns="http://www.w3.org/2000/svg" viewBox="0 0 1000 1000"><defs><style>.f{fill:none;stroke:#202020;stroke-miterlimit:10;stroke-width:20px;}.g{fill:#fff;}</style></defs><g id="c"><rect id="d" width="1000" height="1000"/><rect id="e" class="f" x="10" y="10" width="980" height="980"/><rect x="254.41" y="279.55" width="510.85" height="451.25"/><path class="g" d="M837.82,500c0,186.57-151.25,337.82-337.82,337.82s-337.82-151.25-337.82-337.82S313.43,162.18,500,162.18s337.82,151.25,337.82,337.82ZM483.82,246.67c-64.92,5.34-148.06,60.84-160.76,127.94-6.12,32.35,32.85,43.23,46.63,19.68,7.79-13.3,10.79-27.9,21.12-42.33,55.54-77.61,176.9-71.44,225.26,10.56,11.54,19.57,15.54,54.63,47.69,41.89,32.5-12.88-2.38-67.76-15.58-85.1-38.4-50.43-101.02-77.84-164.36-72.63ZM414.36,688.77c.31-17.74-3.53-35.15-7.14-52.36-10.83-51.69-26.83-102.51-37.71-154.23-.8-1.8-3.47-5.15-5.06-6.04-3.87-2.18-33.81-2.37-39.82-1.59-12.68,1.65-7.55,13.1-5.68,21.7,15.34,70.67,42.3,141.95,58.45,212.81,1.16,4.47,3.6,9.27,8.3,10.74,5.51,1.71,46.18,1.67,53.12.61,3.83-.59,8.96-3.16,10.77-6.67,17.46-67.39,39.52-133.89,51.19-202.63,10.43,69.78,33.51,137.06,51.49,205.1.86,1.27,4.57,3.56,6.01,3.88,7.62,1.7,41.8,1.49,50.41.47,12.59-1.5,12.93-8.64,16.17-18.73,22.49-70.18,36.21-145.53,58.52-216.06,1.21-5.83-1.93-10.38-8.02-11.2-6.46-.87-36.52-.79-40.47,2.52-1.45,1.22-2.22,3.21-3.06,4.88-15.74,68.65-33.58,137.05-43.81,206.84-3.78,1.08-2.01-3.34-2.4-5.49-12.26-68.28-34.81-134.39-52.55-201.29-2.91-4.5-6.27-6.78-11.63-7.41-9.02-1.06-32.28-1.05-41.31,0-12.65,1.47-13.09,14.81-16.17,25.07-18.16,60.49-31.03,122.42-46.46,183.56-.56,2.2.02,4.95-3.15,5.56Z"/><path d="M414.36,688.77c3.18-.61,2.6-3.35,3.15-5.56,15.42-61.14,28.3-123.07,46.46-183.56,3.08-10.27,3.53-23.6,16.17-25.07,9.04-1.05,32.29-1.07,41.31,0,5.35.63,8.72,2.9,11.63,7.41,17.74,66.9,40.29,133.01,52.55,201.29.39,2.15-1.39,6.58,2.4,5.49,10.24-69.79,28.08-138.19,43.81-206.84.84-1.67,1.6-3.66,3.06-4.88,3.95-3.31,34.01-3.38,40.47-2.52,6.09.82,9.23,5.36,8.02,11.2-22.3,70.53-36.02,145.88-58.52,216.06-3.23,10.09-3.57,17.23-16.17,18.73-8.61,1.03-42.78,1.23-50.41-.47-1.44-.32-5.15-2.61-6.01-3.88-17.98-68.04-41.06-135.31-51.49-205.1-11.67,68.74-33.73,135.24-51.19,202.63-1.81,3.52-6.95,6.09-10.77,6.67-6.95,1.06-47.62,1.1-53.12-.61-4.7-1.46-7.14-6.27-8.3-10.74-16.15-70.86-43.11-142.13-58.45-212.81-1.87-8.6-7-20.05,5.68-21.7,6.01-.78,35.95-.59,39.82,1.59,1.59.9,4.25,4.25,5.06,6.04,10.88,51.72,26.88,102.54,37.71,154.23,3.61,17.22,7.45,34.62,7.14,52.36Z"/><path d="M483.82,246.67c63.35-5.21,125.96,22.2,164.36,72.63,13.21,17.34,48.08,72.22,15.58,85.1-32.15,12.74-36.15-22.32-47.69-41.89-48.35-82.01-169.71-88.17-225.26-10.56-10.33,14.43-13.33,29.03-21.12,42.33-13.79,23.55-52.76,12.67-46.63-19.68,12.7-67.1,95.84-122.6,160.76-127.94Z"/></g></svg>